%TF.GenerationSoftware,KiCad,Pcbnew,8.0.8*%
%TF.CreationDate,2025-02-18T21:41:40-08:00*%
%TF.ProjectId,pcbfrfr,70636266-7266-4722-9e6b-696361645f70,rev?*%
%TF.SameCoordinates,Original*%
%TF.FileFunction,Legend,Top*%
%TF.FilePolarity,Positive*%
%FSLAX46Y46*%
G04 Gerber Fmt 4.6, Leading zero omitted, Abs format (unit mm)*
G04 Created by KiCad (PCBNEW 8.0.8) date 2025-02-18 21:41:40*
%MOMM*%
%LPD*%
G01*
G04 APERTURE LIST*
G04 Aperture macros list*
%AMRoundRect*
0 Rectangle with rounded corners*
0 $1 Rounding radius*
0 $2 $3 $4 $5 $6 $7 $8 $9 X,Y pos of 4 corners*
0 Add a 4 corners polygon primitive as box body*
4,1,4,$2,$3,$4,$5,$6,$7,$8,$9,$2,$3,0*
0 Add four circle primitives for the rounded corners*
1,1,$1+$1,$2,$3*
1,1,$1+$1,$4,$5*
1,1,$1+$1,$6,$7*
1,1,$1+$1,$8,$9*
0 Add four rect primitives between the rounded corners*
20,1,$1+$1,$2,$3,$4,$5,0*
20,1,$1+$1,$4,$5,$6,$7,0*
20,1,$1+$1,$6,$7,$8,$9,0*
20,1,$1+$1,$8,$9,$2,$3,0*%
G04 Aperture macros list end*
%ADD10C,0.150000*%
%ADD11C,0.120000*%
%ADD12R,1.700000X1.700000*%
%ADD13O,1.700000X1.700000*%
%ADD14RoundRect,0.250000X-0.250000X-0.475000X0.250000X-0.475000X0.250000X0.475000X-0.250000X0.475000X0*%
%ADD15RoundRect,0.140000X-0.140000X-0.170000X0.140000X-0.170000X0.140000X0.170000X-0.140000X0.170000X0*%
%ADD16RoundRect,0.250000X-0.700000X-1.000000X0.700000X-1.000000X0.700000X1.000000X-0.700000X1.000000X0*%
%ADD17RoundRect,0.140000X-0.170000X0.140000X-0.170000X-0.140000X0.170000X-0.140000X0.170000X0.140000X0*%
%ADD18RoundRect,0.150000X-0.150000X0.512500X-0.150000X-0.512500X0.150000X-0.512500X0.150000X0.512500X0*%
%ADD19O,1.500000X2.000000*%
%ADD20C,2.000000*%
%ADD21R,2.000000X3.000000*%
%ADD22RoundRect,0.150000X-0.512500X-0.150000X0.512500X-0.150000X0.512500X0.150000X-0.512500X0.150000X0*%
%ADD23RoundRect,0.250000X0.700000X1.000000X-0.700000X1.000000X-0.700000X-1.000000X0.700000X-1.000000X0*%
%ADD24RoundRect,0.140000X0.170000X-0.140000X0.170000X0.140000X-0.170000X0.140000X-0.170000X-0.140000X0*%
%ADD25RoundRect,0.250000X-0.650000X1.000000X-0.650000X-1.000000X0.650000X-1.000000X0.650000X1.000000X0*%
%ADD26R,2.000000X2.000000*%
%ADD27R,1.200000X1.200000*%
%ADD28C,1.200000*%
G04 APERTURE END LIST*
D10*
X176490476Y-39184819D02*
X176490476Y-39899104D01*
X176490476Y-39899104D02*
X176442857Y-40041961D01*
X176442857Y-40041961D02*
X176347619Y-40137200D01*
X176347619Y-40137200D02*
X176204762Y-40184819D01*
X176204762Y-40184819D02*
X176109524Y-40184819D01*
X177490476Y-40184819D02*
X176919048Y-40184819D01*
X177204762Y-40184819D02*
X177204762Y-39184819D01*
X177204762Y-39184819D02*
X177109524Y-39327676D01*
X177109524Y-39327676D02*
X177014286Y-39422914D01*
X177014286Y-39422914D02*
X176919048Y-39470533D01*
X178347619Y-39184819D02*
X178157143Y-39184819D01*
X178157143Y-39184819D02*
X178061905Y-39232438D01*
X178061905Y-39232438D02*
X178014286Y-39280057D01*
X178014286Y-39280057D02*
X177919048Y-39422914D01*
X177919048Y-39422914D02*
X177871429Y-39613390D01*
X177871429Y-39613390D02*
X177871429Y-39994342D01*
X177871429Y-39994342D02*
X177919048Y-40089580D01*
X177919048Y-40089580D02*
X177966667Y-40137200D01*
X177966667Y-40137200D02*
X178061905Y-40184819D01*
X178061905Y-40184819D02*
X178252381Y-40184819D01*
X178252381Y-40184819D02*
X178347619Y-40137200D01*
X178347619Y-40137200D02*
X178395238Y-40089580D01*
X178395238Y-40089580D02*
X178442857Y-39994342D01*
X178442857Y-39994342D02*
X178442857Y-39756247D01*
X178442857Y-39756247D02*
X178395238Y-39661009D01*
X178395238Y-39661009D02*
X178347619Y-39613390D01*
X178347619Y-39613390D02*
X178252381Y-39565771D01*
X178252381Y-39565771D02*
X178061905Y-39565771D01*
X178061905Y-39565771D02*
X177966667Y-39613390D01*
X177966667Y-39613390D02*
X177919048Y-39661009D01*
X177919048Y-39661009D02*
X177871429Y-39756247D01*
X152083333Y-51679580D02*
X152035714Y-51727200D01*
X152035714Y-51727200D02*
X151892857Y-51774819D01*
X151892857Y-51774819D02*
X151797619Y-51774819D01*
X151797619Y-51774819D02*
X151654762Y-51727200D01*
X151654762Y-51727200D02*
X151559524Y-51631961D01*
X151559524Y-51631961D02*
X151511905Y-51536723D01*
X151511905Y-51536723D02*
X151464286Y-51346247D01*
X151464286Y-51346247D02*
X151464286Y-51203390D01*
X151464286Y-51203390D02*
X151511905Y-51012914D01*
X151511905Y-51012914D02*
X151559524Y-50917676D01*
X151559524Y-50917676D02*
X151654762Y-50822438D01*
X151654762Y-50822438D02*
X151797619Y-50774819D01*
X151797619Y-50774819D02*
X151892857Y-50774819D01*
X151892857Y-50774819D02*
X152035714Y-50822438D01*
X152035714Y-50822438D02*
X152083333Y-50870057D01*
X152416667Y-50774819D02*
X153035714Y-50774819D01*
X153035714Y-50774819D02*
X152702381Y-51155771D01*
X152702381Y-51155771D02*
X152845238Y-51155771D01*
X152845238Y-51155771D02*
X152940476Y-51203390D01*
X152940476Y-51203390D02*
X152988095Y-51251009D01*
X152988095Y-51251009D02*
X153035714Y-51346247D01*
X153035714Y-51346247D02*
X153035714Y-51584342D01*
X153035714Y-51584342D02*
X152988095Y-51679580D01*
X152988095Y-51679580D02*
X152940476Y-51727200D01*
X152940476Y-51727200D02*
X152845238Y-51774819D01*
X152845238Y-51774819D02*
X152559524Y-51774819D01*
X152559524Y-51774819D02*
X152464286Y-51727200D01*
X152464286Y-51727200D02*
X152416667Y-51679580D01*
X158113333Y-51199580D02*
X158065714Y-51247200D01*
X158065714Y-51247200D02*
X157922857Y-51294819D01*
X157922857Y-51294819D02*
X157827619Y-51294819D01*
X157827619Y-51294819D02*
X157684762Y-51247200D01*
X157684762Y-51247200D02*
X157589524Y-51151961D01*
X157589524Y-51151961D02*
X157541905Y-51056723D01*
X157541905Y-51056723D02*
X157494286Y-50866247D01*
X157494286Y-50866247D02*
X157494286Y-50723390D01*
X157494286Y-50723390D02*
X157541905Y-50532914D01*
X157541905Y-50532914D02*
X157589524Y-50437676D01*
X157589524Y-50437676D02*
X157684762Y-50342438D01*
X157684762Y-50342438D02*
X157827619Y-50294819D01*
X157827619Y-50294819D02*
X157922857Y-50294819D01*
X157922857Y-50294819D02*
X158065714Y-50342438D01*
X158065714Y-50342438D02*
X158113333Y-50390057D01*
X158684762Y-50723390D02*
X158589524Y-50675771D01*
X158589524Y-50675771D02*
X158541905Y-50628152D01*
X158541905Y-50628152D02*
X158494286Y-50532914D01*
X158494286Y-50532914D02*
X158494286Y-50485295D01*
X158494286Y-50485295D02*
X158541905Y-50390057D01*
X158541905Y-50390057D02*
X158589524Y-50342438D01*
X158589524Y-50342438D02*
X158684762Y-50294819D01*
X158684762Y-50294819D02*
X158875238Y-50294819D01*
X158875238Y-50294819D02*
X158970476Y-50342438D01*
X158970476Y-50342438D02*
X159018095Y-50390057D01*
X159018095Y-50390057D02*
X159065714Y-50485295D01*
X159065714Y-50485295D02*
X159065714Y-50532914D01*
X159065714Y-50532914D02*
X159018095Y-50628152D01*
X159018095Y-50628152D02*
X158970476Y-50675771D01*
X158970476Y-50675771D02*
X158875238Y-50723390D01*
X158875238Y-50723390D02*
X158684762Y-50723390D01*
X158684762Y-50723390D02*
X158589524Y-50771009D01*
X158589524Y-50771009D02*
X158541905Y-50818628D01*
X158541905Y-50818628D02*
X158494286Y-50913866D01*
X158494286Y-50913866D02*
X158494286Y-51104342D01*
X158494286Y-51104342D02*
X158541905Y-51199580D01*
X158541905Y-51199580D02*
X158589524Y-51247200D01*
X158589524Y-51247200D02*
X158684762Y-51294819D01*
X158684762Y-51294819D02*
X158875238Y-51294819D01*
X158875238Y-51294819D02*
X158970476Y-51247200D01*
X158970476Y-51247200D02*
X159018095Y-51199580D01*
X159018095Y-51199580D02*
X159065714Y-51104342D01*
X159065714Y-51104342D02*
X159065714Y-50913866D01*
X159065714Y-50913866D02*
X159018095Y-50818628D01*
X159018095Y-50818628D02*
X158970476Y-50771009D01*
X158970476Y-50771009D02*
X158875238Y-50723390D01*
X160633333Y-53354819D02*
X160157143Y-53354819D01*
X160157143Y-53354819D02*
X160157143Y-52354819D01*
X160871429Y-52354819D02*
X161490476Y-52354819D01*
X161490476Y-52354819D02*
X161157143Y-52735771D01*
X161157143Y-52735771D02*
X161300000Y-52735771D01*
X161300000Y-52735771D02*
X161395238Y-52783390D01*
X161395238Y-52783390D02*
X161442857Y-52831009D01*
X161442857Y-52831009D02*
X161490476Y-52926247D01*
X161490476Y-52926247D02*
X161490476Y-53164342D01*
X161490476Y-53164342D02*
X161442857Y-53259580D01*
X161442857Y-53259580D02*
X161395238Y-53307200D01*
X161395238Y-53307200D02*
X161300000Y-53354819D01*
X161300000Y-53354819D02*
X161014286Y-53354819D01*
X161014286Y-53354819D02*
X160919048Y-53307200D01*
X160919048Y-53307200D02*
X160871429Y-53259580D01*
X167357142Y-108359580D02*
X167309523Y-108407200D01*
X167309523Y-108407200D02*
X167166666Y-108454819D01*
X167166666Y-108454819D02*
X167071428Y-108454819D01*
X167071428Y-108454819D02*
X166928571Y-108407200D01*
X166928571Y-108407200D02*
X166833333Y-108311961D01*
X166833333Y-108311961D02*
X166785714Y-108216723D01*
X166785714Y-108216723D02*
X166738095Y-108026247D01*
X166738095Y-108026247D02*
X166738095Y-107883390D01*
X166738095Y-107883390D02*
X166785714Y-107692914D01*
X166785714Y-107692914D02*
X166833333Y-107597676D01*
X166833333Y-107597676D02*
X166928571Y-107502438D01*
X166928571Y-107502438D02*
X167071428Y-107454819D01*
X167071428Y-107454819D02*
X167166666Y-107454819D01*
X167166666Y-107454819D02*
X167309523Y-107502438D01*
X167309523Y-107502438D02*
X167357142Y-107550057D01*
X168309523Y-108454819D02*
X167738095Y-108454819D01*
X168023809Y-108454819D02*
X168023809Y-107454819D01*
X168023809Y-107454819D02*
X167928571Y-107597676D01*
X167928571Y-107597676D02*
X167833333Y-107692914D01*
X167833333Y-107692914D02*
X167738095Y-107740533D01*
X168690476Y-107550057D02*
X168738095Y-107502438D01*
X168738095Y-107502438D02*
X168833333Y-107454819D01*
X168833333Y-107454819D02*
X169071428Y-107454819D01*
X169071428Y-107454819D02*
X169166666Y-107502438D01*
X169166666Y-107502438D02*
X169214285Y-107550057D01*
X169214285Y-107550057D02*
X169261904Y-107645295D01*
X169261904Y-107645295D02*
X169261904Y-107740533D01*
X169261904Y-107740533D02*
X169214285Y-107883390D01*
X169214285Y-107883390D02*
X168642857Y-108454819D01*
X168642857Y-108454819D02*
X169261904Y-108454819D01*
X122944819Y-62933333D02*
X123659104Y-62933333D01*
X123659104Y-62933333D02*
X123801961Y-62980952D01*
X123801961Y-62980952D02*
X123897200Y-63076190D01*
X123897200Y-63076190D02*
X123944819Y-63219047D01*
X123944819Y-63219047D02*
X123944819Y-63314285D01*
X122944819Y-62552380D02*
X122944819Y-61885714D01*
X122944819Y-61885714D02*
X123944819Y-62314285D01*
X166190476Y-72954819D02*
X166190476Y-73669104D01*
X166190476Y-73669104D02*
X166142857Y-73811961D01*
X166142857Y-73811961D02*
X166047619Y-73907200D01*
X166047619Y-73907200D02*
X165904762Y-73954819D01*
X165904762Y-73954819D02*
X165809524Y-73954819D01*
X167190476Y-73954819D02*
X166619048Y-73954819D01*
X166904762Y-73954819D02*
X166904762Y-72954819D01*
X166904762Y-72954819D02*
X166809524Y-73097676D01*
X166809524Y-73097676D02*
X166714286Y-73192914D01*
X166714286Y-73192914D02*
X166619048Y-73240533D01*
X168142857Y-73954819D02*
X167571429Y-73954819D01*
X167857143Y-73954819D02*
X167857143Y-72954819D01*
X167857143Y-72954819D02*
X167761905Y-73097676D01*
X167761905Y-73097676D02*
X167666667Y-73192914D01*
X167666667Y-73192914D02*
X167571429Y-73240533D01*
X182190476Y-76464819D02*
X182190476Y-77179104D01*
X182190476Y-77179104D02*
X182142857Y-77321961D01*
X182142857Y-77321961D02*
X182047619Y-77417200D01*
X182047619Y-77417200D02*
X181904762Y-77464819D01*
X181904762Y-77464819D02*
X181809524Y-77464819D01*
X183190476Y-77464819D02*
X182619048Y-77464819D01*
X182904762Y-77464819D02*
X182904762Y-76464819D01*
X182904762Y-76464819D02*
X182809524Y-76607676D01*
X182809524Y-76607676D02*
X182714286Y-76702914D01*
X182714286Y-76702914D02*
X182619048Y-76750533D01*
X183666667Y-77464819D02*
X183857143Y-77464819D01*
X183857143Y-77464819D02*
X183952381Y-77417200D01*
X183952381Y-77417200D02*
X184000000Y-77369580D01*
X184000000Y-77369580D02*
X184095238Y-77226723D01*
X184095238Y-77226723D02*
X184142857Y-77036247D01*
X184142857Y-77036247D02*
X184142857Y-76655295D01*
X184142857Y-76655295D02*
X184095238Y-76560057D01*
X184095238Y-76560057D02*
X184047619Y-76512438D01*
X184047619Y-76512438D02*
X183952381Y-76464819D01*
X183952381Y-76464819D02*
X183761905Y-76464819D01*
X183761905Y-76464819D02*
X183666667Y-76512438D01*
X183666667Y-76512438D02*
X183619048Y-76560057D01*
X183619048Y-76560057D02*
X183571429Y-76655295D01*
X183571429Y-76655295D02*
X183571429Y-76893390D01*
X183571429Y-76893390D02*
X183619048Y-76988628D01*
X183619048Y-76988628D02*
X183666667Y-77036247D01*
X183666667Y-77036247D02*
X183761905Y-77083866D01*
X183761905Y-77083866D02*
X183952381Y-77083866D01*
X183952381Y-77083866D02*
X184047619Y-77036247D01*
X184047619Y-77036247D02*
X184095238Y-76988628D01*
X184095238Y-76988628D02*
X184142857Y-76893390D01*
X166340476Y-33544819D02*
X166340476Y-34259104D01*
X166340476Y-34259104D02*
X166292857Y-34401961D01*
X166292857Y-34401961D02*
X166197619Y-34497200D01*
X166197619Y-34497200D02*
X166054762Y-34544819D01*
X166054762Y-34544819D02*
X165959524Y-34544819D01*
X167340476Y-34544819D02*
X166769048Y-34544819D01*
X167054762Y-34544819D02*
X167054762Y-33544819D01*
X167054762Y-33544819D02*
X166959524Y-33687676D01*
X166959524Y-33687676D02*
X166864286Y-33782914D01*
X166864286Y-33782914D02*
X166769048Y-33830533D01*
X167721429Y-33640057D02*
X167769048Y-33592438D01*
X167769048Y-33592438D02*
X167864286Y-33544819D01*
X167864286Y-33544819D02*
X168102381Y-33544819D01*
X168102381Y-33544819D02*
X168197619Y-33592438D01*
X168197619Y-33592438D02*
X168245238Y-33640057D01*
X168245238Y-33640057D02*
X168292857Y-33735295D01*
X168292857Y-33735295D02*
X168292857Y-33830533D01*
X168292857Y-33830533D02*
X168245238Y-33973390D01*
X168245238Y-33973390D02*
X167673810Y-34544819D01*
X167673810Y-34544819D02*
X168292857Y-34544819D01*
X182190476Y-61464819D02*
X182190476Y-62179104D01*
X182190476Y-62179104D02*
X182142857Y-62321961D01*
X182142857Y-62321961D02*
X182047619Y-62417200D01*
X182047619Y-62417200D02*
X181904762Y-62464819D01*
X181904762Y-62464819D02*
X181809524Y-62464819D01*
X183190476Y-62464819D02*
X182619048Y-62464819D01*
X182904762Y-62464819D02*
X182904762Y-61464819D01*
X182904762Y-61464819D02*
X182809524Y-61607676D01*
X182809524Y-61607676D02*
X182714286Y-61702914D01*
X182714286Y-61702914D02*
X182619048Y-61750533D01*
X183761905Y-61893390D02*
X183666667Y-61845771D01*
X183666667Y-61845771D02*
X183619048Y-61798152D01*
X183619048Y-61798152D02*
X183571429Y-61702914D01*
X183571429Y-61702914D02*
X183571429Y-61655295D01*
X183571429Y-61655295D02*
X183619048Y-61560057D01*
X183619048Y-61560057D02*
X183666667Y-61512438D01*
X183666667Y-61512438D02*
X183761905Y-61464819D01*
X183761905Y-61464819D02*
X183952381Y-61464819D01*
X183952381Y-61464819D02*
X184047619Y-61512438D01*
X184047619Y-61512438D02*
X184095238Y-61560057D01*
X184095238Y-61560057D02*
X184142857Y-61655295D01*
X184142857Y-61655295D02*
X184142857Y-61702914D01*
X184142857Y-61702914D02*
X184095238Y-61798152D01*
X184095238Y-61798152D02*
X184047619Y-61845771D01*
X184047619Y-61845771D02*
X183952381Y-61893390D01*
X183952381Y-61893390D02*
X183761905Y-61893390D01*
X183761905Y-61893390D02*
X183666667Y-61941009D01*
X183666667Y-61941009D02*
X183619048Y-61988628D01*
X183619048Y-61988628D02*
X183571429Y-62083866D01*
X183571429Y-62083866D02*
X183571429Y-62274342D01*
X183571429Y-62274342D02*
X183619048Y-62369580D01*
X183619048Y-62369580D02*
X183666667Y-62417200D01*
X183666667Y-62417200D02*
X183761905Y-62464819D01*
X183761905Y-62464819D02*
X183952381Y-62464819D01*
X183952381Y-62464819D02*
X184047619Y-62417200D01*
X184047619Y-62417200D02*
X184095238Y-62369580D01*
X184095238Y-62369580D02*
X184142857Y-62274342D01*
X184142857Y-62274342D02*
X184142857Y-62083866D01*
X184142857Y-62083866D02*
X184095238Y-61988628D01*
X184095238Y-61988628D02*
X184047619Y-61941009D01*
X184047619Y-61941009D02*
X183952381Y-61893390D01*
X176490476Y-54649819D02*
X176490476Y-55364104D01*
X176490476Y-55364104D02*
X176442857Y-55506961D01*
X176442857Y-55506961D02*
X176347619Y-55602200D01*
X176347619Y-55602200D02*
X176204762Y-55649819D01*
X176204762Y-55649819D02*
X176109524Y-55649819D01*
X177490476Y-55649819D02*
X176919048Y-55649819D01*
X177204762Y-55649819D02*
X177204762Y-54649819D01*
X177204762Y-54649819D02*
X177109524Y-54792676D01*
X177109524Y-54792676D02*
X177014286Y-54887914D01*
X177014286Y-54887914D02*
X176919048Y-54935533D01*
X178109524Y-54649819D02*
X178204762Y-54649819D01*
X178204762Y-54649819D02*
X178300000Y-54697438D01*
X178300000Y-54697438D02*
X178347619Y-54745057D01*
X178347619Y-54745057D02*
X178395238Y-54840295D01*
X178395238Y-54840295D02*
X178442857Y-55030771D01*
X178442857Y-55030771D02*
X178442857Y-55268866D01*
X178442857Y-55268866D02*
X178395238Y-55459342D01*
X178395238Y-55459342D02*
X178347619Y-55554580D01*
X178347619Y-55554580D02*
X178300000Y-55602200D01*
X178300000Y-55602200D02*
X178204762Y-55649819D01*
X178204762Y-55649819D02*
X178109524Y-55649819D01*
X178109524Y-55649819D02*
X178014286Y-55602200D01*
X178014286Y-55602200D02*
X177966667Y-55554580D01*
X177966667Y-55554580D02*
X177919048Y-55459342D01*
X177919048Y-55459342D02*
X177871429Y-55268866D01*
X177871429Y-55268866D02*
X177871429Y-55030771D01*
X177871429Y-55030771D02*
X177919048Y-54840295D01*
X177919048Y-54840295D02*
X177966667Y-54745057D01*
X177966667Y-54745057D02*
X178014286Y-54697438D01*
X178014286Y-54697438D02*
X178109524Y-54649819D01*
X170990476Y-46724819D02*
X170990476Y-47439104D01*
X170990476Y-47439104D02*
X170942857Y-47581961D01*
X170942857Y-47581961D02*
X170847619Y-47677200D01*
X170847619Y-47677200D02*
X170704762Y-47724819D01*
X170704762Y-47724819D02*
X170609524Y-47724819D01*
X171990476Y-47724819D02*
X171419048Y-47724819D01*
X171704762Y-47724819D02*
X171704762Y-46724819D01*
X171704762Y-46724819D02*
X171609524Y-46867676D01*
X171609524Y-46867676D02*
X171514286Y-46962914D01*
X171514286Y-46962914D02*
X171419048Y-47010533D01*
X172895238Y-46724819D02*
X172419048Y-46724819D01*
X172419048Y-46724819D02*
X172371429Y-47201009D01*
X172371429Y-47201009D02*
X172419048Y-47153390D01*
X172419048Y-47153390D02*
X172514286Y-47105771D01*
X172514286Y-47105771D02*
X172752381Y-47105771D01*
X172752381Y-47105771D02*
X172847619Y-47153390D01*
X172847619Y-47153390D02*
X172895238Y-47201009D01*
X172895238Y-47201009D02*
X172942857Y-47296247D01*
X172942857Y-47296247D02*
X172942857Y-47534342D01*
X172942857Y-47534342D02*
X172895238Y-47629580D01*
X172895238Y-47629580D02*
X172847619Y-47677200D01*
X172847619Y-47677200D02*
X172752381Y-47724819D01*
X172752381Y-47724819D02*
X172514286Y-47724819D01*
X172514286Y-47724819D02*
X172419048Y-47677200D01*
X172419048Y-47677200D02*
X172371429Y-47629580D01*
X170990476Y-33544819D02*
X170990476Y-34259104D01*
X170990476Y-34259104D02*
X170942857Y-34401961D01*
X170942857Y-34401961D02*
X170847619Y-34497200D01*
X170847619Y-34497200D02*
X170704762Y-34544819D01*
X170704762Y-34544819D02*
X170609524Y-34544819D01*
X171990476Y-34544819D02*
X171419048Y-34544819D01*
X171704762Y-34544819D02*
X171704762Y-33544819D01*
X171704762Y-33544819D02*
X171609524Y-33687676D01*
X171609524Y-33687676D02*
X171514286Y-33782914D01*
X171514286Y-33782914D02*
X171419048Y-33830533D01*
X172323810Y-33544819D02*
X172942857Y-33544819D01*
X172942857Y-33544819D02*
X172609524Y-33925771D01*
X172609524Y-33925771D02*
X172752381Y-33925771D01*
X172752381Y-33925771D02*
X172847619Y-33973390D01*
X172847619Y-33973390D02*
X172895238Y-34021009D01*
X172895238Y-34021009D02*
X172942857Y-34116247D01*
X172942857Y-34116247D02*
X172942857Y-34354342D01*
X172942857Y-34354342D02*
X172895238Y-34449580D01*
X172895238Y-34449580D02*
X172847619Y-34497200D01*
X172847619Y-34497200D02*
X172752381Y-34544819D01*
X172752381Y-34544819D02*
X172466667Y-34544819D01*
X172466667Y-34544819D02*
X172371429Y-34497200D01*
X172371429Y-34497200D02*
X172323810Y-34449580D01*
X143319580Y-56646666D02*
X143367200Y-56694285D01*
X143367200Y-56694285D02*
X143414819Y-56837142D01*
X143414819Y-56837142D02*
X143414819Y-56932380D01*
X143414819Y-56932380D02*
X143367200Y-57075237D01*
X143367200Y-57075237D02*
X143271961Y-57170475D01*
X143271961Y-57170475D02*
X143176723Y-57218094D01*
X143176723Y-57218094D02*
X142986247Y-57265713D01*
X142986247Y-57265713D02*
X142843390Y-57265713D01*
X142843390Y-57265713D02*
X142652914Y-57218094D01*
X142652914Y-57218094D02*
X142557676Y-57170475D01*
X142557676Y-57170475D02*
X142462438Y-57075237D01*
X142462438Y-57075237D02*
X142414819Y-56932380D01*
X142414819Y-56932380D02*
X142414819Y-56837142D01*
X142414819Y-56837142D02*
X142462438Y-56694285D01*
X142462438Y-56694285D02*
X142510057Y-56646666D01*
X142414819Y-55789523D02*
X142414819Y-55979999D01*
X142414819Y-55979999D02*
X142462438Y-56075237D01*
X142462438Y-56075237D02*
X142510057Y-56122856D01*
X142510057Y-56122856D02*
X142652914Y-56218094D01*
X142652914Y-56218094D02*
X142843390Y-56265713D01*
X142843390Y-56265713D02*
X143224342Y-56265713D01*
X143224342Y-56265713D02*
X143319580Y-56218094D01*
X143319580Y-56218094D02*
X143367200Y-56170475D01*
X143367200Y-56170475D02*
X143414819Y-56075237D01*
X143414819Y-56075237D02*
X143414819Y-55884761D01*
X143414819Y-55884761D02*
X143367200Y-55789523D01*
X143367200Y-55789523D02*
X143319580Y-55741904D01*
X143319580Y-55741904D02*
X143224342Y-55694285D01*
X143224342Y-55694285D02*
X142986247Y-55694285D01*
X142986247Y-55694285D02*
X142891009Y-55741904D01*
X142891009Y-55741904D02*
X142843390Y-55789523D01*
X142843390Y-55789523D02*
X142795771Y-55884761D01*
X142795771Y-55884761D02*
X142795771Y-56075237D01*
X142795771Y-56075237D02*
X142843390Y-56170475D01*
X142843390Y-56170475D02*
X142891009Y-56218094D01*
X142891009Y-56218094D02*
X142986247Y-56265713D01*
X167357142Y-106859580D02*
X167309523Y-106907200D01*
X167309523Y-106907200D02*
X167166666Y-106954819D01*
X167166666Y-106954819D02*
X167071428Y-106954819D01*
X167071428Y-106954819D02*
X166928571Y-106907200D01*
X166928571Y-106907200D02*
X166833333Y-106811961D01*
X166833333Y-106811961D02*
X166785714Y-106716723D01*
X166785714Y-106716723D02*
X166738095Y-106526247D01*
X166738095Y-106526247D02*
X166738095Y-106383390D01*
X166738095Y-106383390D02*
X166785714Y-106192914D01*
X166785714Y-106192914D02*
X166833333Y-106097676D01*
X166833333Y-106097676D02*
X166928571Y-106002438D01*
X166928571Y-106002438D02*
X167071428Y-105954819D01*
X167071428Y-105954819D02*
X167166666Y-105954819D01*
X167166666Y-105954819D02*
X167309523Y-106002438D01*
X167309523Y-106002438D02*
X167357142Y-106050057D01*
X168309523Y-106954819D02*
X167738095Y-106954819D01*
X168023809Y-106954819D02*
X168023809Y-105954819D01*
X168023809Y-105954819D02*
X167928571Y-106097676D01*
X167928571Y-106097676D02*
X167833333Y-106192914D01*
X167833333Y-106192914D02*
X167738095Y-106240533D01*
X169261904Y-106954819D02*
X168690476Y-106954819D01*
X168976190Y-106954819D02*
X168976190Y-105954819D01*
X168976190Y-105954819D02*
X168880952Y-106097676D01*
X168880952Y-106097676D02*
X168785714Y-106192914D01*
X168785714Y-106192914D02*
X168690476Y-106240533D01*
X172166666Y-100954819D02*
X172166666Y-101669104D01*
X172166666Y-101669104D02*
X172119047Y-101811961D01*
X172119047Y-101811961D02*
X172023809Y-101907200D01*
X172023809Y-101907200D02*
X171880952Y-101954819D01*
X171880952Y-101954819D02*
X171785714Y-101954819D01*
X172785714Y-101383390D02*
X172690476Y-101335771D01*
X172690476Y-101335771D02*
X172642857Y-101288152D01*
X172642857Y-101288152D02*
X172595238Y-101192914D01*
X172595238Y-101192914D02*
X172595238Y-101145295D01*
X172595238Y-101145295D02*
X172642857Y-101050057D01*
X172642857Y-101050057D02*
X172690476Y-101002438D01*
X172690476Y-101002438D02*
X172785714Y-100954819D01*
X172785714Y-100954819D02*
X172976190Y-100954819D01*
X172976190Y-100954819D02*
X173071428Y-101002438D01*
X173071428Y-101002438D02*
X173119047Y-101050057D01*
X173119047Y-101050057D02*
X173166666Y-101145295D01*
X173166666Y-101145295D02*
X173166666Y-101192914D01*
X173166666Y-101192914D02*
X173119047Y-101288152D01*
X173119047Y-101288152D02*
X173071428Y-101335771D01*
X173071428Y-101335771D02*
X172976190Y-101383390D01*
X172976190Y-101383390D02*
X172785714Y-101383390D01*
X172785714Y-101383390D02*
X172690476Y-101431009D01*
X172690476Y-101431009D02*
X172642857Y-101478628D01*
X172642857Y-101478628D02*
X172595238Y-101573866D01*
X172595238Y-101573866D02*
X172595238Y-101764342D01*
X172595238Y-101764342D02*
X172642857Y-101859580D01*
X172642857Y-101859580D02*
X172690476Y-101907200D01*
X172690476Y-101907200D02*
X172785714Y-101954819D01*
X172785714Y-101954819D02*
X172976190Y-101954819D01*
X172976190Y-101954819D02*
X173071428Y-101907200D01*
X173071428Y-101907200D02*
X173119047Y-101859580D01*
X173119047Y-101859580D02*
X173166666Y-101764342D01*
X173166666Y-101764342D02*
X173166666Y-101573866D01*
X173166666Y-101573866D02*
X173119047Y-101478628D01*
X173119047Y-101478628D02*
X173071428Y-101431009D01*
X173071428Y-101431009D02*
X172976190Y-101383390D01*
X139084819Y-55309523D02*
X139799104Y-55309523D01*
X139799104Y-55309523D02*
X139941961Y-55357142D01*
X139941961Y-55357142D02*
X140037200Y-55452380D01*
X140037200Y-55452380D02*
X140084819Y-55595237D01*
X140084819Y-55595237D02*
X140084819Y-55690475D01*
X139180057Y-54880951D02*
X139132438Y-54833332D01*
X139132438Y-54833332D02*
X139084819Y-54738094D01*
X139084819Y-54738094D02*
X139084819Y-54499999D01*
X139084819Y-54499999D02*
X139132438Y-54404761D01*
X139132438Y-54404761D02*
X139180057Y-54357142D01*
X139180057Y-54357142D02*
X139275295Y-54309523D01*
X139275295Y-54309523D02*
X139370533Y-54309523D01*
X139370533Y-54309523D02*
X139513390Y-54357142D01*
X139513390Y-54357142D02*
X140084819Y-54928570D01*
X140084819Y-54928570D02*
X140084819Y-54309523D01*
X140084819Y-53357142D02*
X140084819Y-53928570D01*
X140084819Y-53642856D02*
X139084819Y-53642856D01*
X139084819Y-53642856D02*
X139227676Y-53738094D01*
X139227676Y-53738094D02*
X139322914Y-53833332D01*
X139322914Y-53833332D02*
X139370533Y-53928570D01*
X153954819Y-48899404D02*
X154764342Y-48899404D01*
X154764342Y-48899404D02*
X154859580Y-48851785D01*
X154859580Y-48851785D02*
X154907200Y-48804166D01*
X154907200Y-48804166D02*
X154954819Y-48708928D01*
X154954819Y-48708928D02*
X154954819Y-48518452D01*
X154954819Y-48518452D02*
X154907200Y-48423214D01*
X154907200Y-48423214D02*
X154859580Y-48375595D01*
X154859580Y-48375595D02*
X154764342Y-48327976D01*
X154764342Y-48327976D02*
X153954819Y-48327976D01*
X154954819Y-47327976D02*
X154954819Y-47899404D01*
X154954819Y-47613690D02*
X153954819Y-47613690D01*
X153954819Y-47613690D02*
X154097676Y-47708928D01*
X154097676Y-47708928D02*
X154192914Y-47804166D01*
X154192914Y-47804166D02*
X154240533Y-47899404D01*
X125566666Y-47954819D02*
X125566666Y-48669104D01*
X125566666Y-48669104D02*
X125519047Y-48811961D01*
X125519047Y-48811961D02*
X125423809Y-48907200D01*
X125423809Y-48907200D02*
X125280952Y-48954819D01*
X125280952Y-48954819D02*
X125185714Y-48954819D01*
X126566666Y-48954819D02*
X125995238Y-48954819D01*
X126280952Y-48954819D02*
X126280952Y-47954819D01*
X126280952Y-47954819D02*
X126185714Y-48097676D01*
X126185714Y-48097676D02*
X126090476Y-48192914D01*
X126090476Y-48192914D02*
X125995238Y-48240533D01*
X122924819Y-93833333D02*
X123639104Y-93833333D01*
X123639104Y-93833333D02*
X123781961Y-93880952D01*
X123781961Y-93880952D02*
X123877200Y-93976190D01*
X123877200Y-93976190D02*
X123924819Y-94119047D01*
X123924819Y-94119047D02*
X123924819Y-94214285D01*
X122924819Y-92880952D02*
X122924819Y-93357142D01*
X122924819Y-93357142D02*
X123401009Y-93404761D01*
X123401009Y-93404761D02*
X123353390Y-93357142D01*
X123353390Y-93357142D02*
X123305771Y-93261904D01*
X123305771Y-93261904D02*
X123305771Y-93023809D01*
X123305771Y-93023809D02*
X123353390Y-92928571D01*
X123353390Y-92928571D02*
X123401009Y-92880952D01*
X123401009Y-92880952D02*
X123496247Y-92833333D01*
X123496247Y-92833333D02*
X123734342Y-92833333D01*
X123734342Y-92833333D02*
X123829580Y-92880952D01*
X123829580Y-92880952D02*
X123877200Y-92928571D01*
X123877200Y-92928571D02*
X123924819Y-93023809D01*
X123924819Y-93023809D02*
X123924819Y-93261904D01*
X123924819Y-93261904D02*
X123877200Y-93357142D01*
X123877200Y-93357142D02*
X123829580Y-93404761D01*
X122924819Y-117333333D02*
X123639104Y-117333333D01*
X123639104Y-117333333D02*
X123781961Y-117380952D01*
X123781961Y-117380952D02*
X123877200Y-117476190D01*
X123877200Y-117476190D02*
X123924819Y-117619047D01*
X123924819Y-117619047D02*
X123924819Y-117714285D01*
X123258152Y-116428571D02*
X123924819Y-116428571D01*
X122877200Y-116666666D02*
X123591485Y-116904761D01*
X123591485Y-116904761D02*
X123591485Y-116285714D01*
X159238095Y-39454819D02*
X159238095Y-40264342D01*
X159238095Y-40264342D02*
X159285714Y-40359580D01*
X159285714Y-40359580D02*
X159333333Y-40407200D01*
X159333333Y-40407200D02*
X159428571Y-40454819D01*
X159428571Y-40454819D02*
X159619047Y-40454819D01*
X159619047Y-40454819D02*
X159714285Y-40407200D01*
X159714285Y-40407200D02*
X159761904Y-40359580D01*
X159761904Y-40359580D02*
X159809523Y-40264342D01*
X159809523Y-40264342D02*
X159809523Y-39454819D01*
X160238095Y-39550057D02*
X160285714Y-39502438D01*
X160285714Y-39502438D02*
X160380952Y-39454819D01*
X160380952Y-39454819D02*
X160619047Y-39454819D01*
X160619047Y-39454819D02*
X160714285Y-39502438D01*
X160714285Y-39502438D02*
X160761904Y-39550057D01*
X160761904Y-39550057D02*
X160809523Y-39645295D01*
X160809523Y-39645295D02*
X160809523Y-39740533D01*
X160809523Y-39740533D02*
X160761904Y-39883390D01*
X160761904Y-39883390D02*
X160190476Y-40454819D01*
X160190476Y-40454819D02*
X160809523Y-40454819D01*
X155833333Y-36954819D02*
X155357143Y-36954819D01*
X155357143Y-36954819D02*
X155357143Y-35954819D01*
X156690476Y-36954819D02*
X156119048Y-36954819D01*
X156404762Y-36954819D02*
X156404762Y-35954819D01*
X156404762Y-35954819D02*
X156309524Y-36097676D01*
X156309524Y-36097676D02*
X156214286Y-36192914D01*
X156214286Y-36192914D02*
X156119048Y-36240533D01*
X176966666Y-111224819D02*
X176966666Y-111939104D01*
X176966666Y-111939104D02*
X176919047Y-112081961D01*
X176919047Y-112081961D02*
X176823809Y-112177200D01*
X176823809Y-112177200D02*
X176680952Y-112224819D01*
X176680952Y-112224819D02*
X176585714Y-112224819D01*
X177490476Y-112224819D02*
X177680952Y-112224819D01*
X177680952Y-112224819D02*
X177776190Y-112177200D01*
X177776190Y-112177200D02*
X177823809Y-112129580D01*
X177823809Y-112129580D02*
X177919047Y-111986723D01*
X177919047Y-111986723D02*
X177966666Y-111796247D01*
X177966666Y-111796247D02*
X177966666Y-111415295D01*
X177966666Y-111415295D02*
X177919047Y-111320057D01*
X177919047Y-111320057D02*
X177871428Y-111272438D01*
X177871428Y-111272438D02*
X177776190Y-111224819D01*
X177776190Y-111224819D02*
X177585714Y-111224819D01*
X177585714Y-111224819D02*
X177490476Y-111272438D01*
X177490476Y-111272438D02*
X177442857Y-111320057D01*
X177442857Y-111320057D02*
X177395238Y-111415295D01*
X177395238Y-111415295D02*
X177395238Y-111653390D01*
X177395238Y-111653390D02*
X177442857Y-111748628D01*
X177442857Y-111748628D02*
X177490476Y-111796247D01*
X177490476Y-111796247D02*
X177585714Y-111843866D01*
X177585714Y-111843866D02*
X177776190Y-111843866D01*
X177776190Y-111843866D02*
X177871428Y-111796247D01*
X177871428Y-111796247D02*
X177919047Y-111748628D01*
X177919047Y-111748628D02*
X177966666Y-111653390D01*
X162199580Y-42146666D02*
X162247200Y-42194285D01*
X162247200Y-42194285D02*
X162294819Y-42337142D01*
X162294819Y-42337142D02*
X162294819Y-42432380D01*
X162294819Y-42432380D02*
X162247200Y-42575237D01*
X162247200Y-42575237D02*
X162151961Y-42670475D01*
X162151961Y-42670475D02*
X162056723Y-42718094D01*
X162056723Y-42718094D02*
X161866247Y-42765713D01*
X161866247Y-42765713D02*
X161723390Y-42765713D01*
X161723390Y-42765713D02*
X161532914Y-42718094D01*
X161532914Y-42718094D02*
X161437676Y-42670475D01*
X161437676Y-42670475D02*
X161342438Y-42575237D01*
X161342438Y-42575237D02*
X161294819Y-42432380D01*
X161294819Y-42432380D02*
X161294819Y-42337142D01*
X161294819Y-42337142D02*
X161342438Y-42194285D01*
X161342438Y-42194285D02*
X161390057Y-42146666D01*
X161390057Y-41765713D02*
X161342438Y-41718094D01*
X161342438Y-41718094D02*
X161294819Y-41622856D01*
X161294819Y-41622856D02*
X161294819Y-41384761D01*
X161294819Y-41384761D02*
X161342438Y-41289523D01*
X161342438Y-41289523D02*
X161390057Y-41241904D01*
X161390057Y-41241904D02*
X161485295Y-41194285D01*
X161485295Y-41194285D02*
X161580533Y-41194285D01*
X161580533Y-41194285D02*
X161723390Y-41241904D01*
X161723390Y-41241904D02*
X162294819Y-41813332D01*
X162294819Y-41813332D02*
X162294819Y-41194285D01*
X155199580Y-55186666D02*
X155247200Y-55234285D01*
X155247200Y-55234285D02*
X155294819Y-55377142D01*
X155294819Y-55377142D02*
X155294819Y-55472380D01*
X155294819Y-55472380D02*
X155247200Y-55615237D01*
X155247200Y-55615237D02*
X155151961Y-55710475D01*
X155151961Y-55710475D02*
X155056723Y-55758094D01*
X155056723Y-55758094D02*
X154866247Y-55805713D01*
X154866247Y-55805713D02*
X154723390Y-55805713D01*
X154723390Y-55805713D02*
X154532914Y-55758094D01*
X154532914Y-55758094D02*
X154437676Y-55710475D01*
X154437676Y-55710475D02*
X154342438Y-55615237D01*
X154342438Y-55615237D02*
X154294819Y-55472380D01*
X154294819Y-55472380D02*
X154294819Y-55377142D01*
X154294819Y-55377142D02*
X154342438Y-55234285D01*
X154342438Y-55234285D02*
X154390057Y-55186666D01*
X154294819Y-54853332D02*
X154294819Y-54186666D01*
X154294819Y-54186666D02*
X155294819Y-54615237D01*
X182190476Y-91454819D02*
X182190476Y-92169104D01*
X182190476Y-92169104D02*
X182142857Y-92311961D01*
X182142857Y-92311961D02*
X182047619Y-92407200D01*
X182047619Y-92407200D02*
X181904762Y-92454819D01*
X181904762Y-92454819D02*
X181809524Y-92454819D01*
X182619048Y-91550057D02*
X182666667Y-91502438D01*
X182666667Y-91502438D02*
X182761905Y-91454819D01*
X182761905Y-91454819D02*
X183000000Y-91454819D01*
X183000000Y-91454819D02*
X183095238Y-91502438D01*
X183095238Y-91502438D02*
X183142857Y-91550057D01*
X183142857Y-91550057D02*
X183190476Y-91645295D01*
X183190476Y-91645295D02*
X183190476Y-91740533D01*
X183190476Y-91740533D02*
X183142857Y-91883390D01*
X183142857Y-91883390D02*
X182571429Y-92454819D01*
X182571429Y-92454819D02*
X183190476Y-92454819D01*
X183809524Y-91454819D02*
X183904762Y-91454819D01*
X183904762Y-91454819D02*
X184000000Y-91502438D01*
X184000000Y-91502438D02*
X184047619Y-91550057D01*
X184047619Y-91550057D02*
X184095238Y-91645295D01*
X184095238Y-91645295D02*
X184142857Y-91835771D01*
X184142857Y-91835771D02*
X184142857Y-92073866D01*
X184142857Y-92073866D02*
X184095238Y-92264342D01*
X184095238Y-92264342D02*
X184047619Y-92359580D01*
X184047619Y-92359580D02*
X184000000Y-92407200D01*
X184000000Y-92407200D02*
X183904762Y-92454819D01*
X183904762Y-92454819D02*
X183809524Y-92454819D01*
X183809524Y-92454819D02*
X183714286Y-92407200D01*
X183714286Y-92407200D02*
X183666667Y-92359580D01*
X183666667Y-92359580D02*
X183619048Y-92264342D01*
X183619048Y-92264342D02*
X183571429Y-92073866D01*
X183571429Y-92073866D02*
X183571429Y-91835771D01*
X183571429Y-91835771D02*
X183619048Y-91645295D01*
X183619048Y-91645295D02*
X183666667Y-91550057D01*
X183666667Y-91550057D02*
X183714286Y-91502438D01*
X183714286Y-91502438D02*
X183809524Y-91454819D01*
X162383333Y-44679580D02*
X162335714Y-44727200D01*
X162335714Y-44727200D02*
X162192857Y-44774819D01*
X162192857Y-44774819D02*
X162097619Y-44774819D01*
X162097619Y-44774819D02*
X161954762Y-44727200D01*
X161954762Y-44727200D02*
X161859524Y-44631961D01*
X161859524Y-44631961D02*
X161811905Y-44536723D01*
X161811905Y-44536723D02*
X161764286Y-44346247D01*
X161764286Y-44346247D02*
X161764286Y-44203390D01*
X161764286Y-44203390D02*
X161811905Y-44012914D01*
X161811905Y-44012914D02*
X161859524Y-43917676D01*
X161859524Y-43917676D02*
X161954762Y-43822438D01*
X161954762Y-43822438D02*
X162097619Y-43774819D01*
X162097619Y-43774819D02*
X162192857Y-43774819D01*
X162192857Y-43774819D02*
X162335714Y-43822438D01*
X162335714Y-43822438D02*
X162383333Y-43870057D01*
X162859524Y-44774819D02*
X163050000Y-44774819D01*
X163050000Y-44774819D02*
X163145238Y-44727200D01*
X163145238Y-44727200D02*
X163192857Y-44679580D01*
X163192857Y-44679580D02*
X163288095Y-44536723D01*
X163288095Y-44536723D02*
X163335714Y-44346247D01*
X163335714Y-44346247D02*
X163335714Y-43965295D01*
X163335714Y-43965295D02*
X163288095Y-43870057D01*
X163288095Y-43870057D02*
X163240476Y-43822438D01*
X163240476Y-43822438D02*
X163145238Y-43774819D01*
X163145238Y-43774819D02*
X162954762Y-43774819D01*
X162954762Y-43774819D02*
X162859524Y-43822438D01*
X162859524Y-43822438D02*
X162811905Y-43870057D01*
X162811905Y-43870057D02*
X162764286Y-43965295D01*
X162764286Y-43965295D02*
X162764286Y-44203390D01*
X162764286Y-44203390D02*
X162811905Y-44298628D01*
X162811905Y-44298628D02*
X162859524Y-44346247D01*
X162859524Y-44346247D02*
X162954762Y-44393866D01*
X162954762Y-44393866D02*
X163145238Y-44393866D01*
X163145238Y-44393866D02*
X163240476Y-44346247D01*
X163240476Y-44346247D02*
X163288095Y-44298628D01*
X163288095Y-44298628D02*
X163335714Y-44203390D01*
X176966666Y-84064819D02*
X176966666Y-84779104D01*
X176966666Y-84779104D02*
X176919047Y-84921961D01*
X176919047Y-84921961D02*
X176823809Y-85017200D01*
X176823809Y-85017200D02*
X176680952Y-85064819D01*
X176680952Y-85064819D02*
X176585714Y-85064819D01*
X177871428Y-84064819D02*
X177680952Y-84064819D01*
X177680952Y-84064819D02*
X177585714Y-84112438D01*
X177585714Y-84112438D02*
X177538095Y-84160057D01*
X177538095Y-84160057D02*
X177442857Y-84302914D01*
X177442857Y-84302914D02*
X177395238Y-84493390D01*
X177395238Y-84493390D02*
X177395238Y-84874342D01*
X177395238Y-84874342D02*
X177442857Y-84969580D01*
X177442857Y-84969580D02*
X177490476Y-85017200D01*
X177490476Y-85017200D02*
X177585714Y-85064819D01*
X177585714Y-85064819D02*
X177776190Y-85064819D01*
X177776190Y-85064819D02*
X177871428Y-85017200D01*
X177871428Y-85017200D02*
X177919047Y-84969580D01*
X177919047Y-84969580D02*
X177966666Y-84874342D01*
X177966666Y-84874342D02*
X177966666Y-84636247D01*
X177966666Y-84636247D02*
X177919047Y-84541009D01*
X177919047Y-84541009D02*
X177871428Y-84493390D01*
X177871428Y-84493390D02*
X177776190Y-84445771D01*
X177776190Y-84445771D02*
X177585714Y-84445771D01*
X177585714Y-84445771D02*
X177490476Y-84493390D01*
X177490476Y-84493390D02*
X177442857Y-84541009D01*
X177442857Y-84541009D02*
X177395238Y-84636247D01*
X145954819Y-48738094D02*
X144954819Y-48738094D01*
X144954819Y-48738094D02*
X144954819Y-48499999D01*
X144954819Y-48499999D02*
X145002438Y-48357142D01*
X145002438Y-48357142D02*
X145097676Y-48261904D01*
X145097676Y-48261904D02*
X145192914Y-48214285D01*
X145192914Y-48214285D02*
X145383390Y-48166666D01*
X145383390Y-48166666D02*
X145526247Y-48166666D01*
X145526247Y-48166666D02*
X145716723Y-48214285D01*
X145716723Y-48214285D02*
X145811961Y-48261904D01*
X145811961Y-48261904D02*
X145907200Y-48357142D01*
X145907200Y-48357142D02*
X145954819Y-48499999D01*
X145954819Y-48499999D02*
X145954819Y-48738094D01*
X144954819Y-47833332D02*
X144954819Y-47214285D01*
X144954819Y-47214285D02*
X145335771Y-47547618D01*
X145335771Y-47547618D02*
X145335771Y-47404761D01*
X145335771Y-47404761D02*
X145383390Y-47309523D01*
X145383390Y-47309523D02*
X145431009Y-47261904D01*
X145431009Y-47261904D02*
X145526247Y-47214285D01*
X145526247Y-47214285D02*
X145764342Y-47214285D01*
X145764342Y-47214285D02*
X145859580Y-47261904D01*
X145859580Y-47261904D02*
X145907200Y-47309523D01*
X145907200Y-47309523D02*
X145954819Y-47404761D01*
X145954819Y-47404761D02*
X145954819Y-47690475D01*
X145954819Y-47690475D02*
X145907200Y-47785713D01*
X145907200Y-47785713D02*
X145859580Y-47833332D01*
X150833333Y-37109580D02*
X150785714Y-37157200D01*
X150785714Y-37157200D02*
X150642857Y-37204819D01*
X150642857Y-37204819D02*
X150547619Y-37204819D01*
X150547619Y-37204819D02*
X150404762Y-37157200D01*
X150404762Y-37157200D02*
X150309524Y-37061961D01*
X150309524Y-37061961D02*
X150261905Y-36966723D01*
X150261905Y-36966723D02*
X150214286Y-36776247D01*
X150214286Y-36776247D02*
X150214286Y-36633390D01*
X150214286Y-36633390D02*
X150261905Y-36442914D01*
X150261905Y-36442914D02*
X150309524Y-36347676D01*
X150309524Y-36347676D02*
X150404762Y-36252438D01*
X150404762Y-36252438D02*
X150547619Y-36204819D01*
X150547619Y-36204819D02*
X150642857Y-36204819D01*
X150642857Y-36204819D02*
X150785714Y-36252438D01*
X150785714Y-36252438D02*
X150833333Y-36300057D01*
X151738095Y-36204819D02*
X151261905Y-36204819D01*
X151261905Y-36204819D02*
X151214286Y-36681009D01*
X151214286Y-36681009D02*
X151261905Y-36633390D01*
X151261905Y-36633390D02*
X151357143Y-36585771D01*
X151357143Y-36585771D02*
X151595238Y-36585771D01*
X151595238Y-36585771D02*
X151690476Y-36633390D01*
X151690476Y-36633390D02*
X151738095Y-36681009D01*
X151738095Y-36681009D02*
X151785714Y-36776247D01*
X151785714Y-36776247D02*
X151785714Y-37014342D01*
X151785714Y-37014342D02*
X151738095Y-37109580D01*
X151738095Y-37109580D02*
X151690476Y-37157200D01*
X151690476Y-37157200D02*
X151595238Y-37204819D01*
X151595238Y-37204819D02*
X151357143Y-37204819D01*
X151357143Y-37204819D02*
X151261905Y-37157200D01*
X151261905Y-37157200D02*
X151214286Y-37109580D01*
X152083333Y-55679580D02*
X152035714Y-55727200D01*
X152035714Y-55727200D02*
X151892857Y-55774819D01*
X151892857Y-55774819D02*
X151797619Y-55774819D01*
X151797619Y-55774819D02*
X151654762Y-55727200D01*
X151654762Y-55727200D02*
X151559524Y-55631961D01*
X151559524Y-55631961D02*
X151511905Y-55536723D01*
X151511905Y-55536723D02*
X151464286Y-55346247D01*
X151464286Y-55346247D02*
X151464286Y-55203390D01*
X151464286Y-55203390D02*
X151511905Y-55012914D01*
X151511905Y-55012914D02*
X151559524Y-54917676D01*
X151559524Y-54917676D02*
X151654762Y-54822438D01*
X151654762Y-54822438D02*
X151797619Y-54774819D01*
X151797619Y-54774819D02*
X151892857Y-54774819D01*
X151892857Y-54774819D02*
X152035714Y-54822438D01*
X152035714Y-54822438D02*
X152083333Y-54870057D01*
X152940476Y-55108152D02*
X152940476Y-55774819D01*
X152702381Y-54727200D02*
X152464286Y-55441485D01*
X152464286Y-55441485D02*
X153083333Y-55441485D01*
X145954819Y-38738094D02*
X144954819Y-38738094D01*
X144954819Y-38738094D02*
X144954819Y-38499999D01*
X144954819Y-38499999D02*
X145002438Y-38357142D01*
X145002438Y-38357142D02*
X145097676Y-38261904D01*
X145097676Y-38261904D02*
X145192914Y-38214285D01*
X145192914Y-38214285D02*
X145383390Y-38166666D01*
X145383390Y-38166666D02*
X145526247Y-38166666D01*
X145526247Y-38166666D02*
X145716723Y-38214285D01*
X145716723Y-38214285D02*
X145811961Y-38261904D01*
X145811961Y-38261904D02*
X145907200Y-38357142D01*
X145907200Y-38357142D02*
X145954819Y-38499999D01*
X145954819Y-38499999D02*
X145954819Y-38738094D01*
X145954819Y-37214285D02*
X145954819Y-37785713D01*
X145954819Y-37499999D02*
X144954819Y-37499999D01*
X144954819Y-37499999D02*
X145097676Y-37595237D01*
X145097676Y-37595237D02*
X145192914Y-37690475D01*
X145192914Y-37690475D02*
X145240533Y-37785713D01*
X166340476Y-46724819D02*
X166340476Y-47439104D01*
X166340476Y-47439104D02*
X166292857Y-47581961D01*
X166292857Y-47581961D02*
X166197619Y-47677200D01*
X166197619Y-47677200D02*
X166054762Y-47724819D01*
X166054762Y-47724819D02*
X165959524Y-47724819D01*
X167340476Y-47724819D02*
X166769048Y-47724819D01*
X167054762Y-47724819D02*
X167054762Y-46724819D01*
X167054762Y-46724819D02*
X166959524Y-46867676D01*
X166959524Y-46867676D02*
X166864286Y-46962914D01*
X166864286Y-46962914D02*
X166769048Y-47010533D01*
X168197619Y-47058152D02*
X168197619Y-47724819D01*
X167959524Y-46677200D02*
X167721429Y-47391485D01*
X167721429Y-47391485D02*
X168340476Y-47391485D01*
X146583333Y-53109580D02*
X146535714Y-53157200D01*
X146535714Y-53157200D02*
X146392857Y-53204819D01*
X146392857Y-53204819D02*
X146297619Y-53204819D01*
X146297619Y-53204819D02*
X146154762Y-53157200D01*
X146154762Y-53157200D02*
X146059524Y-53061961D01*
X146059524Y-53061961D02*
X146011905Y-52966723D01*
X146011905Y-52966723D02*
X145964286Y-52776247D01*
X145964286Y-52776247D02*
X145964286Y-52633390D01*
X145964286Y-52633390D02*
X146011905Y-52442914D01*
X146011905Y-52442914D02*
X146059524Y-52347676D01*
X146059524Y-52347676D02*
X146154762Y-52252438D01*
X146154762Y-52252438D02*
X146297619Y-52204819D01*
X146297619Y-52204819D02*
X146392857Y-52204819D01*
X146392857Y-52204819D02*
X146535714Y-52252438D01*
X146535714Y-52252438D02*
X146583333Y-52300057D01*
X147535714Y-53204819D02*
X146964286Y-53204819D01*
X147250000Y-53204819D02*
X147250000Y-52204819D01*
X147250000Y-52204819D02*
X147154762Y-52347676D01*
X147154762Y-52347676D02*
X147059524Y-52442914D01*
X147059524Y-52442914D02*
X146964286Y-52490533D01*
X122944819Y-86333333D02*
X123659104Y-86333333D01*
X123659104Y-86333333D02*
X123801961Y-86380952D01*
X123801961Y-86380952D02*
X123897200Y-86476190D01*
X123897200Y-86476190D02*
X123944819Y-86619047D01*
X123944819Y-86619047D02*
X123944819Y-86714285D01*
X122944819Y-85952380D02*
X122944819Y-85333333D01*
X122944819Y-85333333D02*
X123325771Y-85666666D01*
X123325771Y-85666666D02*
X123325771Y-85523809D01*
X123325771Y-85523809D02*
X123373390Y-85428571D01*
X123373390Y-85428571D02*
X123421009Y-85380952D01*
X123421009Y-85380952D02*
X123516247Y-85333333D01*
X123516247Y-85333333D02*
X123754342Y-85333333D01*
X123754342Y-85333333D02*
X123849580Y-85380952D01*
X123849580Y-85380952D02*
X123897200Y-85428571D01*
X123897200Y-85428571D02*
X123944819Y-85523809D01*
X123944819Y-85523809D02*
X123944819Y-85809523D01*
X123944819Y-85809523D02*
X123897200Y-85904761D01*
X123897200Y-85904761D02*
X123849580Y-85952380D01*
X182190476Y-46004819D02*
X182190476Y-46719104D01*
X182190476Y-46719104D02*
X182142857Y-46861961D01*
X182142857Y-46861961D02*
X182047619Y-46957200D01*
X182047619Y-46957200D02*
X181904762Y-47004819D01*
X181904762Y-47004819D02*
X181809524Y-47004819D01*
X183190476Y-47004819D02*
X182619048Y-47004819D01*
X182904762Y-47004819D02*
X182904762Y-46004819D01*
X182904762Y-46004819D02*
X182809524Y-46147676D01*
X182809524Y-46147676D02*
X182714286Y-46242914D01*
X182714286Y-46242914D02*
X182619048Y-46290533D01*
X183523810Y-46004819D02*
X184190476Y-46004819D01*
X184190476Y-46004819D02*
X183761905Y-47004819D01*
X167357142Y-109859580D02*
X167309523Y-109907200D01*
X167309523Y-109907200D02*
X167166666Y-109954819D01*
X167166666Y-109954819D02*
X167071428Y-109954819D01*
X167071428Y-109954819D02*
X166928571Y-109907200D01*
X166928571Y-109907200D02*
X166833333Y-109811961D01*
X166833333Y-109811961D02*
X166785714Y-109716723D01*
X166785714Y-109716723D02*
X166738095Y-109526247D01*
X166738095Y-109526247D02*
X166738095Y-109383390D01*
X166738095Y-109383390D02*
X166785714Y-109192914D01*
X166785714Y-109192914D02*
X166833333Y-109097676D01*
X166833333Y-109097676D02*
X166928571Y-109002438D01*
X166928571Y-109002438D02*
X167071428Y-108954819D01*
X167071428Y-108954819D02*
X167166666Y-108954819D01*
X167166666Y-108954819D02*
X167309523Y-109002438D01*
X167309523Y-109002438D02*
X167357142Y-109050057D01*
X168309523Y-109954819D02*
X167738095Y-109954819D01*
X168023809Y-109954819D02*
X168023809Y-108954819D01*
X168023809Y-108954819D02*
X167928571Y-109097676D01*
X167928571Y-109097676D02*
X167833333Y-109192914D01*
X167833333Y-109192914D02*
X167738095Y-109240533D01*
X168642857Y-108954819D02*
X169261904Y-108954819D01*
X169261904Y-108954819D02*
X168928571Y-109335771D01*
X168928571Y-109335771D02*
X169071428Y-109335771D01*
X169071428Y-109335771D02*
X169166666Y-109383390D01*
X169166666Y-109383390D02*
X169214285Y-109431009D01*
X169214285Y-109431009D02*
X169261904Y-109526247D01*
X169261904Y-109526247D02*
X169261904Y-109764342D01*
X169261904Y-109764342D02*
X169214285Y-109859580D01*
X169214285Y-109859580D02*
X169166666Y-109907200D01*
X169166666Y-109907200D02*
X169071428Y-109954819D01*
X169071428Y-109954819D02*
X168785714Y-109954819D01*
X168785714Y-109954819D02*
X168690476Y-109907200D01*
X168690476Y-109907200D02*
X168642857Y-109859580D01*
X123884819Y-54833333D02*
X124599104Y-54833333D01*
X124599104Y-54833333D02*
X124741961Y-54880952D01*
X124741961Y-54880952D02*
X124837200Y-54976190D01*
X124837200Y-54976190D02*
X124884819Y-55119047D01*
X124884819Y-55119047D02*
X124884819Y-55214285D01*
X123980057Y-54404761D02*
X123932438Y-54357142D01*
X123932438Y-54357142D02*
X123884819Y-54261904D01*
X123884819Y-54261904D02*
X123884819Y-54023809D01*
X123884819Y-54023809D02*
X123932438Y-53928571D01*
X123932438Y-53928571D02*
X123980057Y-53880952D01*
X123980057Y-53880952D02*
X124075295Y-53833333D01*
X124075295Y-53833333D02*
X124170533Y-53833333D01*
X124170533Y-53833333D02*
X124313390Y-53880952D01*
X124313390Y-53880952D02*
X124884819Y-54452380D01*
X124884819Y-54452380D02*
X124884819Y-53833333D01*
X161907142Y-48179580D02*
X161859523Y-48227200D01*
X161859523Y-48227200D02*
X161716666Y-48274819D01*
X161716666Y-48274819D02*
X161621428Y-48274819D01*
X161621428Y-48274819D02*
X161478571Y-48227200D01*
X161478571Y-48227200D02*
X161383333Y-48131961D01*
X161383333Y-48131961D02*
X161335714Y-48036723D01*
X161335714Y-48036723D02*
X161288095Y-47846247D01*
X161288095Y-47846247D02*
X161288095Y-47703390D01*
X161288095Y-47703390D02*
X161335714Y-47512914D01*
X161335714Y-47512914D02*
X161383333Y-47417676D01*
X161383333Y-47417676D02*
X161478571Y-47322438D01*
X161478571Y-47322438D02*
X161621428Y-47274819D01*
X161621428Y-47274819D02*
X161716666Y-47274819D01*
X161716666Y-47274819D02*
X161859523Y-47322438D01*
X161859523Y-47322438D02*
X161907142Y-47370057D01*
X162859523Y-48274819D02*
X162288095Y-48274819D01*
X162573809Y-48274819D02*
X162573809Y-47274819D01*
X162573809Y-47274819D02*
X162478571Y-47417676D01*
X162478571Y-47417676D02*
X162383333Y-47512914D01*
X162383333Y-47512914D02*
X162288095Y-47560533D01*
X163478571Y-47274819D02*
X163573809Y-47274819D01*
X163573809Y-47274819D02*
X163669047Y-47322438D01*
X163669047Y-47322438D02*
X163716666Y-47370057D01*
X163716666Y-47370057D02*
X163764285Y-47465295D01*
X163764285Y-47465295D02*
X163811904Y-47655771D01*
X163811904Y-47655771D02*
X163811904Y-47893866D01*
X163811904Y-47893866D02*
X163764285Y-48084342D01*
X163764285Y-48084342D02*
X163716666Y-48179580D01*
X163716666Y-48179580D02*
X163669047Y-48227200D01*
X163669047Y-48227200D02*
X163573809Y-48274819D01*
X163573809Y-48274819D02*
X163478571Y-48274819D01*
X163478571Y-48274819D02*
X163383333Y-48227200D01*
X163383333Y-48227200D02*
X163335714Y-48179580D01*
X163335714Y-48179580D02*
X163288095Y-48084342D01*
X163288095Y-48084342D02*
X163240476Y-47893866D01*
X163240476Y-47893866D02*
X163240476Y-47655771D01*
X163240476Y-47655771D02*
X163288095Y-47465295D01*
X163288095Y-47465295D02*
X163335714Y-47370057D01*
X163335714Y-47370057D02*
X163383333Y-47322438D01*
X163383333Y-47322438D02*
X163478571Y-47274819D01*
D11*
%TO.C,J16*%
X175970000Y-40730000D02*
X177300000Y-40730000D01*
X175970000Y-42060000D02*
X175970000Y-40730000D01*
X175970000Y-43330000D02*
X175970000Y-53550000D01*
X175970000Y-43330000D02*
X178630000Y-43330000D01*
X175970000Y-53550000D02*
X178630000Y-53550000D01*
X178630000Y-43330000D02*
X178630000Y-53550000D01*
%TO.C,C3*%
X151988748Y-52265000D02*
X152511252Y-52265000D01*
X151988748Y-53735000D02*
X152511252Y-53735000D01*
%TO.C,C8*%
X158172164Y-51640000D02*
X158387836Y-51640000D01*
X158172164Y-52360000D02*
X158387836Y-52360000D01*
%TO.C,L3*%
X158115000Y-53640000D02*
X158115000Y-54990000D01*
X158115000Y-53640000D02*
X163485000Y-53640000D01*
X158115000Y-59360000D02*
X158115000Y-58010000D01*
X158115000Y-59360000D02*
X163485000Y-59360000D01*
X163485000Y-53640000D02*
X163485000Y-54990000D01*
X163485000Y-59360000D02*
X163485000Y-58010000D01*
%TO.C,C12*%
X171912164Y-110140000D02*
X172127836Y-110140000D01*
X171912164Y-110860000D02*
X172127836Y-110860000D01*
%TO.C,J7*%
X124490000Y-63930000D02*
X124490000Y-62600000D01*
X125820000Y-63930000D02*
X124490000Y-63930000D01*
X127090000Y-61270000D02*
X172870000Y-61270000D01*
X127090000Y-63930000D02*
X127090000Y-61270000D01*
X127090000Y-63930000D02*
X172870000Y-63930000D01*
X172870000Y-63930000D02*
X172870000Y-61270000D01*
%TO.C,J11*%
X175970000Y-70730000D02*
X177300000Y-70730000D01*
X175970000Y-72060000D02*
X175970000Y-70730000D01*
X175970000Y-73330000D02*
X175970000Y-83550000D01*
X175970000Y-73330000D02*
X178630000Y-73330000D01*
X175970000Y-83550000D02*
X178630000Y-83550000D01*
X178630000Y-73330000D02*
X178630000Y-83550000D01*
%TO.C,J19*%
X181670000Y-78010000D02*
X183000000Y-78010000D01*
X181670000Y-79340000D02*
X181670000Y-78010000D01*
X181670000Y-80610000D02*
X181670000Y-90830000D01*
X181670000Y-80610000D02*
X184330000Y-80610000D01*
X181670000Y-90830000D02*
X184330000Y-90830000D01*
X184330000Y-80610000D02*
X184330000Y-90830000D01*
%TO.C,J12*%
X165820000Y-35090000D02*
X167150000Y-35090000D01*
X165820000Y-36420000D02*
X165820000Y-35090000D01*
X165820000Y-37690000D02*
X165820000Y-45370000D01*
X165820000Y-37690000D02*
X168480000Y-37690000D01*
X165820000Y-45370000D02*
X168480000Y-45370000D01*
X168480000Y-37690000D02*
X168480000Y-45370000D01*
%TO.C,J18*%
X181670000Y-63010000D02*
X183000000Y-63010000D01*
X181670000Y-64340000D02*
X181670000Y-63010000D01*
X181670000Y-65610000D02*
X181670000Y-75830000D01*
X181670000Y-65610000D02*
X184330000Y-65610000D01*
X181670000Y-75830000D02*
X184330000Y-75830000D01*
X184330000Y-65610000D02*
X184330000Y-75830000D01*
%TO.C,J10*%
X175970000Y-56195000D02*
X177300000Y-56195000D01*
X175970000Y-57525000D02*
X175970000Y-56195000D01*
X175970000Y-58795000D02*
X175970000Y-69015000D01*
X175970000Y-58795000D02*
X178630000Y-58795000D01*
X175970000Y-69015000D02*
X178630000Y-69015000D01*
X178630000Y-58795000D02*
X178630000Y-69015000D01*
%TO.C,J15*%
X170470000Y-48270000D02*
X171800000Y-48270000D01*
X170470000Y-49600000D02*
X170470000Y-48270000D01*
X170470000Y-50870000D02*
X170470000Y-58550000D01*
X170470000Y-50870000D02*
X173130000Y-50870000D01*
X170470000Y-58550000D02*
X173130000Y-58550000D01*
X173130000Y-50870000D02*
X173130000Y-58550000D01*
%TO.C,J13*%
X170470000Y-35090000D02*
X171800000Y-35090000D01*
X170470000Y-36420000D02*
X170470000Y-35090000D01*
X170470000Y-37690000D02*
X170470000Y-45370000D01*
X170470000Y-37690000D02*
X173130000Y-37690000D01*
X170470000Y-45370000D02*
X173130000Y-45370000D01*
X173130000Y-37690000D02*
X173130000Y-45370000D01*
%TO.C,C6*%
X141440000Y-56372164D02*
X141440000Y-56587836D01*
X142160000Y-56372164D02*
X142160000Y-56587836D01*
%TO.C,C11*%
X171912164Y-108860000D02*
X172127836Y-108860000D01*
X171912164Y-108140000D02*
X172127836Y-108140000D01*
%TO.C,J8*%
X175970000Y-100410000D02*
X177300000Y-100410000D01*
X175970000Y-101740000D02*
X175970000Y-100410000D01*
X175970000Y-103010000D02*
X175970000Y-110690000D01*
X175970000Y-103010000D02*
X178630000Y-103010000D01*
X175970000Y-110690000D02*
X178630000Y-110690000D01*
X178630000Y-103010000D02*
X178630000Y-110690000D01*
%TO.C,J21*%
X133430000Y-53170000D02*
X133430000Y-55830000D01*
X136030000Y-53170000D02*
X133430000Y-53170000D01*
X136030000Y-53170000D02*
X136030000Y-55830000D01*
X136030000Y-55830000D02*
X133430000Y-55830000D01*
X137300000Y-53170000D02*
X138630000Y-53170000D01*
X138630000Y-53170000D02*
X138630000Y-54500000D01*
%TO.C,U1*%
X156390000Y-48137500D02*
X156390000Y-47337500D01*
X156390000Y-48137500D02*
X156390000Y-48937500D01*
X159510000Y-48137500D02*
X159510000Y-47337500D01*
X159510000Y-48137500D02*
X159510000Y-48937500D01*
X159790000Y-47077500D02*
X159460000Y-46837500D01*
X159790000Y-46597500D01*
X159790000Y-47077500D01*
G36*
X159790000Y-47077500D02*
G01*
X159460000Y-46837500D01*
X159790000Y-46597500D01*
X159790000Y-47077500D01*
G37*
%TO.C,J1*%
X124290000Y-37440000D02*
X127900000Y-37440000D01*
X124290000Y-46560000D02*
X124290000Y-37440000D01*
X124290000Y-46560000D02*
X127900000Y-46560000D01*
X127600000Y-39000000D02*
X132400000Y-39000000D01*
X127600000Y-45000000D02*
X132400000Y-45000000D01*
X127600000Y-46560000D02*
X127600000Y-37440000D01*
X128140000Y-34740000D02*
X128140000Y-36640000D01*
X129480000Y-34740000D02*
X128140000Y-34740000D01*
X130900000Y-37440000D02*
X133900000Y-37440000D01*
X130900000Y-46560000D02*
X133900000Y-46560000D01*
X136900000Y-37440000D02*
X139210000Y-37440000D01*
X136900000Y-46560000D02*
X139210000Y-46560000D01*
X139210000Y-46560000D02*
X139210000Y-37440000D01*
X132400000Y-39000000D02*
G75*
G02*
X132400000Y-45000000I0J-3000000D01*
G01*
%TO.C,J5*%
X124470000Y-94830000D02*
X124470000Y-93500000D01*
X125800000Y-94830000D02*
X124470000Y-94830000D01*
X127070000Y-92170000D02*
X172850000Y-92170000D01*
X127070000Y-94830000D02*
X127070000Y-92170000D01*
X127070000Y-94830000D02*
X172850000Y-94830000D01*
X172850000Y-94830000D02*
X172850000Y-92170000D01*
%TO.C,J4*%
X124470000Y-118330000D02*
X124470000Y-117000000D01*
X125800000Y-118330000D02*
X124470000Y-118330000D01*
X127070000Y-115670000D02*
X172850000Y-115670000D01*
X127070000Y-118330000D02*
X127070000Y-115670000D01*
X127070000Y-118330000D02*
X172850000Y-118330000D01*
X172850000Y-118330000D02*
X172850000Y-115670000D01*
%TO.C,U2*%
X158937500Y-40940000D02*
X158137500Y-40940000D01*
X158937500Y-40940000D02*
X159737500Y-40940000D01*
X158937500Y-44060000D02*
X158137500Y-44060000D01*
X158937500Y-44060000D02*
X159737500Y-44060000D01*
X157637500Y-40990000D02*
X157397500Y-40660000D01*
X157877500Y-40660000D01*
X157637500Y-40990000D01*
G36*
X157637500Y-40990000D02*
G01*
X157397500Y-40660000D01*
X157877500Y-40660000D01*
X157637500Y-40990000D01*
G37*
%TO.C,L1*%
X157815000Y-33640000D02*
X157815000Y-34990000D01*
X157815000Y-39360000D02*
X157815000Y-38010000D01*
X163185000Y-33640000D02*
X157815000Y-33640000D01*
X163185000Y-33640000D02*
X163185000Y-34990000D01*
X163185000Y-39360000D02*
X157815000Y-39360000D01*
X163185000Y-39360000D02*
X163185000Y-38010000D01*
%TO.C,J9*%
X175970000Y-112770000D02*
X177300000Y-112770000D01*
X175970000Y-114100000D02*
X175970000Y-112770000D01*
X175970000Y-115370000D02*
X175970000Y-120510000D01*
X175970000Y-115370000D02*
X178630000Y-115370000D01*
X175970000Y-120510000D02*
X178630000Y-120510000D01*
X178630000Y-115370000D02*
X178630000Y-120510000D01*
%TO.C,C2*%
X162640000Y-42087836D02*
X162640000Y-41872164D01*
X163360000Y-42087836D02*
X163360000Y-41872164D01*
%TO.C,C7*%
X155640000Y-55127836D02*
X155640000Y-54912164D01*
X156360000Y-55127836D02*
X156360000Y-54912164D01*
%TO.C,J20*%
X181670000Y-93550000D02*
X183000000Y-93550000D01*
X181670000Y-94880000D02*
X181670000Y-93550000D01*
X181670000Y-96150000D02*
X181670000Y-106370000D01*
X181670000Y-96150000D02*
X184330000Y-96150000D01*
X181670000Y-106370000D02*
X184330000Y-106370000D01*
X184330000Y-96150000D02*
X184330000Y-106370000D01*
%TO.C,C9*%
X162288748Y-45265000D02*
X162811252Y-45265000D01*
X162288748Y-46735000D02*
X162811252Y-46735000D01*
%TO.C,J6*%
X175970000Y-85610000D02*
X177300000Y-85610000D01*
X175970000Y-86940000D02*
X175970000Y-85610000D01*
X175970000Y-88210000D02*
X175970000Y-98430000D01*
X175970000Y-88210000D02*
X178630000Y-88210000D01*
X175970000Y-98430000D02*
X178630000Y-98430000D01*
X178630000Y-88210000D02*
X178630000Y-98430000D01*
%TO.C,D3*%
X141350000Y-44490000D02*
X141350000Y-50000000D01*
X144650000Y-44490000D02*
X141350000Y-44490000D01*
X144650000Y-44490000D02*
X144650000Y-50000000D01*
%TO.C,C5*%
X145520354Y-40125000D02*
X146520354Y-40125000D01*
X146020354Y-39625000D02*
X146020354Y-40625000D01*
X151000000Y-37920000D02*
X151000000Y-48080000D01*
X151040000Y-37920000D02*
X151040000Y-48080000D01*
X151080000Y-37920000D02*
X151080000Y-48080000D01*
X151120000Y-37921000D02*
X151120000Y-48079000D01*
X151160000Y-37922000D02*
X151160000Y-48078000D01*
X151200000Y-37923000D02*
X151200000Y-48077000D01*
X151240000Y-37925000D02*
X151240000Y-48075000D01*
X151280000Y-37927000D02*
X151280000Y-48073000D01*
X151320000Y-37930000D02*
X151320000Y-48070000D01*
X151360000Y-37932000D02*
X151360000Y-48068000D01*
X151400000Y-37935000D02*
X151400000Y-48065000D01*
X151440000Y-37938000D02*
X151440000Y-48062000D01*
X151480000Y-37942000D02*
X151480000Y-48058000D01*
X151520000Y-37946000D02*
X151520000Y-48054000D01*
X151560000Y-37950000D02*
X151560000Y-48050000D01*
X151600000Y-37955000D02*
X151600000Y-48045000D01*
X151640000Y-37960000D02*
X151640000Y-48040000D01*
X151680000Y-37965000D02*
X151680000Y-48035000D01*
X151721000Y-37970000D02*
X151721000Y-48030000D01*
X151761000Y-37976000D02*
X151761000Y-48024000D01*
X151801000Y-37982000D02*
X151801000Y-48018000D01*
X151841000Y-37989000D02*
X151841000Y-48011000D01*
X151881000Y-37996000D02*
X151881000Y-48004000D01*
X151921000Y-38003000D02*
X151921000Y-47997000D01*
X151961000Y-38010000D02*
X151961000Y-47990000D01*
X152001000Y-38018000D02*
X152001000Y-47982000D01*
X152041000Y-38026000D02*
X152041000Y-47974000D01*
X152081000Y-38035000D02*
X152081000Y-47965000D01*
X152121000Y-38044000D02*
X152121000Y-47956000D01*
X152161000Y-38053000D02*
X152161000Y-47947000D01*
X152201000Y-38062000D02*
X152201000Y-47938000D01*
X152241000Y-38072000D02*
X152241000Y-47928000D01*
X152281000Y-38082000D02*
X152281000Y-41759000D01*
X152281000Y-44241000D02*
X152281000Y-47918000D01*
X152321000Y-38093000D02*
X152321000Y-41759000D01*
X152321000Y-44241000D02*
X152321000Y-47907000D01*
X152361000Y-38103000D02*
X152361000Y-41759000D01*
X152361000Y-44241000D02*
X152361000Y-47897000D01*
X152401000Y-38115000D02*
X152401000Y-41759000D01*
X152401000Y-44241000D02*
X152401000Y-47885000D01*
X152441000Y-38126000D02*
X152441000Y-41759000D01*
X152441000Y-44241000D02*
X152441000Y-47874000D01*
X152481000Y-38138000D02*
X152481000Y-41759000D01*
X152481000Y-44241000D02*
X152481000Y-47862000D01*
X152521000Y-38150000D02*
X152521000Y-41759000D01*
X152521000Y-44241000D02*
X152521000Y-47850000D01*
X152561000Y-38163000D02*
X152561000Y-41759000D01*
X152561000Y-44241000D02*
X152561000Y-47837000D01*
X152601000Y-38176000D02*
X152601000Y-41759000D01*
X152601000Y-44241000D02*
X152601000Y-47824000D01*
X152641000Y-38189000D02*
X152641000Y-41759000D01*
X152641000Y-44241000D02*
X152641000Y-47811000D01*
X152681000Y-38203000D02*
X152681000Y-41759000D01*
X152681000Y-44241000D02*
X152681000Y-47797000D01*
X152721000Y-38217000D02*
X152721000Y-41759000D01*
X152721000Y-44241000D02*
X152721000Y-47783000D01*
X152761000Y-38232000D02*
X152761000Y-41759000D01*
X152761000Y-44241000D02*
X152761000Y-47768000D01*
X152801000Y-38246000D02*
X152801000Y-41759000D01*
X152801000Y-44241000D02*
X152801000Y-47754000D01*
X152841000Y-38262000D02*
X152841000Y-41759000D01*
X152841000Y-44241000D02*
X152841000Y-47738000D01*
X152881000Y-38277000D02*
X152881000Y-41759000D01*
X152881000Y-44241000D02*
X152881000Y-47723000D01*
X152921000Y-38293000D02*
X152921000Y-41759000D01*
X152921000Y-44241000D02*
X152921000Y-47707000D01*
X152961000Y-38310000D02*
X152961000Y-41759000D01*
X152961000Y-44241000D02*
X152961000Y-47690000D01*
X153001000Y-38326000D02*
X153001000Y-41759000D01*
X153001000Y-44241000D02*
X153001000Y-47674000D01*
X153041000Y-38343000D02*
X153041000Y-41759000D01*
X153041000Y-44241000D02*
X153041000Y-47657000D01*
X153081000Y-38361000D02*
X153081000Y-41759000D01*
X153081000Y-44241000D02*
X153081000Y-47639000D01*
X153121000Y-38379000D02*
X153121000Y-41759000D01*
X153121000Y-44241000D02*
X153121000Y-47621000D01*
X153161000Y-38397000D02*
X153161000Y-41759000D01*
X153161000Y-44241000D02*
X153161000Y-47603000D01*
X153201000Y-38416000D02*
X153201000Y-41759000D01*
X153201000Y-44241000D02*
X153201000Y-47584000D01*
X153241000Y-38436000D02*
X153241000Y-41759000D01*
X153241000Y-44241000D02*
X153241000Y-47564000D01*
X153281000Y-38455000D02*
X153281000Y-41759000D01*
X153281000Y-44241000D02*
X153281000Y-47545000D01*
X153321000Y-38475000D02*
X153321000Y-41759000D01*
X153321000Y-44241000D02*
X153321000Y-47525000D01*
X153361000Y-38496000D02*
X153361000Y-41759000D01*
X153361000Y-44241000D02*
X153361000Y-47504000D01*
X153401000Y-38517000D02*
X153401000Y-41759000D01*
X153401000Y-44241000D02*
X153401000Y-47483000D01*
X153441000Y-38538000D02*
X153441000Y-41759000D01*
X153441000Y-44241000D02*
X153441000Y-47462000D01*
X153481000Y-38560000D02*
X153481000Y-41759000D01*
X153481000Y-44241000D02*
X153481000Y-47440000D01*
X153521000Y-38583000D02*
X153521000Y-41759000D01*
X153521000Y-44241000D02*
X153521000Y-47417000D01*
X153561000Y-38605000D02*
X153561000Y-41759000D01*
X153561000Y-44241000D02*
X153561000Y-47395000D01*
X153601000Y-38629000D02*
X153601000Y-41759000D01*
X153601000Y-44241000D02*
X153601000Y-47371000D01*
X153641000Y-38653000D02*
X153641000Y-41759000D01*
X153641000Y-44241000D02*
X153641000Y-47347000D01*
X153681000Y-38677000D02*
X153681000Y-41759000D01*
X153681000Y-44241000D02*
X153681000Y-47323000D01*
X153721000Y-38702000D02*
X153721000Y-41759000D01*
X153721000Y-44241000D02*
X153721000Y-47298000D01*
X153761000Y-38727000D02*
X153761000Y-41759000D01*
X153761000Y-44241000D02*
X153761000Y-47273000D01*
X153801000Y-38753000D02*
X153801000Y-41759000D01*
X153801000Y-44241000D02*
X153801000Y-47247000D01*
X153841000Y-38779000D02*
X153841000Y-41759000D01*
X153841000Y-44241000D02*
X153841000Y-47221000D01*
X153881000Y-38806000D02*
X153881000Y-41759000D01*
X153881000Y-44241000D02*
X153881000Y-47194000D01*
X153921000Y-38834000D02*
X153921000Y-41759000D01*
X153921000Y-44241000D02*
X153921000Y-47166000D01*
X153961000Y-38862000D02*
X153961000Y-41759000D01*
X153961000Y-44241000D02*
X153961000Y-47138000D01*
X154001000Y-38890000D02*
X154001000Y-41759000D01*
X154001000Y-44241000D02*
X154001000Y-47110000D01*
X154041000Y-38920000D02*
X154041000Y-41759000D01*
X154041000Y-44241000D02*
X154041000Y-47080000D01*
X154081000Y-38950000D02*
X154081000Y-41759000D01*
X154081000Y-44241000D02*
X154081000Y-47050000D01*
X154121000Y-38980000D02*
X154121000Y-41759000D01*
X154121000Y-44241000D02*
X154121000Y-47020000D01*
X154161000Y-39011000D02*
X154161000Y-41759000D01*
X154161000Y-44241000D02*
X154161000Y-46989000D01*
X154201000Y-39043000D02*
X154201000Y-41759000D01*
X154201000Y-44241000D02*
X154201000Y-46957000D01*
X154241000Y-39075000D02*
X154241000Y-41759000D01*
X154241000Y-44241000D02*
X154241000Y-46925000D01*
X154281000Y-39108000D02*
X154281000Y-41759000D01*
X154281000Y-44241000D02*
X154281000Y-46892000D01*
X154321000Y-39142000D02*
X154321000Y-41759000D01*
X154321000Y-44241000D02*
X154321000Y-46858000D01*
X154361000Y-39176000D02*
X154361000Y-41759000D01*
X154361000Y-44241000D02*
X154361000Y-46824000D01*
X154401000Y-39211000D02*
X154401000Y-41759000D01*
X154401000Y-44241000D02*
X154401000Y-46789000D01*
X154441000Y-39247000D02*
X154441000Y-41759000D01*
X154441000Y-44241000D02*
X154441000Y-46753000D01*
X154481000Y-39284000D02*
X154481000Y-41759000D01*
X154481000Y-44241000D02*
X154481000Y-46716000D01*
X154521000Y-39321000D02*
X154521000Y-41759000D01*
X154521000Y-44241000D02*
X154521000Y-46679000D01*
X154561000Y-39360000D02*
X154561000Y-41759000D01*
X154561000Y-44241000D02*
X154561000Y-46640000D01*
X154601000Y-39399000D02*
X154601000Y-41759000D01*
X154601000Y-44241000D02*
X154601000Y-46601000D01*
X154641000Y-39439000D02*
X154641000Y-41759000D01*
X154641000Y-44241000D02*
X154641000Y-46561000D01*
X154681000Y-39480000D02*
X154681000Y-41759000D01*
X154681000Y-44241000D02*
X154681000Y-46520000D01*
X154721000Y-39522000D02*
X154721000Y-41759000D01*
X154721000Y-44241000D02*
X154721000Y-46478000D01*
X154761000Y-39564000D02*
X154761000Y-46436000D01*
X154801000Y-39608000D02*
X154801000Y-46392000D01*
X154841000Y-39653000D02*
X154841000Y-46347000D01*
X154881000Y-39699000D02*
X154881000Y-46301000D01*
X154921000Y-39746000D02*
X154921000Y-46254000D01*
X154961000Y-39794000D02*
X154961000Y-46206000D01*
X155001000Y-39844000D02*
X155001000Y-46156000D01*
X155041000Y-39894000D02*
X155041000Y-46106000D01*
X155081000Y-39946000D02*
X155081000Y-46054000D01*
X155121000Y-40000000D02*
X155121000Y-46000000D01*
X155161000Y-40055000D02*
X155161000Y-45945000D01*
X155201000Y-40111000D02*
X155201000Y-45889000D01*
X155241000Y-40170000D02*
X155241000Y-45830000D01*
X155281000Y-40230000D02*
X155281000Y-45770000D01*
X155321000Y-40291000D02*
X155321000Y-45709000D01*
X155361000Y-40355000D02*
X155361000Y-45645000D01*
X155401000Y-40421000D02*
X155401000Y-45579000D01*
X155441000Y-40490000D02*
X155441000Y-45510000D01*
X155481000Y-40561000D02*
X155481000Y-45439000D01*
X155521000Y-40635000D02*
X155521000Y-45365000D01*
X155561000Y-40711000D02*
X155561000Y-45289000D01*
X155601000Y-40791000D02*
X155601000Y-45209000D01*
X155641000Y-40875000D02*
X155641000Y-45125000D01*
X155681000Y-40963000D02*
X155681000Y-45037000D01*
X155721000Y-41056000D02*
X155721000Y-44944000D01*
X155761000Y-41154000D02*
X155761000Y-44846000D01*
X155801000Y-41258000D02*
X155801000Y-44742000D01*
X155841000Y-41370000D02*
X155841000Y-44630000D01*
X155881000Y-41490000D02*
X155881000Y-44510000D01*
X155921000Y-41622000D02*
X155921000Y-44378000D01*
X155961000Y-41770000D02*
X155961000Y-44230000D01*
X156001000Y-41938000D02*
X156001000Y-44062000D01*
X156041000Y-42138000D02*
X156041000Y-43862000D01*
X156081000Y-42401000D02*
X156081000Y-43599000D01*
X156120000Y-43000000D02*
G75*
G02*
X145880000Y-43000000I-5120000J0D01*
G01*
X145880000Y-43000000D02*
G75*
G02*
X156120000Y-43000000I5120000J0D01*
G01*
%TO.C,C4*%
X151988748Y-56265000D02*
X152511252Y-56265000D01*
X151988748Y-57735000D02*
X152511252Y-57735000D01*
%TO.C,D1*%
X141350000Y-34490000D02*
X141350000Y-40000000D01*
X144650000Y-34490000D02*
X141350000Y-34490000D01*
X144650000Y-34490000D02*
X144650000Y-40000000D01*
%TO.C,J14*%
X165820000Y-48270000D02*
X167150000Y-48270000D01*
X165820000Y-49600000D02*
X165820000Y-48270000D01*
X165820000Y-50870000D02*
X165820000Y-58550000D01*
X165820000Y-50870000D02*
X168480000Y-50870000D01*
X165820000Y-58550000D02*
X168480000Y-58550000D01*
X168480000Y-50870000D02*
X168480000Y-58550000D01*
%TO.C,C1*%
X144480199Y-54805000D02*
X144880199Y-54805000D01*
X144680199Y-54605000D02*
X144680199Y-55005000D01*
X146750000Y-53920000D02*
X146750000Y-55160000D01*
X146750000Y-56840000D02*
X146750000Y-58080000D01*
X146790000Y-53920000D02*
X146790000Y-55160000D01*
X146790000Y-56840000D02*
X146790000Y-58080000D01*
X146830000Y-53921000D02*
X146830000Y-55160000D01*
X146830000Y-56840000D02*
X146830000Y-58079000D01*
X146870000Y-53923000D02*
X146870000Y-55160000D01*
X146870000Y-56840000D02*
X146870000Y-58077000D01*
X146910000Y-53926000D02*
X146910000Y-55160000D01*
X146910000Y-56840000D02*
X146910000Y-58074000D01*
X146950000Y-53929000D02*
X146950000Y-55160000D01*
X146950000Y-56840000D02*
X146950000Y-58071000D01*
X146990000Y-53933000D02*
X146990000Y-55160000D01*
X146990000Y-56840000D02*
X146990000Y-58067000D01*
X147030000Y-53938000D02*
X147030000Y-55160000D01*
X147030000Y-56840000D02*
X147030000Y-58062000D01*
X147070000Y-53944000D02*
X147070000Y-55160000D01*
X147070000Y-56840000D02*
X147070000Y-58056000D01*
X147110000Y-53950000D02*
X147110000Y-55160000D01*
X147110000Y-56840000D02*
X147110000Y-58050000D01*
X147150000Y-53958000D02*
X147150000Y-55160000D01*
X147150000Y-56840000D02*
X147150000Y-58042000D01*
X147190000Y-53966000D02*
X147190000Y-55160000D01*
X147190000Y-56840000D02*
X147190000Y-58034000D01*
X147230000Y-53975000D02*
X147230000Y-55160000D01*
X147230000Y-56840000D02*
X147230000Y-58025000D01*
X147270000Y-53984000D02*
X147270000Y-55160000D01*
X147270000Y-56840000D02*
X147270000Y-58016000D01*
X147310000Y-53995000D02*
X147310000Y-55160000D01*
X147310000Y-56840000D02*
X147310000Y-58005000D01*
X147350000Y-54006000D02*
X147350000Y-55160000D01*
X147350000Y-56840000D02*
X147350000Y-57994000D01*
X147390000Y-54018000D02*
X147390000Y-55160000D01*
X147390000Y-56840000D02*
X147390000Y-57982000D01*
X147430000Y-54032000D02*
X147430000Y-55160000D01*
X147430000Y-56840000D02*
X147430000Y-57968000D01*
X147471000Y-54046000D02*
X147471000Y-55160000D01*
X147471000Y-56840000D02*
X147471000Y-57954000D01*
X147511000Y-54060000D02*
X147511000Y-55160000D01*
X147511000Y-56840000D02*
X147511000Y-57940000D01*
X147551000Y-54076000D02*
X147551000Y-55160000D01*
X147551000Y-56840000D02*
X147551000Y-57924000D01*
X147591000Y-54093000D02*
X147591000Y-55160000D01*
X147591000Y-56840000D02*
X147591000Y-57907000D01*
X147631000Y-54111000D02*
X147631000Y-55160000D01*
X147631000Y-56840000D02*
X147631000Y-57889000D01*
X147671000Y-54130000D02*
X147671000Y-55160000D01*
X147671000Y-56840000D02*
X147671000Y-57870000D01*
X147711000Y-54149000D02*
X147711000Y-55160000D01*
X147711000Y-56840000D02*
X147711000Y-57851000D01*
X147751000Y-54170000D02*
X147751000Y-55160000D01*
X147751000Y-56840000D02*
X147751000Y-57830000D01*
X147791000Y-54192000D02*
X147791000Y-55160000D01*
X147791000Y-56840000D02*
X147791000Y-57808000D01*
X147831000Y-54215000D02*
X147831000Y-55160000D01*
X147831000Y-56840000D02*
X147831000Y-57785000D01*
X147871000Y-54240000D02*
X147871000Y-55160000D01*
X147871000Y-56840000D02*
X147871000Y-57760000D01*
X147911000Y-54265000D02*
X147911000Y-55160000D01*
X147911000Y-56840000D02*
X147911000Y-57735000D01*
X147951000Y-54292000D02*
X147951000Y-55160000D01*
X147951000Y-56840000D02*
X147951000Y-57708000D01*
X147991000Y-54320000D02*
X147991000Y-55160000D01*
X147991000Y-56840000D02*
X147991000Y-57680000D01*
X148031000Y-54350000D02*
X148031000Y-55160000D01*
X148031000Y-56840000D02*
X148031000Y-57650000D01*
X148071000Y-54381000D02*
X148071000Y-55160000D01*
X148071000Y-56840000D02*
X148071000Y-57619000D01*
X148111000Y-54413000D02*
X148111000Y-55160000D01*
X148111000Y-56840000D02*
X148111000Y-57587000D01*
X148151000Y-54448000D02*
X148151000Y-55160000D01*
X148151000Y-56840000D02*
X148151000Y-57552000D01*
X148191000Y-54484000D02*
X148191000Y-55160000D01*
X148191000Y-56840000D02*
X148191000Y-57516000D01*
X148231000Y-54522000D02*
X148231000Y-55160000D01*
X148231000Y-56840000D02*
X148231000Y-57478000D01*
X148271000Y-54562000D02*
X148271000Y-55160000D01*
X148271000Y-56840000D02*
X148271000Y-57438000D01*
X148311000Y-54604000D02*
X148311000Y-55160000D01*
X148311000Y-56840000D02*
X148311000Y-57396000D01*
X148351000Y-54649000D02*
X148351000Y-57351000D01*
X148391000Y-54696000D02*
X148391000Y-57304000D01*
X148431000Y-54746000D02*
X148431000Y-57254000D01*
X148471000Y-54800000D02*
X148471000Y-57200000D01*
X148511000Y-54858000D02*
X148511000Y-57142000D01*
X148551000Y-54920000D02*
X148551000Y-57080000D01*
X148591000Y-54987000D02*
X148591000Y-57013000D01*
X148631000Y-55060000D02*
X148631000Y-56940000D01*
X148671000Y-55141000D02*
X148671000Y-56859000D01*
X148711000Y-55232000D02*
X148711000Y-56768000D01*
X148751000Y-55336000D02*
X148751000Y-56664000D01*
X148791000Y-55463000D02*
X148791000Y-56537000D01*
X148831000Y-55630000D02*
X148831000Y-56370000D01*
X148870000Y-56000000D02*
G75*
G02*
X144630000Y-56000000I-2120000J0D01*
G01*
X144630000Y-56000000D02*
G75*
G02*
X148870000Y-56000000I2120000J0D01*
G01*
%TO.C,J3*%
X124490000Y-87330000D02*
X124490000Y-86000000D01*
X125820000Y-87330000D02*
X124490000Y-87330000D01*
X127090000Y-84670000D02*
X172870000Y-84670000D01*
X127090000Y-87330000D02*
X127090000Y-84670000D01*
X127090000Y-87330000D02*
X172870000Y-87330000D01*
X172870000Y-87330000D02*
X172870000Y-84670000D01*
%TO.C,J17*%
X181670000Y-47550000D02*
X183000000Y-47550000D01*
X181670000Y-48880000D02*
X181670000Y-47550000D01*
X181670000Y-50150000D02*
X181670000Y-60370000D01*
X181670000Y-50150000D02*
X184330000Y-50150000D01*
X181670000Y-60370000D02*
X184330000Y-60370000D01*
X184330000Y-50150000D02*
X184330000Y-60370000D01*
%TO.C,C13*%
X171912164Y-112140000D02*
X172127836Y-112140000D01*
X171912164Y-112860000D02*
X172127836Y-112860000D01*
%TO.C,J2*%
X125430000Y-55830000D02*
X125430000Y-54500000D01*
X126760000Y-55830000D02*
X125430000Y-55830000D01*
X128030000Y-53170000D02*
X130630000Y-53170000D01*
X128030000Y-55830000D02*
X128030000Y-53170000D01*
X128030000Y-55830000D02*
X130630000Y-55830000D01*
X130630000Y-55830000D02*
X130630000Y-53170000D01*
%TO.C,C10*%
X162288748Y-48765000D02*
X162811252Y-48765000D01*
X162288748Y-50235000D02*
X162811252Y-50235000D01*
%TD*%
%LPC*%
D12*
%TO.C,J16*%
X177300000Y-42060000D03*
D13*
X177300000Y-44600000D03*
X177300000Y-47140000D03*
X177300000Y-49680000D03*
X177300000Y-52220000D03*
%TD*%
D14*
%TO.C,C3*%
X151300000Y-53000000D03*
X153200000Y-53000000D03*
%TD*%
D15*
%TO.C,C8*%
X157800000Y-52000000D03*
X158760000Y-52000000D03*
%TD*%
D16*
%TO.C,L3*%
X158750000Y-56500000D03*
X162850000Y-56500000D03*
%TD*%
D15*
%TO.C,C12*%
X171540000Y-110500000D03*
X172500000Y-110500000D03*
%TD*%
D12*
%TO.C,J7*%
X125820000Y-62600000D03*
D13*
X128360000Y-62600000D03*
X130900000Y-62600000D03*
X133440000Y-62600000D03*
X135980000Y-62600000D03*
X138520000Y-62600000D03*
X141060000Y-62600000D03*
X143600000Y-62600000D03*
X146140000Y-62600000D03*
X148680000Y-62600000D03*
X151220000Y-62600000D03*
X153760000Y-62600000D03*
X156300000Y-62600000D03*
X158840000Y-62600000D03*
X161380000Y-62600000D03*
X163920000Y-62600000D03*
X166460000Y-62600000D03*
X169000000Y-62600000D03*
X171540000Y-62600000D03*
%TD*%
D12*
%TO.C,J11*%
X177300000Y-72060000D03*
D13*
X177300000Y-74600000D03*
X177300000Y-77140000D03*
X177300000Y-79680000D03*
X177300000Y-82220000D03*
%TD*%
D12*
%TO.C,J19*%
X183000000Y-79340000D03*
D13*
X183000000Y-81880000D03*
X183000000Y-84420000D03*
X183000000Y-86960000D03*
X183000000Y-89500000D03*
%TD*%
D12*
%TO.C,J12*%
X167150000Y-36420000D03*
D13*
X167150000Y-38960000D03*
X167150000Y-41500000D03*
X167150000Y-44040000D03*
%TD*%
D12*
%TO.C,J18*%
X183000000Y-64340000D03*
D13*
X183000000Y-66880000D03*
X183000000Y-69420000D03*
X183000000Y-71960000D03*
X183000000Y-74500000D03*
%TD*%
D12*
%TO.C,J10*%
X177300000Y-57525000D03*
D13*
X177300000Y-60065000D03*
X177300000Y-62605000D03*
X177300000Y-65145000D03*
X177300000Y-67685000D03*
%TD*%
D12*
%TO.C,J15*%
X171800000Y-49600000D03*
D13*
X171800000Y-52140000D03*
X171800000Y-54680000D03*
X171800000Y-57220000D03*
%TD*%
D12*
%TO.C,J13*%
X171800000Y-36420000D03*
D13*
X171800000Y-38960000D03*
X171800000Y-41500000D03*
X171800000Y-44040000D03*
%TD*%
D17*
%TO.C,C6*%
X141800000Y-56000000D03*
X141800000Y-56960000D03*
%TD*%
D15*
%TO.C,C11*%
X172500000Y-108500000D03*
X171540000Y-108500000D03*
%TD*%
D12*
%TO.C,J8*%
X177300000Y-101740000D03*
D13*
X177300000Y-104280000D03*
X177300000Y-106820000D03*
X177300000Y-109360000D03*
%TD*%
D12*
%TO.C,J21*%
X137300000Y-54500000D03*
D13*
X134760000Y-54500000D03*
%TD*%
D18*
%TO.C,U1*%
X158900000Y-47000000D03*
X157950000Y-47000000D03*
X157000000Y-47000000D03*
X157000000Y-49275000D03*
X157950000Y-49275000D03*
X158900000Y-49275000D03*
%TD*%
D19*
%TO.C,J1*%
X129500000Y-42000000D03*
D20*
X133900000Y-42000000D03*
D21*
X129400000Y-36500000D03*
X135400000Y-36500000D03*
X135400000Y-47500000D03*
X129400000Y-47500000D03*
%TD*%
D12*
%TO.C,J5*%
X125800000Y-93500000D03*
D13*
X128340000Y-93500000D03*
X130880000Y-93500000D03*
X133420000Y-93500000D03*
X135960000Y-93500000D03*
X138500000Y-93500000D03*
X141040000Y-93500000D03*
X143580000Y-93500000D03*
X146120000Y-93500000D03*
X148660000Y-93500000D03*
X151200000Y-93500000D03*
X153740000Y-93500000D03*
X156280000Y-93500000D03*
X158820000Y-93500000D03*
X161360000Y-93500000D03*
X163900000Y-93500000D03*
X166440000Y-93500000D03*
X168980000Y-93500000D03*
X171520000Y-93500000D03*
%TD*%
D12*
%TO.C,J4*%
X125800000Y-117000000D03*
D13*
X128340000Y-117000000D03*
X130880000Y-117000000D03*
X133420000Y-117000000D03*
X135960000Y-117000000D03*
X138500000Y-117000000D03*
X141040000Y-117000000D03*
X143580000Y-117000000D03*
X146120000Y-117000000D03*
X148660000Y-117000000D03*
X151200000Y-117000000D03*
X153740000Y-117000000D03*
X156280000Y-117000000D03*
X158820000Y-117000000D03*
X161360000Y-117000000D03*
X163900000Y-117000000D03*
X166440000Y-117000000D03*
X168980000Y-117000000D03*
X171520000Y-117000000D03*
%TD*%
D22*
%TO.C,U2*%
X157800000Y-41550000D03*
X157800000Y-42500000D03*
X157800000Y-43450000D03*
X160075000Y-43450000D03*
X160075000Y-42500000D03*
X160075000Y-41550000D03*
%TD*%
D23*
%TO.C,L1*%
X162550000Y-36500000D03*
X158450000Y-36500000D03*
%TD*%
D12*
%TO.C,J9*%
X177300000Y-114100000D03*
D13*
X177300000Y-116640000D03*
X177300000Y-119180000D03*
%TD*%
D24*
%TO.C,C2*%
X163000000Y-42460000D03*
X163000000Y-41500000D03*
%TD*%
%TO.C,C7*%
X156000000Y-55500000D03*
X156000000Y-54540000D03*
%TD*%
D12*
%TO.C,J20*%
X183000000Y-94880000D03*
D13*
X183000000Y-97420000D03*
X183000000Y-99960000D03*
X183000000Y-102500000D03*
X183000000Y-105040000D03*
%TD*%
D14*
%TO.C,C9*%
X161600000Y-46000000D03*
X163500000Y-46000000D03*
%TD*%
D12*
%TO.C,J6*%
X177300000Y-86940000D03*
D13*
X177300000Y-89480000D03*
X177300000Y-92020000D03*
X177300000Y-94560000D03*
X177300000Y-97100000D03*
%TD*%
D25*
%TO.C,D3*%
X143000000Y-46000000D03*
X143000000Y-50000000D03*
%TD*%
D26*
%TO.C,C5*%
X148500000Y-43000000D03*
D20*
X153500000Y-43000000D03*
%TD*%
D14*
%TO.C,C4*%
X151300000Y-57000000D03*
X153200000Y-57000000D03*
%TD*%
D25*
%TO.C,D1*%
X143000000Y-36000000D03*
X143000000Y-40000000D03*
%TD*%
D12*
%TO.C,J14*%
X167150000Y-49600000D03*
D13*
X167150000Y-52140000D03*
X167150000Y-54680000D03*
X167150000Y-57220000D03*
%TD*%
D27*
%TO.C,C1*%
X146000000Y-56000000D03*
D28*
X147500000Y-56000000D03*
%TD*%
D12*
%TO.C,J3*%
X125820000Y-86000000D03*
D13*
X128360000Y-86000000D03*
X130900000Y-86000000D03*
X133440000Y-86000000D03*
X135980000Y-86000000D03*
X138520000Y-86000000D03*
X141060000Y-86000000D03*
X143600000Y-86000000D03*
X146140000Y-86000000D03*
X148680000Y-86000000D03*
X151220000Y-86000000D03*
X153760000Y-86000000D03*
X156300000Y-86000000D03*
X158840000Y-86000000D03*
X161380000Y-86000000D03*
X163920000Y-86000000D03*
X166460000Y-86000000D03*
X169000000Y-86000000D03*
X171540000Y-86000000D03*
%TD*%
D12*
%TO.C,J17*%
X183000000Y-48880000D03*
D13*
X183000000Y-51420000D03*
X183000000Y-53960000D03*
X183000000Y-56500000D03*
X183000000Y-59040000D03*
%TD*%
D15*
%TO.C,C13*%
X171540000Y-112500000D03*
X172500000Y-112500000D03*
%TD*%
D12*
%TO.C,J2*%
X126760000Y-54500000D03*
D13*
X129300000Y-54500000D03*
%TD*%
D14*
%TO.C,C10*%
X161600000Y-49500000D03*
X163500000Y-49500000D03*
%TD*%
%LPD*%
M02*
