%TF.GenerationSoftware,KiCad,Pcbnew,8.0.7*%
%TF.CreationDate,2025-02-18T15:16:03-08:00*%
%TF.ProjectId,pcbfrfr,70636266-7266-4722-9e6b-696361645f70,rev?*%
%TF.SameCoordinates,Original*%
%TF.FileFunction,Legend,Top*%
%TF.FilePolarity,Positive*%
%FSLAX46Y46*%
G04 Gerber Fmt 4.6, Leading zero omitted, Abs format (unit mm)*
G04 Created by KiCad (PCBNEW 8.0.7) date 2025-02-18 15:16:03*
%MOMM*%
%LPD*%
G01*
G04 APERTURE LIST*
G04 Aperture macros list*
%AMRoundRect*
0 Rectangle with rounded corners*
0 $1 Rounding radius*
0 $2 $3 $4 $5 $6 $7 $8 $9 X,Y pos of 4 corners*
0 Add a 4 corners polygon primitive as box body*
4,1,4,$2,$3,$4,$5,$6,$7,$8,$9,$2,$3,0*
0 Add four circle primitives for the rounded corners*
1,1,$1+$1,$2,$3*
1,1,$1+$1,$4,$5*
1,1,$1+$1,$6,$7*
1,1,$1+$1,$8,$9*
0 Add four rect primitives between the rounded corners*
20,1,$1+$1,$2,$3,$4,$5,0*
20,1,$1+$1,$4,$5,$6,$7,0*
20,1,$1+$1,$6,$7,$8,$9,0*
20,1,$1+$1,$8,$9,$2,$3,0*%
G04 Aperture macros list end*
%ADD10C,0.150000*%
%ADD11C,0.120000*%
%ADD12R,1.700000X1.700000*%
%ADD13O,1.700000X1.700000*%
%ADD14RoundRect,0.250000X-0.250000X-0.475000X0.250000X-0.475000X0.250000X0.475000X-0.250000X0.475000X0*%
%ADD15RoundRect,0.140000X-0.140000X-0.170000X0.140000X-0.170000X0.140000X0.170000X-0.140000X0.170000X0*%
%ADD16RoundRect,0.250000X-0.700000X-1.000000X0.700000X-1.000000X0.700000X1.000000X-0.700000X1.000000X0*%
%ADD17RoundRect,0.140000X-0.170000X0.140000X-0.170000X-0.140000X0.170000X-0.140000X0.170000X0.140000X0*%
%ADD18RoundRect,0.150000X-0.150000X0.512500X-0.150000X-0.512500X0.150000X-0.512500X0.150000X0.512500X0*%
%ADD19O,1.500000X2.000000*%
%ADD20C,2.000000*%
%ADD21R,2.000000X3.000000*%
%ADD22RoundRect,0.150000X-0.512500X-0.150000X0.512500X-0.150000X0.512500X0.150000X-0.512500X0.150000X0*%
%ADD23RoundRect,0.250000X0.700000X1.000000X-0.700000X1.000000X-0.700000X-1.000000X0.700000X-1.000000X0*%
%ADD24RoundRect,0.140000X0.170000X-0.140000X0.170000X0.140000X-0.170000X0.140000X-0.170000X-0.140000X0*%
%ADD25RoundRect,0.250000X-0.650000X1.000000X-0.650000X-1.000000X0.650000X-1.000000X0.650000X1.000000X0*%
%ADD26R,2.000000X2.000000*%
%ADD27R,1.200000X1.200000*%
%ADD28C,1.200000*%
G04 APERTURE END LIST*
D10*
X176490476Y-39184819D02*
X176490476Y-39899104D01*
X176490476Y-39899104D02*
X176442857Y-40041961D01*
X176442857Y-40041961D02*
X176347619Y-40137200D01*
X176347619Y-40137200D02*
X176204762Y-40184819D01*
X176204762Y-40184819D02*
X176109524Y-40184819D01*
X177490476Y-40184819D02*
X176919048Y-40184819D01*
X177204762Y-40184819D02*
X177204762Y-39184819D01*
X177204762Y-39184819D02*
X177109524Y-39327676D01*
X177109524Y-39327676D02*
X177014286Y-39422914D01*
X177014286Y-39422914D02*
X176919048Y-39470533D01*
X178347619Y-39184819D02*
X178157143Y-39184819D01*
X178157143Y-39184819D02*
X178061905Y-39232438D01*
X178061905Y-39232438D02*
X178014286Y-39280057D01*
X178014286Y-39280057D02*
X177919048Y-39422914D01*
X177919048Y-39422914D02*
X177871429Y-39613390D01*
X177871429Y-39613390D02*
X177871429Y-39994342D01*
X177871429Y-39994342D02*
X177919048Y-40089580D01*
X177919048Y-40089580D02*
X177966667Y-40137200D01*
X177966667Y-40137200D02*
X178061905Y-40184819D01*
X178061905Y-40184819D02*
X178252381Y-40184819D01*
X178252381Y-40184819D02*
X178347619Y-40137200D01*
X178347619Y-40137200D02*
X178395238Y-40089580D01*
X178395238Y-40089580D02*
X178442857Y-39994342D01*
X178442857Y-39994342D02*
X178442857Y-39756247D01*
X178442857Y-39756247D02*
X178395238Y-39661009D01*
X178395238Y-39661009D02*
X178347619Y-39613390D01*
X178347619Y-39613390D02*
X178252381Y-39565771D01*
X178252381Y-39565771D02*
X178061905Y-39565771D01*
X178061905Y-39565771D02*
X177966667Y-39613390D01*
X177966667Y-39613390D02*
X177919048Y-39661009D01*
X177919048Y-39661009D02*
X177871429Y-39756247D01*
X152083333Y-51679580D02*
X152035714Y-51727200D01*
X152035714Y-51727200D02*
X151892857Y-51774819D01*
X151892857Y-51774819D02*
X151797619Y-51774819D01*
X151797619Y-51774819D02*
X151654762Y-51727200D01*
X151654762Y-51727200D02*
X151559524Y-51631961D01*
X151559524Y-51631961D02*
X151511905Y-51536723D01*
X151511905Y-51536723D02*
X151464286Y-51346247D01*
X151464286Y-51346247D02*
X151464286Y-51203390D01*
X151464286Y-51203390D02*
X151511905Y-51012914D01*
X151511905Y-51012914D02*
X151559524Y-50917676D01*
X151559524Y-50917676D02*
X151654762Y-50822438D01*
X151654762Y-50822438D02*
X151797619Y-50774819D01*
X151797619Y-50774819D02*
X151892857Y-50774819D01*
X151892857Y-50774819D02*
X152035714Y-50822438D01*
X152035714Y-50822438D02*
X152083333Y-50870057D01*
X152416667Y-50774819D02*
X153035714Y-50774819D01*
X153035714Y-50774819D02*
X152702381Y-51155771D01*
X152702381Y-51155771D02*
X152845238Y-51155771D01*
X152845238Y-51155771D02*
X152940476Y-51203390D01*
X152940476Y-51203390D02*
X152988095Y-51251009D01*
X152988095Y-51251009D02*
X153035714Y-51346247D01*
X153035714Y-51346247D02*
X153035714Y-51584342D01*
X153035714Y-51584342D02*
X152988095Y-51679580D01*
X152988095Y-51679580D02*
X152940476Y-51727200D01*
X152940476Y-51727200D02*
X152845238Y-51774819D01*
X152845238Y-51774819D02*
X152559524Y-51774819D01*
X152559524Y-51774819D02*
X152464286Y-51727200D01*
X152464286Y-51727200D02*
X152416667Y-51679580D01*
X158113333Y-50799580D02*
X158065714Y-50847200D01*
X158065714Y-50847200D02*
X157922857Y-50894819D01*
X157922857Y-50894819D02*
X157827619Y-50894819D01*
X157827619Y-50894819D02*
X157684762Y-50847200D01*
X157684762Y-50847200D02*
X157589524Y-50751961D01*
X157589524Y-50751961D02*
X157541905Y-50656723D01*
X157541905Y-50656723D02*
X157494286Y-50466247D01*
X157494286Y-50466247D02*
X157494286Y-50323390D01*
X157494286Y-50323390D02*
X157541905Y-50132914D01*
X157541905Y-50132914D02*
X157589524Y-50037676D01*
X157589524Y-50037676D02*
X157684762Y-49942438D01*
X157684762Y-49942438D02*
X157827619Y-49894819D01*
X157827619Y-49894819D02*
X157922857Y-49894819D01*
X157922857Y-49894819D02*
X158065714Y-49942438D01*
X158065714Y-49942438D02*
X158113333Y-49990057D01*
X158684762Y-50323390D02*
X158589524Y-50275771D01*
X158589524Y-50275771D02*
X158541905Y-50228152D01*
X158541905Y-50228152D02*
X158494286Y-50132914D01*
X158494286Y-50132914D02*
X158494286Y-50085295D01*
X158494286Y-50085295D02*
X158541905Y-49990057D01*
X158541905Y-49990057D02*
X158589524Y-49942438D01*
X158589524Y-49942438D02*
X158684762Y-49894819D01*
X158684762Y-49894819D02*
X158875238Y-49894819D01*
X158875238Y-49894819D02*
X158970476Y-49942438D01*
X158970476Y-49942438D02*
X159018095Y-49990057D01*
X159018095Y-49990057D02*
X159065714Y-50085295D01*
X159065714Y-50085295D02*
X159065714Y-50132914D01*
X159065714Y-50132914D02*
X159018095Y-50228152D01*
X159018095Y-50228152D02*
X158970476Y-50275771D01*
X158970476Y-50275771D02*
X158875238Y-50323390D01*
X158875238Y-50323390D02*
X158684762Y-50323390D01*
X158684762Y-50323390D02*
X158589524Y-50371009D01*
X158589524Y-50371009D02*
X158541905Y-50418628D01*
X158541905Y-50418628D02*
X158494286Y-50513866D01*
X158494286Y-50513866D02*
X158494286Y-50704342D01*
X158494286Y-50704342D02*
X158541905Y-50799580D01*
X158541905Y-50799580D02*
X158589524Y-50847200D01*
X158589524Y-50847200D02*
X158684762Y-50894819D01*
X158684762Y-50894819D02*
X158875238Y-50894819D01*
X158875238Y-50894819D02*
X158970476Y-50847200D01*
X158970476Y-50847200D02*
X159018095Y-50799580D01*
X159018095Y-50799580D02*
X159065714Y-50704342D01*
X159065714Y-50704342D02*
X159065714Y-50513866D01*
X159065714Y-50513866D02*
X159018095Y-50418628D01*
X159018095Y-50418628D02*
X158970476Y-50371009D01*
X158970476Y-50371009D02*
X158875238Y-50323390D01*
X160633333Y-52954819D02*
X160157143Y-52954819D01*
X160157143Y-52954819D02*
X160157143Y-51954819D01*
X160871429Y-51954819D02*
X161490476Y-51954819D01*
X161490476Y-51954819D02*
X161157143Y-52335771D01*
X161157143Y-52335771D02*
X161300000Y-52335771D01*
X161300000Y-52335771D02*
X161395238Y-52383390D01*
X161395238Y-52383390D02*
X161442857Y-52431009D01*
X161442857Y-52431009D02*
X161490476Y-52526247D01*
X161490476Y-52526247D02*
X161490476Y-52764342D01*
X161490476Y-52764342D02*
X161442857Y-52859580D01*
X161442857Y-52859580D02*
X161395238Y-52907200D01*
X161395238Y-52907200D02*
X161300000Y-52954819D01*
X161300000Y-52954819D02*
X161014286Y-52954819D01*
X161014286Y-52954819D02*
X160919048Y-52907200D01*
X160919048Y-52907200D02*
X160871429Y-52859580D01*
X172677142Y-112299580D02*
X172629523Y-112347200D01*
X172629523Y-112347200D02*
X172486666Y-112394819D01*
X172486666Y-112394819D02*
X172391428Y-112394819D01*
X172391428Y-112394819D02*
X172248571Y-112347200D01*
X172248571Y-112347200D02*
X172153333Y-112251961D01*
X172153333Y-112251961D02*
X172105714Y-112156723D01*
X172105714Y-112156723D02*
X172058095Y-111966247D01*
X172058095Y-111966247D02*
X172058095Y-111823390D01*
X172058095Y-111823390D02*
X172105714Y-111632914D01*
X172105714Y-111632914D02*
X172153333Y-111537676D01*
X172153333Y-111537676D02*
X172248571Y-111442438D01*
X172248571Y-111442438D02*
X172391428Y-111394819D01*
X172391428Y-111394819D02*
X172486666Y-111394819D01*
X172486666Y-111394819D02*
X172629523Y-111442438D01*
X172629523Y-111442438D02*
X172677142Y-111490057D01*
X173629523Y-112394819D02*
X173058095Y-112394819D01*
X173343809Y-112394819D02*
X173343809Y-111394819D01*
X173343809Y-111394819D02*
X173248571Y-111537676D01*
X173248571Y-111537676D02*
X173153333Y-111632914D01*
X173153333Y-111632914D02*
X173058095Y-111680533D01*
X174010476Y-111490057D02*
X174058095Y-111442438D01*
X174058095Y-111442438D02*
X174153333Y-111394819D01*
X174153333Y-111394819D02*
X174391428Y-111394819D01*
X174391428Y-111394819D02*
X174486666Y-111442438D01*
X174486666Y-111442438D02*
X174534285Y-111490057D01*
X174534285Y-111490057D02*
X174581904Y-111585295D01*
X174581904Y-111585295D02*
X174581904Y-111680533D01*
X174581904Y-111680533D02*
X174534285Y-111823390D01*
X174534285Y-111823390D02*
X173962857Y-112394819D01*
X173962857Y-112394819D02*
X174581904Y-112394819D01*
X122944819Y-62933333D02*
X123659104Y-62933333D01*
X123659104Y-62933333D02*
X123801961Y-62980952D01*
X123801961Y-62980952D02*
X123897200Y-63076190D01*
X123897200Y-63076190D02*
X123944819Y-63219047D01*
X123944819Y-63219047D02*
X123944819Y-63314285D01*
X122944819Y-62552380D02*
X122944819Y-61885714D01*
X122944819Y-61885714D02*
X123944819Y-62314285D01*
X176490476Y-69184819D02*
X176490476Y-69899104D01*
X176490476Y-69899104D02*
X176442857Y-70041961D01*
X176442857Y-70041961D02*
X176347619Y-70137200D01*
X176347619Y-70137200D02*
X176204762Y-70184819D01*
X176204762Y-70184819D02*
X176109524Y-70184819D01*
X177490476Y-70184819D02*
X176919048Y-70184819D01*
X177204762Y-70184819D02*
X177204762Y-69184819D01*
X177204762Y-69184819D02*
X177109524Y-69327676D01*
X177109524Y-69327676D02*
X177014286Y-69422914D01*
X177014286Y-69422914D02*
X176919048Y-69470533D01*
X178442857Y-70184819D02*
X177871429Y-70184819D01*
X178157143Y-70184819D02*
X178157143Y-69184819D01*
X178157143Y-69184819D02*
X178061905Y-69327676D01*
X178061905Y-69327676D02*
X177966667Y-69422914D01*
X177966667Y-69422914D02*
X177871429Y-69470533D01*
X182190476Y-76464819D02*
X182190476Y-77179104D01*
X182190476Y-77179104D02*
X182142857Y-77321961D01*
X182142857Y-77321961D02*
X182047619Y-77417200D01*
X182047619Y-77417200D02*
X181904762Y-77464819D01*
X181904762Y-77464819D02*
X181809524Y-77464819D01*
X183190476Y-77464819D02*
X182619048Y-77464819D01*
X182904762Y-77464819D02*
X182904762Y-76464819D01*
X182904762Y-76464819D02*
X182809524Y-76607676D01*
X182809524Y-76607676D02*
X182714286Y-76702914D01*
X182714286Y-76702914D02*
X182619048Y-76750533D01*
X183666667Y-77464819D02*
X183857143Y-77464819D01*
X183857143Y-77464819D02*
X183952381Y-77417200D01*
X183952381Y-77417200D02*
X184000000Y-77369580D01*
X184000000Y-77369580D02*
X184095238Y-77226723D01*
X184095238Y-77226723D02*
X184142857Y-77036247D01*
X184142857Y-77036247D02*
X184142857Y-76655295D01*
X184142857Y-76655295D02*
X184095238Y-76560057D01*
X184095238Y-76560057D02*
X184047619Y-76512438D01*
X184047619Y-76512438D02*
X183952381Y-76464819D01*
X183952381Y-76464819D02*
X183761905Y-76464819D01*
X183761905Y-76464819D02*
X183666667Y-76512438D01*
X183666667Y-76512438D02*
X183619048Y-76560057D01*
X183619048Y-76560057D02*
X183571429Y-76655295D01*
X183571429Y-76655295D02*
X183571429Y-76893390D01*
X183571429Y-76893390D02*
X183619048Y-76988628D01*
X183619048Y-76988628D02*
X183666667Y-77036247D01*
X183666667Y-77036247D02*
X183761905Y-77083866D01*
X183761905Y-77083866D02*
X183952381Y-77083866D01*
X183952381Y-77083866D02*
X184047619Y-77036247D01*
X184047619Y-77036247D02*
X184095238Y-76988628D01*
X184095238Y-76988628D02*
X184142857Y-76893390D01*
X166340476Y-34424819D02*
X166340476Y-35139104D01*
X166340476Y-35139104D02*
X166292857Y-35281961D01*
X166292857Y-35281961D02*
X166197619Y-35377200D01*
X166197619Y-35377200D02*
X166054762Y-35424819D01*
X166054762Y-35424819D02*
X165959524Y-35424819D01*
X167340476Y-35424819D02*
X166769048Y-35424819D01*
X167054762Y-35424819D02*
X167054762Y-34424819D01*
X167054762Y-34424819D02*
X166959524Y-34567676D01*
X166959524Y-34567676D02*
X166864286Y-34662914D01*
X166864286Y-34662914D02*
X166769048Y-34710533D01*
X167721429Y-34520057D02*
X167769048Y-34472438D01*
X167769048Y-34472438D02*
X167864286Y-34424819D01*
X167864286Y-34424819D02*
X168102381Y-34424819D01*
X168102381Y-34424819D02*
X168197619Y-34472438D01*
X168197619Y-34472438D02*
X168245238Y-34520057D01*
X168245238Y-34520057D02*
X168292857Y-34615295D01*
X168292857Y-34615295D02*
X168292857Y-34710533D01*
X168292857Y-34710533D02*
X168245238Y-34853390D01*
X168245238Y-34853390D02*
X167673810Y-35424819D01*
X167673810Y-35424819D02*
X168292857Y-35424819D01*
X182190476Y-61464819D02*
X182190476Y-62179104D01*
X182190476Y-62179104D02*
X182142857Y-62321961D01*
X182142857Y-62321961D02*
X182047619Y-62417200D01*
X182047619Y-62417200D02*
X181904762Y-62464819D01*
X181904762Y-62464819D02*
X181809524Y-62464819D01*
X183190476Y-62464819D02*
X182619048Y-62464819D01*
X182904762Y-62464819D02*
X182904762Y-61464819D01*
X182904762Y-61464819D02*
X182809524Y-61607676D01*
X182809524Y-61607676D02*
X182714286Y-61702914D01*
X182714286Y-61702914D02*
X182619048Y-61750533D01*
X183761905Y-61893390D02*
X183666667Y-61845771D01*
X183666667Y-61845771D02*
X183619048Y-61798152D01*
X183619048Y-61798152D02*
X183571429Y-61702914D01*
X183571429Y-61702914D02*
X183571429Y-61655295D01*
X183571429Y-61655295D02*
X183619048Y-61560057D01*
X183619048Y-61560057D02*
X183666667Y-61512438D01*
X183666667Y-61512438D02*
X183761905Y-61464819D01*
X183761905Y-61464819D02*
X183952381Y-61464819D01*
X183952381Y-61464819D02*
X184047619Y-61512438D01*
X184047619Y-61512438D02*
X184095238Y-61560057D01*
X184095238Y-61560057D02*
X184142857Y-61655295D01*
X184142857Y-61655295D02*
X184142857Y-61702914D01*
X184142857Y-61702914D02*
X184095238Y-61798152D01*
X184095238Y-61798152D02*
X184047619Y-61845771D01*
X184047619Y-61845771D02*
X183952381Y-61893390D01*
X183952381Y-61893390D02*
X183761905Y-61893390D01*
X183761905Y-61893390D02*
X183666667Y-61941009D01*
X183666667Y-61941009D02*
X183619048Y-61988628D01*
X183619048Y-61988628D02*
X183571429Y-62083866D01*
X183571429Y-62083866D02*
X183571429Y-62274342D01*
X183571429Y-62274342D02*
X183619048Y-62369580D01*
X183619048Y-62369580D02*
X183666667Y-62417200D01*
X183666667Y-62417200D02*
X183761905Y-62464819D01*
X183761905Y-62464819D02*
X183952381Y-62464819D01*
X183952381Y-62464819D02*
X184047619Y-62417200D01*
X184047619Y-62417200D02*
X184095238Y-62369580D01*
X184095238Y-62369580D02*
X184142857Y-62274342D01*
X184142857Y-62274342D02*
X184142857Y-62083866D01*
X184142857Y-62083866D02*
X184095238Y-61988628D01*
X184095238Y-61988628D02*
X184047619Y-61941009D01*
X184047619Y-61941009D02*
X183952381Y-61893390D01*
X176490476Y-54649819D02*
X176490476Y-55364104D01*
X176490476Y-55364104D02*
X176442857Y-55506961D01*
X176442857Y-55506961D02*
X176347619Y-55602200D01*
X176347619Y-55602200D02*
X176204762Y-55649819D01*
X176204762Y-55649819D02*
X176109524Y-55649819D01*
X177490476Y-55649819D02*
X176919048Y-55649819D01*
X177204762Y-55649819D02*
X177204762Y-54649819D01*
X177204762Y-54649819D02*
X177109524Y-54792676D01*
X177109524Y-54792676D02*
X177014286Y-54887914D01*
X177014286Y-54887914D02*
X176919048Y-54935533D01*
X178109524Y-54649819D02*
X178204762Y-54649819D01*
X178204762Y-54649819D02*
X178300000Y-54697438D01*
X178300000Y-54697438D02*
X178347619Y-54745057D01*
X178347619Y-54745057D02*
X178395238Y-54840295D01*
X178395238Y-54840295D02*
X178442857Y-55030771D01*
X178442857Y-55030771D02*
X178442857Y-55268866D01*
X178442857Y-55268866D02*
X178395238Y-55459342D01*
X178395238Y-55459342D02*
X178347619Y-55554580D01*
X178347619Y-55554580D02*
X178300000Y-55602200D01*
X178300000Y-55602200D02*
X178204762Y-55649819D01*
X178204762Y-55649819D02*
X178109524Y-55649819D01*
X178109524Y-55649819D02*
X178014286Y-55602200D01*
X178014286Y-55602200D02*
X177966667Y-55554580D01*
X177966667Y-55554580D02*
X177919048Y-55459342D01*
X177919048Y-55459342D02*
X177871429Y-55268866D01*
X177871429Y-55268866D02*
X177871429Y-55030771D01*
X177871429Y-55030771D02*
X177919048Y-54840295D01*
X177919048Y-54840295D02*
X177966667Y-54745057D01*
X177966667Y-54745057D02*
X178014286Y-54697438D01*
X178014286Y-54697438D02*
X178109524Y-54649819D01*
X170990476Y-46724819D02*
X170990476Y-47439104D01*
X170990476Y-47439104D02*
X170942857Y-47581961D01*
X170942857Y-47581961D02*
X170847619Y-47677200D01*
X170847619Y-47677200D02*
X170704762Y-47724819D01*
X170704762Y-47724819D02*
X170609524Y-47724819D01*
X171990476Y-47724819D02*
X171419048Y-47724819D01*
X171704762Y-47724819D02*
X171704762Y-46724819D01*
X171704762Y-46724819D02*
X171609524Y-46867676D01*
X171609524Y-46867676D02*
X171514286Y-46962914D01*
X171514286Y-46962914D02*
X171419048Y-47010533D01*
X172895238Y-46724819D02*
X172419048Y-46724819D01*
X172419048Y-46724819D02*
X172371429Y-47201009D01*
X172371429Y-47201009D02*
X172419048Y-47153390D01*
X172419048Y-47153390D02*
X172514286Y-47105771D01*
X172514286Y-47105771D02*
X172752381Y-47105771D01*
X172752381Y-47105771D02*
X172847619Y-47153390D01*
X172847619Y-47153390D02*
X172895238Y-47201009D01*
X172895238Y-47201009D02*
X172942857Y-47296247D01*
X172942857Y-47296247D02*
X172942857Y-47534342D01*
X172942857Y-47534342D02*
X172895238Y-47629580D01*
X172895238Y-47629580D02*
X172847619Y-47677200D01*
X172847619Y-47677200D02*
X172752381Y-47724819D01*
X172752381Y-47724819D02*
X172514286Y-47724819D01*
X172514286Y-47724819D02*
X172419048Y-47677200D01*
X172419048Y-47677200D02*
X172371429Y-47629580D01*
X170990476Y-34424819D02*
X170990476Y-35139104D01*
X170990476Y-35139104D02*
X170942857Y-35281961D01*
X170942857Y-35281961D02*
X170847619Y-35377200D01*
X170847619Y-35377200D02*
X170704762Y-35424819D01*
X170704762Y-35424819D02*
X170609524Y-35424819D01*
X171990476Y-35424819D02*
X171419048Y-35424819D01*
X171704762Y-35424819D02*
X171704762Y-34424819D01*
X171704762Y-34424819D02*
X171609524Y-34567676D01*
X171609524Y-34567676D02*
X171514286Y-34662914D01*
X171514286Y-34662914D02*
X171419048Y-34710533D01*
X172323810Y-34424819D02*
X172942857Y-34424819D01*
X172942857Y-34424819D02*
X172609524Y-34805771D01*
X172609524Y-34805771D02*
X172752381Y-34805771D01*
X172752381Y-34805771D02*
X172847619Y-34853390D01*
X172847619Y-34853390D02*
X172895238Y-34901009D01*
X172895238Y-34901009D02*
X172942857Y-34996247D01*
X172942857Y-34996247D02*
X172942857Y-35234342D01*
X172942857Y-35234342D02*
X172895238Y-35329580D01*
X172895238Y-35329580D02*
X172847619Y-35377200D01*
X172847619Y-35377200D02*
X172752381Y-35424819D01*
X172752381Y-35424819D02*
X172466667Y-35424819D01*
X172466667Y-35424819D02*
X172371429Y-35377200D01*
X172371429Y-35377200D02*
X172323810Y-35329580D01*
X143319580Y-56646666D02*
X143367200Y-56694285D01*
X143367200Y-56694285D02*
X143414819Y-56837142D01*
X143414819Y-56837142D02*
X143414819Y-56932380D01*
X143414819Y-56932380D02*
X143367200Y-57075237D01*
X143367200Y-57075237D02*
X143271961Y-57170475D01*
X143271961Y-57170475D02*
X143176723Y-57218094D01*
X143176723Y-57218094D02*
X142986247Y-57265713D01*
X142986247Y-57265713D02*
X142843390Y-57265713D01*
X142843390Y-57265713D02*
X142652914Y-57218094D01*
X142652914Y-57218094D02*
X142557676Y-57170475D01*
X142557676Y-57170475D02*
X142462438Y-57075237D01*
X142462438Y-57075237D02*
X142414819Y-56932380D01*
X142414819Y-56932380D02*
X142414819Y-56837142D01*
X142414819Y-56837142D02*
X142462438Y-56694285D01*
X142462438Y-56694285D02*
X142510057Y-56646666D01*
X142414819Y-55789523D02*
X142414819Y-55979999D01*
X142414819Y-55979999D02*
X142462438Y-56075237D01*
X142462438Y-56075237D02*
X142510057Y-56122856D01*
X142510057Y-56122856D02*
X142652914Y-56218094D01*
X142652914Y-56218094D02*
X142843390Y-56265713D01*
X142843390Y-56265713D02*
X143224342Y-56265713D01*
X143224342Y-56265713D02*
X143319580Y-56218094D01*
X143319580Y-56218094D02*
X143367200Y-56170475D01*
X143367200Y-56170475D02*
X143414819Y-56075237D01*
X143414819Y-56075237D02*
X143414819Y-55884761D01*
X143414819Y-55884761D02*
X143367200Y-55789523D01*
X143367200Y-55789523D02*
X143319580Y-55741904D01*
X143319580Y-55741904D02*
X143224342Y-55694285D01*
X143224342Y-55694285D02*
X142986247Y-55694285D01*
X142986247Y-55694285D02*
X142891009Y-55741904D01*
X142891009Y-55741904D02*
X142843390Y-55789523D01*
X142843390Y-55789523D02*
X142795771Y-55884761D01*
X142795771Y-55884761D02*
X142795771Y-56075237D01*
X142795771Y-56075237D02*
X142843390Y-56170475D01*
X142843390Y-56170475D02*
X142891009Y-56218094D01*
X142891009Y-56218094D02*
X142986247Y-56265713D01*
X172677142Y-110299580D02*
X172629523Y-110347200D01*
X172629523Y-110347200D02*
X172486666Y-110394819D01*
X172486666Y-110394819D02*
X172391428Y-110394819D01*
X172391428Y-110394819D02*
X172248571Y-110347200D01*
X172248571Y-110347200D02*
X172153333Y-110251961D01*
X172153333Y-110251961D02*
X172105714Y-110156723D01*
X172105714Y-110156723D02*
X172058095Y-109966247D01*
X172058095Y-109966247D02*
X172058095Y-109823390D01*
X172058095Y-109823390D02*
X172105714Y-109632914D01*
X172105714Y-109632914D02*
X172153333Y-109537676D01*
X172153333Y-109537676D02*
X172248571Y-109442438D01*
X172248571Y-109442438D02*
X172391428Y-109394819D01*
X172391428Y-109394819D02*
X172486666Y-109394819D01*
X172486666Y-109394819D02*
X172629523Y-109442438D01*
X172629523Y-109442438D02*
X172677142Y-109490057D01*
X173629523Y-110394819D02*
X173058095Y-110394819D01*
X173343809Y-110394819D02*
X173343809Y-109394819D01*
X173343809Y-109394819D02*
X173248571Y-109537676D01*
X173248571Y-109537676D02*
X173153333Y-109632914D01*
X173153333Y-109632914D02*
X173058095Y-109680533D01*
X174581904Y-110394819D02*
X174010476Y-110394819D01*
X174296190Y-110394819D02*
X174296190Y-109394819D01*
X174296190Y-109394819D02*
X174200952Y-109537676D01*
X174200952Y-109537676D02*
X174105714Y-109632914D01*
X174105714Y-109632914D02*
X174010476Y-109680533D01*
X176966666Y-98864819D02*
X176966666Y-99579104D01*
X176966666Y-99579104D02*
X176919047Y-99721961D01*
X176919047Y-99721961D02*
X176823809Y-99817200D01*
X176823809Y-99817200D02*
X176680952Y-99864819D01*
X176680952Y-99864819D02*
X176585714Y-99864819D01*
X177585714Y-99293390D02*
X177490476Y-99245771D01*
X177490476Y-99245771D02*
X177442857Y-99198152D01*
X177442857Y-99198152D02*
X177395238Y-99102914D01*
X177395238Y-99102914D02*
X177395238Y-99055295D01*
X177395238Y-99055295D02*
X177442857Y-98960057D01*
X177442857Y-98960057D02*
X177490476Y-98912438D01*
X177490476Y-98912438D02*
X177585714Y-98864819D01*
X177585714Y-98864819D02*
X177776190Y-98864819D01*
X177776190Y-98864819D02*
X177871428Y-98912438D01*
X177871428Y-98912438D02*
X177919047Y-98960057D01*
X177919047Y-98960057D02*
X177966666Y-99055295D01*
X177966666Y-99055295D02*
X177966666Y-99102914D01*
X177966666Y-99102914D02*
X177919047Y-99198152D01*
X177919047Y-99198152D02*
X177871428Y-99245771D01*
X177871428Y-99245771D02*
X177776190Y-99293390D01*
X177776190Y-99293390D02*
X177585714Y-99293390D01*
X177585714Y-99293390D02*
X177490476Y-99341009D01*
X177490476Y-99341009D02*
X177442857Y-99388628D01*
X177442857Y-99388628D02*
X177395238Y-99483866D01*
X177395238Y-99483866D02*
X177395238Y-99674342D01*
X177395238Y-99674342D02*
X177442857Y-99769580D01*
X177442857Y-99769580D02*
X177490476Y-99817200D01*
X177490476Y-99817200D02*
X177585714Y-99864819D01*
X177585714Y-99864819D02*
X177776190Y-99864819D01*
X177776190Y-99864819D02*
X177871428Y-99817200D01*
X177871428Y-99817200D02*
X177919047Y-99769580D01*
X177919047Y-99769580D02*
X177966666Y-99674342D01*
X177966666Y-99674342D02*
X177966666Y-99483866D01*
X177966666Y-99483866D02*
X177919047Y-99388628D01*
X177919047Y-99388628D02*
X177871428Y-99341009D01*
X177871428Y-99341009D02*
X177776190Y-99293390D01*
X139084819Y-53909523D02*
X139799104Y-53909523D01*
X139799104Y-53909523D02*
X139941961Y-53957142D01*
X139941961Y-53957142D02*
X140037200Y-54052380D01*
X140037200Y-54052380D02*
X140084819Y-54195237D01*
X140084819Y-54195237D02*
X140084819Y-54290475D01*
X139180057Y-53480951D02*
X139132438Y-53433332D01*
X139132438Y-53433332D02*
X139084819Y-53338094D01*
X139084819Y-53338094D02*
X139084819Y-53099999D01*
X139084819Y-53099999D02*
X139132438Y-53004761D01*
X139132438Y-53004761D02*
X139180057Y-52957142D01*
X139180057Y-52957142D02*
X139275295Y-52909523D01*
X139275295Y-52909523D02*
X139370533Y-52909523D01*
X139370533Y-52909523D02*
X139513390Y-52957142D01*
X139513390Y-52957142D02*
X140084819Y-53528570D01*
X140084819Y-53528570D02*
X140084819Y-52909523D01*
X140084819Y-51957142D02*
X140084819Y-52528570D01*
X140084819Y-52242856D02*
X139084819Y-52242856D01*
X139084819Y-52242856D02*
X139227676Y-52338094D01*
X139227676Y-52338094D02*
X139322914Y-52433332D01*
X139322914Y-52433332D02*
X139370533Y-52528570D01*
X160104819Y-49224404D02*
X160914342Y-49224404D01*
X160914342Y-49224404D02*
X161009580Y-49176785D01*
X161009580Y-49176785D02*
X161057200Y-49129166D01*
X161057200Y-49129166D02*
X161104819Y-49033928D01*
X161104819Y-49033928D02*
X161104819Y-48843452D01*
X161104819Y-48843452D02*
X161057200Y-48748214D01*
X161057200Y-48748214D02*
X161009580Y-48700595D01*
X161009580Y-48700595D02*
X160914342Y-48652976D01*
X160914342Y-48652976D02*
X160104819Y-48652976D01*
X161104819Y-47652976D02*
X161104819Y-48224404D01*
X161104819Y-47938690D02*
X160104819Y-47938690D01*
X160104819Y-47938690D02*
X160247676Y-48033928D01*
X160247676Y-48033928D02*
X160342914Y-48129166D01*
X160342914Y-48129166D02*
X160390533Y-48224404D01*
X125566666Y-47954819D02*
X125566666Y-48669104D01*
X125566666Y-48669104D02*
X125519047Y-48811961D01*
X125519047Y-48811961D02*
X125423809Y-48907200D01*
X125423809Y-48907200D02*
X125280952Y-48954819D01*
X125280952Y-48954819D02*
X125185714Y-48954819D01*
X126566666Y-48954819D02*
X125995238Y-48954819D01*
X126280952Y-48954819D02*
X126280952Y-47954819D01*
X126280952Y-47954819D02*
X126185714Y-48097676D01*
X126185714Y-48097676D02*
X126090476Y-48192914D01*
X126090476Y-48192914D02*
X125995238Y-48240533D01*
X122924819Y-93833333D02*
X123639104Y-93833333D01*
X123639104Y-93833333D02*
X123781961Y-93880952D01*
X123781961Y-93880952D02*
X123877200Y-93976190D01*
X123877200Y-93976190D02*
X123924819Y-94119047D01*
X123924819Y-94119047D02*
X123924819Y-94214285D01*
X122924819Y-92880952D02*
X122924819Y-93357142D01*
X122924819Y-93357142D02*
X123401009Y-93404761D01*
X123401009Y-93404761D02*
X123353390Y-93357142D01*
X123353390Y-93357142D02*
X123305771Y-93261904D01*
X123305771Y-93261904D02*
X123305771Y-93023809D01*
X123305771Y-93023809D02*
X123353390Y-92928571D01*
X123353390Y-92928571D02*
X123401009Y-92880952D01*
X123401009Y-92880952D02*
X123496247Y-92833333D01*
X123496247Y-92833333D02*
X123734342Y-92833333D01*
X123734342Y-92833333D02*
X123829580Y-92880952D01*
X123829580Y-92880952D02*
X123877200Y-92928571D01*
X123877200Y-92928571D02*
X123924819Y-93023809D01*
X123924819Y-93023809D02*
X123924819Y-93261904D01*
X123924819Y-93261904D02*
X123877200Y-93357142D01*
X123877200Y-93357142D02*
X123829580Y-93404761D01*
X122924819Y-117333333D02*
X123639104Y-117333333D01*
X123639104Y-117333333D02*
X123781961Y-117380952D01*
X123781961Y-117380952D02*
X123877200Y-117476190D01*
X123877200Y-117476190D02*
X123924819Y-117619047D01*
X123924819Y-117619047D02*
X123924819Y-117714285D01*
X123258152Y-116428571D02*
X123924819Y-116428571D01*
X122877200Y-116666666D02*
X123591485Y-116904761D01*
X123591485Y-116904761D02*
X123591485Y-116285714D01*
X158175595Y-41154819D02*
X158175595Y-41964342D01*
X158175595Y-41964342D02*
X158223214Y-42059580D01*
X158223214Y-42059580D02*
X158270833Y-42107200D01*
X158270833Y-42107200D02*
X158366071Y-42154819D01*
X158366071Y-42154819D02*
X158556547Y-42154819D01*
X158556547Y-42154819D02*
X158651785Y-42107200D01*
X158651785Y-42107200D02*
X158699404Y-42059580D01*
X158699404Y-42059580D02*
X158747023Y-41964342D01*
X158747023Y-41964342D02*
X158747023Y-41154819D01*
X159175595Y-41250057D02*
X159223214Y-41202438D01*
X159223214Y-41202438D02*
X159318452Y-41154819D01*
X159318452Y-41154819D02*
X159556547Y-41154819D01*
X159556547Y-41154819D02*
X159651785Y-41202438D01*
X159651785Y-41202438D02*
X159699404Y-41250057D01*
X159699404Y-41250057D02*
X159747023Y-41345295D01*
X159747023Y-41345295D02*
X159747023Y-41440533D01*
X159747023Y-41440533D02*
X159699404Y-41583390D01*
X159699404Y-41583390D02*
X159127976Y-42154819D01*
X159127976Y-42154819D02*
X159747023Y-42154819D01*
X160683333Y-42654819D02*
X160207143Y-42654819D01*
X160207143Y-42654819D02*
X160207143Y-41654819D01*
X161540476Y-42654819D02*
X160969048Y-42654819D01*
X161254762Y-42654819D02*
X161254762Y-41654819D01*
X161254762Y-41654819D02*
X161159524Y-41797676D01*
X161159524Y-41797676D02*
X161064286Y-41892914D01*
X161064286Y-41892914D02*
X160969048Y-41940533D01*
X176966666Y-111224819D02*
X176966666Y-111939104D01*
X176966666Y-111939104D02*
X176919047Y-112081961D01*
X176919047Y-112081961D02*
X176823809Y-112177200D01*
X176823809Y-112177200D02*
X176680952Y-112224819D01*
X176680952Y-112224819D02*
X176585714Y-112224819D01*
X177490476Y-112224819D02*
X177680952Y-112224819D01*
X177680952Y-112224819D02*
X177776190Y-112177200D01*
X177776190Y-112177200D02*
X177823809Y-112129580D01*
X177823809Y-112129580D02*
X177919047Y-111986723D01*
X177919047Y-111986723D02*
X177966666Y-111796247D01*
X177966666Y-111796247D02*
X177966666Y-111415295D01*
X177966666Y-111415295D02*
X177919047Y-111320057D01*
X177919047Y-111320057D02*
X177871428Y-111272438D01*
X177871428Y-111272438D02*
X177776190Y-111224819D01*
X177776190Y-111224819D02*
X177585714Y-111224819D01*
X177585714Y-111224819D02*
X177490476Y-111272438D01*
X177490476Y-111272438D02*
X177442857Y-111320057D01*
X177442857Y-111320057D02*
X177395238Y-111415295D01*
X177395238Y-111415295D02*
X177395238Y-111653390D01*
X177395238Y-111653390D02*
X177442857Y-111748628D01*
X177442857Y-111748628D02*
X177490476Y-111796247D01*
X177490476Y-111796247D02*
X177585714Y-111843866D01*
X177585714Y-111843866D02*
X177776190Y-111843866D01*
X177776190Y-111843866D02*
X177871428Y-111796247D01*
X177871428Y-111796247D02*
X177919047Y-111748628D01*
X177919047Y-111748628D02*
X177966666Y-111653390D01*
X161499580Y-43246666D02*
X161547200Y-43294285D01*
X161547200Y-43294285D02*
X161594819Y-43437142D01*
X161594819Y-43437142D02*
X161594819Y-43532380D01*
X161594819Y-43532380D02*
X161547200Y-43675237D01*
X161547200Y-43675237D02*
X161451961Y-43770475D01*
X161451961Y-43770475D02*
X161356723Y-43818094D01*
X161356723Y-43818094D02*
X161166247Y-43865713D01*
X161166247Y-43865713D02*
X161023390Y-43865713D01*
X161023390Y-43865713D02*
X160832914Y-43818094D01*
X160832914Y-43818094D02*
X160737676Y-43770475D01*
X160737676Y-43770475D02*
X160642438Y-43675237D01*
X160642438Y-43675237D02*
X160594819Y-43532380D01*
X160594819Y-43532380D02*
X160594819Y-43437142D01*
X160594819Y-43437142D02*
X160642438Y-43294285D01*
X160642438Y-43294285D02*
X160690057Y-43246666D01*
X160690057Y-42865713D02*
X160642438Y-42818094D01*
X160642438Y-42818094D02*
X160594819Y-42722856D01*
X160594819Y-42722856D02*
X160594819Y-42484761D01*
X160594819Y-42484761D02*
X160642438Y-42389523D01*
X160642438Y-42389523D02*
X160690057Y-42341904D01*
X160690057Y-42341904D02*
X160785295Y-42294285D01*
X160785295Y-42294285D02*
X160880533Y-42294285D01*
X160880533Y-42294285D02*
X161023390Y-42341904D01*
X161023390Y-42341904D02*
X161594819Y-42913332D01*
X161594819Y-42913332D02*
X161594819Y-42294285D01*
X154499580Y-53646666D02*
X154547200Y-53694285D01*
X154547200Y-53694285D02*
X154594819Y-53837142D01*
X154594819Y-53837142D02*
X154594819Y-53932380D01*
X154594819Y-53932380D02*
X154547200Y-54075237D01*
X154547200Y-54075237D02*
X154451961Y-54170475D01*
X154451961Y-54170475D02*
X154356723Y-54218094D01*
X154356723Y-54218094D02*
X154166247Y-54265713D01*
X154166247Y-54265713D02*
X154023390Y-54265713D01*
X154023390Y-54265713D02*
X153832914Y-54218094D01*
X153832914Y-54218094D02*
X153737676Y-54170475D01*
X153737676Y-54170475D02*
X153642438Y-54075237D01*
X153642438Y-54075237D02*
X153594819Y-53932380D01*
X153594819Y-53932380D02*
X153594819Y-53837142D01*
X153594819Y-53837142D02*
X153642438Y-53694285D01*
X153642438Y-53694285D02*
X153690057Y-53646666D01*
X153594819Y-53313332D02*
X153594819Y-52646666D01*
X153594819Y-52646666D02*
X154594819Y-53075237D01*
X182190476Y-92004819D02*
X182190476Y-92719104D01*
X182190476Y-92719104D02*
X182142857Y-92861961D01*
X182142857Y-92861961D02*
X182047619Y-92957200D01*
X182047619Y-92957200D02*
X181904762Y-93004819D01*
X181904762Y-93004819D02*
X181809524Y-93004819D01*
X182619048Y-92100057D02*
X182666667Y-92052438D01*
X182666667Y-92052438D02*
X182761905Y-92004819D01*
X182761905Y-92004819D02*
X183000000Y-92004819D01*
X183000000Y-92004819D02*
X183095238Y-92052438D01*
X183095238Y-92052438D02*
X183142857Y-92100057D01*
X183142857Y-92100057D02*
X183190476Y-92195295D01*
X183190476Y-92195295D02*
X183190476Y-92290533D01*
X183190476Y-92290533D02*
X183142857Y-92433390D01*
X183142857Y-92433390D02*
X182571429Y-93004819D01*
X182571429Y-93004819D02*
X183190476Y-93004819D01*
X183809524Y-92004819D02*
X183904762Y-92004819D01*
X183904762Y-92004819D02*
X184000000Y-92052438D01*
X184000000Y-92052438D02*
X184047619Y-92100057D01*
X184047619Y-92100057D02*
X184095238Y-92195295D01*
X184095238Y-92195295D02*
X184142857Y-92385771D01*
X184142857Y-92385771D02*
X184142857Y-92623866D01*
X184142857Y-92623866D02*
X184095238Y-92814342D01*
X184095238Y-92814342D02*
X184047619Y-92909580D01*
X184047619Y-92909580D02*
X184000000Y-92957200D01*
X184000000Y-92957200D02*
X183904762Y-93004819D01*
X183904762Y-93004819D02*
X183809524Y-93004819D01*
X183809524Y-93004819D02*
X183714286Y-92957200D01*
X183714286Y-92957200D02*
X183666667Y-92909580D01*
X183666667Y-92909580D02*
X183619048Y-92814342D01*
X183619048Y-92814342D02*
X183571429Y-92623866D01*
X183571429Y-92623866D02*
X183571429Y-92385771D01*
X183571429Y-92385771D02*
X183619048Y-92195295D01*
X183619048Y-92195295D02*
X183666667Y-92100057D01*
X183666667Y-92100057D02*
X183714286Y-92052438D01*
X183714286Y-92052438D02*
X183809524Y-92004819D01*
X162083333Y-45779580D02*
X162035714Y-45827200D01*
X162035714Y-45827200D02*
X161892857Y-45874819D01*
X161892857Y-45874819D02*
X161797619Y-45874819D01*
X161797619Y-45874819D02*
X161654762Y-45827200D01*
X161654762Y-45827200D02*
X161559524Y-45731961D01*
X161559524Y-45731961D02*
X161511905Y-45636723D01*
X161511905Y-45636723D02*
X161464286Y-45446247D01*
X161464286Y-45446247D02*
X161464286Y-45303390D01*
X161464286Y-45303390D02*
X161511905Y-45112914D01*
X161511905Y-45112914D02*
X161559524Y-45017676D01*
X161559524Y-45017676D02*
X161654762Y-44922438D01*
X161654762Y-44922438D02*
X161797619Y-44874819D01*
X161797619Y-44874819D02*
X161892857Y-44874819D01*
X161892857Y-44874819D02*
X162035714Y-44922438D01*
X162035714Y-44922438D02*
X162083333Y-44970057D01*
X162559524Y-45874819D02*
X162750000Y-45874819D01*
X162750000Y-45874819D02*
X162845238Y-45827200D01*
X162845238Y-45827200D02*
X162892857Y-45779580D01*
X162892857Y-45779580D02*
X162988095Y-45636723D01*
X162988095Y-45636723D02*
X163035714Y-45446247D01*
X163035714Y-45446247D02*
X163035714Y-45065295D01*
X163035714Y-45065295D02*
X162988095Y-44970057D01*
X162988095Y-44970057D02*
X162940476Y-44922438D01*
X162940476Y-44922438D02*
X162845238Y-44874819D01*
X162845238Y-44874819D02*
X162654762Y-44874819D01*
X162654762Y-44874819D02*
X162559524Y-44922438D01*
X162559524Y-44922438D02*
X162511905Y-44970057D01*
X162511905Y-44970057D02*
X162464286Y-45065295D01*
X162464286Y-45065295D02*
X162464286Y-45303390D01*
X162464286Y-45303390D02*
X162511905Y-45398628D01*
X162511905Y-45398628D02*
X162559524Y-45446247D01*
X162559524Y-45446247D02*
X162654762Y-45493866D01*
X162654762Y-45493866D02*
X162845238Y-45493866D01*
X162845238Y-45493866D02*
X162940476Y-45446247D01*
X162940476Y-45446247D02*
X162988095Y-45398628D01*
X162988095Y-45398628D02*
X163035714Y-45303390D01*
X176966666Y-84064819D02*
X176966666Y-84779104D01*
X176966666Y-84779104D02*
X176919047Y-84921961D01*
X176919047Y-84921961D02*
X176823809Y-85017200D01*
X176823809Y-85017200D02*
X176680952Y-85064819D01*
X176680952Y-85064819D02*
X176585714Y-85064819D01*
X177871428Y-84064819D02*
X177680952Y-84064819D01*
X177680952Y-84064819D02*
X177585714Y-84112438D01*
X177585714Y-84112438D02*
X177538095Y-84160057D01*
X177538095Y-84160057D02*
X177442857Y-84302914D01*
X177442857Y-84302914D02*
X177395238Y-84493390D01*
X177395238Y-84493390D02*
X177395238Y-84874342D01*
X177395238Y-84874342D02*
X177442857Y-84969580D01*
X177442857Y-84969580D02*
X177490476Y-85017200D01*
X177490476Y-85017200D02*
X177585714Y-85064819D01*
X177585714Y-85064819D02*
X177776190Y-85064819D01*
X177776190Y-85064819D02*
X177871428Y-85017200D01*
X177871428Y-85017200D02*
X177919047Y-84969580D01*
X177919047Y-84969580D02*
X177966666Y-84874342D01*
X177966666Y-84874342D02*
X177966666Y-84636247D01*
X177966666Y-84636247D02*
X177919047Y-84541009D01*
X177919047Y-84541009D02*
X177871428Y-84493390D01*
X177871428Y-84493390D02*
X177776190Y-84445771D01*
X177776190Y-84445771D02*
X177585714Y-84445771D01*
X177585714Y-84445771D02*
X177490476Y-84493390D01*
X177490476Y-84493390D02*
X177442857Y-84541009D01*
X177442857Y-84541009D02*
X177395238Y-84636247D01*
X145454819Y-49238094D02*
X144454819Y-49238094D01*
X144454819Y-49238094D02*
X144454819Y-48999999D01*
X144454819Y-48999999D02*
X144502438Y-48857142D01*
X144502438Y-48857142D02*
X144597676Y-48761904D01*
X144597676Y-48761904D02*
X144692914Y-48714285D01*
X144692914Y-48714285D02*
X144883390Y-48666666D01*
X144883390Y-48666666D02*
X145026247Y-48666666D01*
X145026247Y-48666666D02*
X145216723Y-48714285D01*
X145216723Y-48714285D02*
X145311961Y-48761904D01*
X145311961Y-48761904D02*
X145407200Y-48857142D01*
X145407200Y-48857142D02*
X145454819Y-48999999D01*
X145454819Y-48999999D02*
X145454819Y-49238094D01*
X144454819Y-48333332D02*
X144454819Y-47714285D01*
X144454819Y-47714285D02*
X144835771Y-48047618D01*
X144835771Y-48047618D02*
X144835771Y-47904761D01*
X144835771Y-47904761D02*
X144883390Y-47809523D01*
X144883390Y-47809523D02*
X144931009Y-47761904D01*
X144931009Y-47761904D02*
X145026247Y-47714285D01*
X145026247Y-47714285D02*
X145264342Y-47714285D01*
X145264342Y-47714285D02*
X145359580Y-47761904D01*
X145359580Y-47761904D02*
X145407200Y-47809523D01*
X145407200Y-47809523D02*
X145454819Y-47904761D01*
X145454819Y-47904761D02*
X145454819Y-48190475D01*
X145454819Y-48190475D02*
X145407200Y-48285713D01*
X145407200Y-48285713D02*
X145359580Y-48333332D01*
X150833333Y-37109580D02*
X150785714Y-37157200D01*
X150785714Y-37157200D02*
X150642857Y-37204819D01*
X150642857Y-37204819D02*
X150547619Y-37204819D01*
X150547619Y-37204819D02*
X150404762Y-37157200D01*
X150404762Y-37157200D02*
X150309524Y-37061961D01*
X150309524Y-37061961D02*
X150261905Y-36966723D01*
X150261905Y-36966723D02*
X150214286Y-36776247D01*
X150214286Y-36776247D02*
X150214286Y-36633390D01*
X150214286Y-36633390D02*
X150261905Y-36442914D01*
X150261905Y-36442914D02*
X150309524Y-36347676D01*
X150309524Y-36347676D02*
X150404762Y-36252438D01*
X150404762Y-36252438D02*
X150547619Y-36204819D01*
X150547619Y-36204819D02*
X150642857Y-36204819D01*
X150642857Y-36204819D02*
X150785714Y-36252438D01*
X150785714Y-36252438D02*
X150833333Y-36300057D01*
X151738095Y-36204819D02*
X151261905Y-36204819D01*
X151261905Y-36204819D02*
X151214286Y-36681009D01*
X151214286Y-36681009D02*
X151261905Y-36633390D01*
X151261905Y-36633390D02*
X151357143Y-36585771D01*
X151357143Y-36585771D02*
X151595238Y-36585771D01*
X151595238Y-36585771D02*
X151690476Y-36633390D01*
X151690476Y-36633390D02*
X151738095Y-36681009D01*
X151738095Y-36681009D02*
X151785714Y-36776247D01*
X151785714Y-36776247D02*
X151785714Y-37014342D01*
X151785714Y-37014342D02*
X151738095Y-37109580D01*
X151738095Y-37109580D02*
X151690476Y-37157200D01*
X151690476Y-37157200D02*
X151595238Y-37204819D01*
X151595238Y-37204819D02*
X151357143Y-37204819D01*
X151357143Y-37204819D02*
X151261905Y-37157200D01*
X151261905Y-37157200D02*
X151214286Y-37109580D01*
X152083333Y-54179580D02*
X152035714Y-54227200D01*
X152035714Y-54227200D02*
X151892857Y-54274819D01*
X151892857Y-54274819D02*
X151797619Y-54274819D01*
X151797619Y-54274819D02*
X151654762Y-54227200D01*
X151654762Y-54227200D02*
X151559524Y-54131961D01*
X151559524Y-54131961D02*
X151511905Y-54036723D01*
X151511905Y-54036723D02*
X151464286Y-53846247D01*
X151464286Y-53846247D02*
X151464286Y-53703390D01*
X151464286Y-53703390D02*
X151511905Y-53512914D01*
X151511905Y-53512914D02*
X151559524Y-53417676D01*
X151559524Y-53417676D02*
X151654762Y-53322438D01*
X151654762Y-53322438D02*
X151797619Y-53274819D01*
X151797619Y-53274819D02*
X151892857Y-53274819D01*
X151892857Y-53274819D02*
X152035714Y-53322438D01*
X152035714Y-53322438D02*
X152083333Y-53370057D01*
X152940476Y-53608152D02*
X152940476Y-54274819D01*
X152702381Y-53227200D02*
X152464286Y-53941485D01*
X152464286Y-53941485D02*
X153083333Y-53941485D01*
X145454819Y-41238094D02*
X144454819Y-41238094D01*
X144454819Y-41238094D02*
X144454819Y-40999999D01*
X144454819Y-40999999D02*
X144502438Y-40857142D01*
X144502438Y-40857142D02*
X144597676Y-40761904D01*
X144597676Y-40761904D02*
X144692914Y-40714285D01*
X144692914Y-40714285D02*
X144883390Y-40666666D01*
X144883390Y-40666666D02*
X145026247Y-40666666D01*
X145026247Y-40666666D02*
X145216723Y-40714285D01*
X145216723Y-40714285D02*
X145311961Y-40761904D01*
X145311961Y-40761904D02*
X145407200Y-40857142D01*
X145407200Y-40857142D02*
X145454819Y-40999999D01*
X145454819Y-40999999D02*
X145454819Y-41238094D01*
X145454819Y-39714285D02*
X145454819Y-40285713D01*
X145454819Y-39999999D02*
X144454819Y-39999999D01*
X144454819Y-39999999D02*
X144597676Y-40095237D01*
X144597676Y-40095237D02*
X144692914Y-40190475D01*
X144692914Y-40190475D02*
X144740533Y-40285713D01*
X166340476Y-46724819D02*
X166340476Y-47439104D01*
X166340476Y-47439104D02*
X166292857Y-47581961D01*
X166292857Y-47581961D02*
X166197619Y-47677200D01*
X166197619Y-47677200D02*
X166054762Y-47724819D01*
X166054762Y-47724819D02*
X165959524Y-47724819D01*
X167340476Y-47724819D02*
X166769048Y-47724819D01*
X167054762Y-47724819D02*
X167054762Y-46724819D01*
X167054762Y-46724819D02*
X166959524Y-46867676D01*
X166959524Y-46867676D02*
X166864286Y-46962914D01*
X166864286Y-46962914D02*
X166769048Y-47010533D01*
X168197619Y-47058152D02*
X168197619Y-47724819D01*
X167959524Y-46677200D02*
X167721429Y-47391485D01*
X167721429Y-47391485D02*
X168340476Y-47391485D01*
X147383333Y-50609580D02*
X147335714Y-50657200D01*
X147335714Y-50657200D02*
X147192857Y-50704819D01*
X147192857Y-50704819D02*
X147097619Y-50704819D01*
X147097619Y-50704819D02*
X146954762Y-50657200D01*
X146954762Y-50657200D02*
X146859524Y-50561961D01*
X146859524Y-50561961D02*
X146811905Y-50466723D01*
X146811905Y-50466723D02*
X146764286Y-50276247D01*
X146764286Y-50276247D02*
X146764286Y-50133390D01*
X146764286Y-50133390D02*
X146811905Y-49942914D01*
X146811905Y-49942914D02*
X146859524Y-49847676D01*
X146859524Y-49847676D02*
X146954762Y-49752438D01*
X146954762Y-49752438D02*
X147097619Y-49704819D01*
X147097619Y-49704819D02*
X147192857Y-49704819D01*
X147192857Y-49704819D02*
X147335714Y-49752438D01*
X147335714Y-49752438D02*
X147383333Y-49800057D01*
X148335714Y-50704819D02*
X147764286Y-50704819D01*
X148050000Y-50704819D02*
X148050000Y-49704819D01*
X148050000Y-49704819D02*
X147954762Y-49847676D01*
X147954762Y-49847676D02*
X147859524Y-49942914D01*
X147859524Y-49942914D02*
X147764286Y-49990533D01*
X122944819Y-86333333D02*
X123659104Y-86333333D01*
X123659104Y-86333333D02*
X123801961Y-86380952D01*
X123801961Y-86380952D02*
X123897200Y-86476190D01*
X123897200Y-86476190D02*
X123944819Y-86619047D01*
X123944819Y-86619047D02*
X123944819Y-86714285D01*
X122944819Y-85952380D02*
X122944819Y-85333333D01*
X122944819Y-85333333D02*
X123325771Y-85666666D01*
X123325771Y-85666666D02*
X123325771Y-85523809D01*
X123325771Y-85523809D02*
X123373390Y-85428571D01*
X123373390Y-85428571D02*
X123421009Y-85380952D01*
X123421009Y-85380952D02*
X123516247Y-85333333D01*
X123516247Y-85333333D02*
X123754342Y-85333333D01*
X123754342Y-85333333D02*
X123849580Y-85380952D01*
X123849580Y-85380952D02*
X123897200Y-85428571D01*
X123897200Y-85428571D02*
X123944819Y-85523809D01*
X123944819Y-85523809D02*
X123944819Y-85809523D01*
X123944819Y-85809523D02*
X123897200Y-85904761D01*
X123897200Y-85904761D02*
X123849580Y-85952380D01*
X182190476Y-46004819D02*
X182190476Y-46719104D01*
X182190476Y-46719104D02*
X182142857Y-46861961D01*
X182142857Y-46861961D02*
X182047619Y-46957200D01*
X182047619Y-46957200D02*
X181904762Y-47004819D01*
X181904762Y-47004819D02*
X181809524Y-47004819D01*
X183190476Y-47004819D02*
X182619048Y-47004819D01*
X182904762Y-47004819D02*
X182904762Y-46004819D01*
X182904762Y-46004819D02*
X182809524Y-46147676D01*
X182809524Y-46147676D02*
X182714286Y-46242914D01*
X182714286Y-46242914D02*
X182619048Y-46290533D01*
X183523810Y-46004819D02*
X184190476Y-46004819D01*
X184190476Y-46004819D02*
X183761905Y-47004819D01*
X172677142Y-114299580D02*
X172629523Y-114347200D01*
X172629523Y-114347200D02*
X172486666Y-114394819D01*
X172486666Y-114394819D02*
X172391428Y-114394819D01*
X172391428Y-114394819D02*
X172248571Y-114347200D01*
X172248571Y-114347200D02*
X172153333Y-114251961D01*
X172153333Y-114251961D02*
X172105714Y-114156723D01*
X172105714Y-114156723D02*
X172058095Y-113966247D01*
X172058095Y-113966247D02*
X172058095Y-113823390D01*
X172058095Y-113823390D02*
X172105714Y-113632914D01*
X172105714Y-113632914D02*
X172153333Y-113537676D01*
X172153333Y-113537676D02*
X172248571Y-113442438D01*
X172248571Y-113442438D02*
X172391428Y-113394819D01*
X172391428Y-113394819D02*
X172486666Y-113394819D01*
X172486666Y-113394819D02*
X172629523Y-113442438D01*
X172629523Y-113442438D02*
X172677142Y-113490057D01*
X173629523Y-114394819D02*
X173058095Y-114394819D01*
X173343809Y-114394819D02*
X173343809Y-113394819D01*
X173343809Y-113394819D02*
X173248571Y-113537676D01*
X173248571Y-113537676D02*
X173153333Y-113632914D01*
X173153333Y-113632914D02*
X173058095Y-113680533D01*
X173962857Y-113394819D02*
X174581904Y-113394819D01*
X174581904Y-113394819D02*
X174248571Y-113775771D01*
X174248571Y-113775771D02*
X174391428Y-113775771D01*
X174391428Y-113775771D02*
X174486666Y-113823390D01*
X174486666Y-113823390D02*
X174534285Y-113871009D01*
X174534285Y-113871009D02*
X174581904Y-113966247D01*
X174581904Y-113966247D02*
X174581904Y-114204342D01*
X174581904Y-114204342D02*
X174534285Y-114299580D01*
X174534285Y-114299580D02*
X174486666Y-114347200D01*
X174486666Y-114347200D02*
X174391428Y-114394819D01*
X174391428Y-114394819D02*
X174105714Y-114394819D01*
X174105714Y-114394819D02*
X174010476Y-114347200D01*
X174010476Y-114347200D02*
X173962857Y-114299580D01*
X123884819Y-53433333D02*
X124599104Y-53433333D01*
X124599104Y-53433333D02*
X124741961Y-53480952D01*
X124741961Y-53480952D02*
X124837200Y-53576190D01*
X124837200Y-53576190D02*
X124884819Y-53719047D01*
X124884819Y-53719047D02*
X124884819Y-53814285D01*
X123980057Y-53004761D02*
X123932438Y-52957142D01*
X123932438Y-52957142D02*
X123884819Y-52861904D01*
X123884819Y-52861904D02*
X123884819Y-52623809D01*
X123884819Y-52623809D02*
X123932438Y-52528571D01*
X123932438Y-52528571D02*
X123980057Y-52480952D01*
X123980057Y-52480952D02*
X124075295Y-52433333D01*
X124075295Y-52433333D02*
X124170533Y-52433333D01*
X124170533Y-52433333D02*
X124313390Y-52480952D01*
X124313390Y-52480952D02*
X124884819Y-53052380D01*
X124884819Y-53052380D02*
X124884819Y-52433333D01*
X161607142Y-48279580D02*
X161559523Y-48327200D01*
X161559523Y-48327200D02*
X161416666Y-48374819D01*
X161416666Y-48374819D02*
X161321428Y-48374819D01*
X161321428Y-48374819D02*
X161178571Y-48327200D01*
X161178571Y-48327200D02*
X161083333Y-48231961D01*
X161083333Y-48231961D02*
X161035714Y-48136723D01*
X161035714Y-48136723D02*
X160988095Y-47946247D01*
X160988095Y-47946247D02*
X160988095Y-47803390D01*
X160988095Y-47803390D02*
X161035714Y-47612914D01*
X161035714Y-47612914D02*
X161083333Y-47517676D01*
X161083333Y-47517676D02*
X161178571Y-47422438D01*
X161178571Y-47422438D02*
X161321428Y-47374819D01*
X161321428Y-47374819D02*
X161416666Y-47374819D01*
X161416666Y-47374819D02*
X161559523Y-47422438D01*
X161559523Y-47422438D02*
X161607142Y-47470057D01*
X162559523Y-48374819D02*
X161988095Y-48374819D01*
X162273809Y-48374819D02*
X162273809Y-47374819D01*
X162273809Y-47374819D02*
X162178571Y-47517676D01*
X162178571Y-47517676D02*
X162083333Y-47612914D01*
X162083333Y-47612914D02*
X161988095Y-47660533D01*
X163178571Y-47374819D02*
X163273809Y-47374819D01*
X163273809Y-47374819D02*
X163369047Y-47422438D01*
X163369047Y-47422438D02*
X163416666Y-47470057D01*
X163416666Y-47470057D02*
X163464285Y-47565295D01*
X163464285Y-47565295D02*
X163511904Y-47755771D01*
X163511904Y-47755771D02*
X163511904Y-47993866D01*
X163511904Y-47993866D02*
X163464285Y-48184342D01*
X163464285Y-48184342D02*
X163416666Y-48279580D01*
X163416666Y-48279580D02*
X163369047Y-48327200D01*
X163369047Y-48327200D02*
X163273809Y-48374819D01*
X163273809Y-48374819D02*
X163178571Y-48374819D01*
X163178571Y-48374819D02*
X163083333Y-48327200D01*
X163083333Y-48327200D02*
X163035714Y-48279580D01*
X163035714Y-48279580D02*
X162988095Y-48184342D01*
X162988095Y-48184342D02*
X162940476Y-47993866D01*
X162940476Y-47993866D02*
X162940476Y-47755771D01*
X162940476Y-47755771D02*
X162988095Y-47565295D01*
X162988095Y-47565295D02*
X163035714Y-47470057D01*
X163035714Y-47470057D02*
X163083333Y-47422438D01*
X163083333Y-47422438D02*
X163178571Y-47374819D01*
D11*
%TO.C,J16*%
X175970000Y-40730000D02*
X177300000Y-40730000D01*
X175970000Y-42060000D02*
X175970000Y-40730000D01*
X175970000Y-43330000D02*
X175970000Y-53550000D01*
X175970000Y-43330000D02*
X178630000Y-43330000D01*
X175970000Y-53550000D02*
X178630000Y-53550000D01*
X178630000Y-43330000D02*
X178630000Y-53550000D01*
%TO.C,C3*%
X151988748Y-52265000D02*
X152511252Y-52265000D01*
X151988748Y-53735000D02*
X152511252Y-53735000D01*
%TO.C,C8*%
X158172164Y-51240000D02*
X158387836Y-51240000D01*
X158172164Y-51960000D02*
X158387836Y-51960000D01*
%TO.C,L3*%
X158115000Y-53240000D02*
X158115000Y-54590000D01*
X158115000Y-53240000D02*
X163485000Y-53240000D01*
X158115000Y-58960000D02*
X158115000Y-57610000D01*
X158115000Y-58960000D02*
X163485000Y-58960000D01*
X163485000Y-53240000D02*
X163485000Y-54590000D01*
X163485000Y-58960000D02*
X163485000Y-57610000D01*
%TO.C,C12*%
X173212164Y-112740000D02*
X173427836Y-112740000D01*
X173212164Y-113460000D02*
X173427836Y-113460000D01*
%TO.C,J7*%
X124490000Y-63930000D02*
X124490000Y-62600000D01*
X125820000Y-63930000D02*
X124490000Y-63930000D01*
X127090000Y-61270000D02*
X172870000Y-61270000D01*
X127090000Y-63930000D02*
X127090000Y-61270000D01*
X127090000Y-63930000D02*
X172870000Y-63930000D01*
X172870000Y-63930000D02*
X172870000Y-61270000D01*
%TO.C,J11*%
X175970000Y-70730000D02*
X177300000Y-70730000D01*
X175970000Y-72060000D02*
X175970000Y-70730000D01*
X175970000Y-73330000D02*
X175970000Y-83550000D01*
X175970000Y-73330000D02*
X178630000Y-73330000D01*
X175970000Y-83550000D02*
X178630000Y-83550000D01*
X178630000Y-73330000D02*
X178630000Y-83550000D01*
%TO.C,J19*%
X181670000Y-78010000D02*
X183000000Y-78010000D01*
X181670000Y-79340000D02*
X181670000Y-78010000D01*
X181670000Y-80610000D02*
X181670000Y-90830000D01*
X181670000Y-80610000D02*
X184330000Y-80610000D01*
X181670000Y-90830000D02*
X184330000Y-90830000D01*
X184330000Y-80610000D02*
X184330000Y-90830000D01*
%TO.C,J12*%
X165820000Y-35970000D02*
X167150000Y-35970000D01*
X165820000Y-37300000D02*
X165820000Y-35970000D01*
X165820000Y-38570000D02*
X165820000Y-46250000D01*
X165820000Y-38570000D02*
X168480000Y-38570000D01*
X165820000Y-46250000D02*
X168480000Y-46250000D01*
X168480000Y-38570000D02*
X168480000Y-46250000D01*
%TO.C,J18*%
X181670000Y-63010000D02*
X183000000Y-63010000D01*
X181670000Y-64340000D02*
X181670000Y-63010000D01*
X181670000Y-65610000D02*
X181670000Y-75830000D01*
X181670000Y-65610000D02*
X184330000Y-65610000D01*
X181670000Y-75830000D02*
X184330000Y-75830000D01*
X184330000Y-65610000D02*
X184330000Y-75830000D01*
%TO.C,J10*%
X175970000Y-56195000D02*
X177300000Y-56195000D01*
X175970000Y-57525000D02*
X175970000Y-56195000D01*
X175970000Y-58795000D02*
X175970000Y-69015000D01*
X175970000Y-58795000D02*
X178630000Y-58795000D01*
X175970000Y-69015000D02*
X178630000Y-69015000D01*
X178630000Y-58795000D02*
X178630000Y-69015000D01*
%TO.C,J15*%
X170470000Y-48270000D02*
X171800000Y-48270000D01*
X170470000Y-49600000D02*
X170470000Y-48270000D01*
X170470000Y-50870000D02*
X170470000Y-58550000D01*
X170470000Y-50870000D02*
X173130000Y-50870000D01*
X170470000Y-58550000D02*
X173130000Y-58550000D01*
X173130000Y-50870000D02*
X173130000Y-58550000D01*
%TO.C,J13*%
X170470000Y-35970000D02*
X171800000Y-35970000D01*
X170470000Y-37300000D02*
X170470000Y-35970000D01*
X170470000Y-38570000D02*
X170470000Y-46250000D01*
X170470000Y-38570000D02*
X173130000Y-38570000D01*
X170470000Y-46250000D02*
X173130000Y-46250000D01*
X173130000Y-38570000D02*
X173130000Y-46250000D01*
%TO.C,C6*%
X141440000Y-56372164D02*
X141440000Y-56587836D01*
X142160000Y-56372164D02*
X142160000Y-56587836D01*
%TO.C,C11*%
X173212164Y-110740000D02*
X173427836Y-110740000D01*
X173212164Y-111460000D02*
X173427836Y-111460000D01*
%TO.C,J8*%
X175970000Y-100410000D02*
X177300000Y-100410000D01*
X175970000Y-101740000D02*
X175970000Y-100410000D01*
X175970000Y-103010000D02*
X175970000Y-110690000D01*
X175970000Y-103010000D02*
X178630000Y-103010000D01*
X175970000Y-110690000D02*
X178630000Y-110690000D01*
X178630000Y-103010000D02*
X178630000Y-110690000D01*
%TO.C,J21*%
X133430000Y-51770000D02*
X133430000Y-54430000D01*
X136030000Y-51770000D02*
X133430000Y-51770000D01*
X136030000Y-51770000D02*
X136030000Y-54430000D01*
X136030000Y-54430000D02*
X133430000Y-54430000D01*
X137300000Y-51770000D02*
X138630000Y-51770000D01*
X138630000Y-51770000D02*
X138630000Y-53100000D01*
%TO.C,U1*%
X156690000Y-48462500D02*
X156690000Y-47662500D01*
X156690000Y-48462500D02*
X156690000Y-49262500D01*
X159810000Y-48462500D02*
X159810000Y-47662500D01*
X159810000Y-48462500D02*
X159810000Y-49262500D01*
X160090000Y-47402500D02*
X159760000Y-47162500D01*
X160090000Y-46922500D01*
X160090000Y-47402500D01*
G36*
X160090000Y-47402500D02*
G01*
X159760000Y-47162500D01*
X160090000Y-46922500D01*
X160090000Y-47402500D01*
G37*
%TO.C,J1*%
X124290000Y-37440000D02*
X127900000Y-37440000D01*
X124290000Y-46560000D02*
X124290000Y-37440000D01*
X124290000Y-46560000D02*
X127900000Y-46560000D01*
X127600000Y-39000000D02*
X132400000Y-39000000D01*
X127600000Y-45000000D02*
X132400000Y-45000000D01*
X127600000Y-46560000D02*
X127600000Y-37440000D01*
X128140000Y-34740000D02*
X128140000Y-36640000D01*
X129480000Y-34740000D02*
X128140000Y-34740000D01*
X130900000Y-37440000D02*
X133900000Y-37440000D01*
X130900000Y-46560000D02*
X133900000Y-46560000D01*
X136900000Y-37440000D02*
X139210000Y-37440000D01*
X136900000Y-46560000D02*
X139210000Y-46560000D01*
X139210000Y-46560000D02*
X139210000Y-37440000D01*
X132400000Y-39000000D02*
G75*
G02*
X132400000Y-45000000I0J-3000000D01*
G01*
%TO.C,J5*%
X124470000Y-94830000D02*
X124470000Y-93500000D01*
X125800000Y-94830000D02*
X124470000Y-94830000D01*
X127070000Y-92170000D02*
X172850000Y-92170000D01*
X127070000Y-94830000D02*
X127070000Y-92170000D01*
X127070000Y-94830000D02*
X172850000Y-94830000D01*
X172850000Y-94830000D02*
X172850000Y-92170000D01*
%TO.C,J4*%
X124470000Y-118330000D02*
X124470000Y-117000000D01*
X125800000Y-118330000D02*
X124470000Y-118330000D01*
X127070000Y-115670000D02*
X172850000Y-115670000D01*
X127070000Y-118330000D02*
X127070000Y-115670000D01*
X127070000Y-118330000D02*
X172850000Y-118330000D01*
X172850000Y-118330000D02*
X172850000Y-115670000D01*
%TO.C,U2*%
X158937500Y-42540000D02*
X158137500Y-42540000D01*
X158937500Y-42540000D02*
X159737500Y-42540000D01*
X158937500Y-45660000D02*
X158137500Y-45660000D01*
X158937500Y-45660000D02*
X159737500Y-45660000D01*
X157637500Y-42590000D02*
X157397500Y-42260000D01*
X157877500Y-42260000D01*
X157637500Y-42590000D01*
G36*
X157637500Y-42590000D02*
G01*
X157397500Y-42260000D01*
X157877500Y-42260000D01*
X157637500Y-42590000D01*
G37*
%TO.C,L1*%
X158165000Y-35740000D02*
X158165000Y-37090000D01*
X158165000Y-41460000D02*
X158165000Y-40110000D01*
X163535000Y-35740000D02*
X158165000Y-35740000D01*
X163535000Y-35740000D02*
X163535000Y-37090000D01*
X163535000Y-41460000D02*
X158165000Y-41460000D01*
X163535000Y-41460000D02*
X163535000Y-40110000D01*
%TO.C,J9*%
X175970000Y-112770000D02*
X177300000Y-112770000D01*
X175970000Y-114100000D02*
X175970000Y-112770000D01*
X175970000Y-115370000D02*
X175970000Y-120510000D01*
X175970000Y-115370000D02*
X178630000Y-115370000D01*
X175970000Y-120510000D02*
X178630000Y-120510000D01*
X178630000Y-115370000D02*
X178630000Y-120510000D01*
%TO.C,C2*%
X161940000Y-43187836D02*
X161940000Y-42972164D01*
X162660000Y-43187836D02*
X162660000Y-42972164D01*
%TO.C,C7*%
X154940000Y-53587836D02*
X154940000Y-53372164D01*
X155660000Y-53587836D02*
X155660000Y-53372164D01*
%TO.C,J20*%
X181670000Y-93550000D02*
X183000000Y-93550000D01*
X181670000Y-94880000D02*
X181670000Y-93550000D01*
X181670000Y-96150000D02*
X181670000Y-106370000D01*
X181670000Y-96150000D02*
X184330000Y-96150000D01*
X181670000Y-106370000D02*
X184330000Y-106370000D01*
X184330000Y-96150000D02*
X184330000Y-106370000D01*
%TO.C,C9*%
X161988748Y-46365000D02*
X162511252Y-46365000D01*
X161988748Y-47835000D02*
X162511252Y-47835000D01*
%TO.C,J6*%
X175970000Y-85610000D02*
X177300000Y-85610000D01*
X175970000Y-86940000D02*
X175970000Y-85610000D01*
X175970000Y-88210000D02*
X175970000Y-98430000D01*
X175970000Y-88210000D02*
X178630000Y-88210000D01*
X175970000Y-98430000D02*
X178630000Y-98430000D01*
X178630000Y-88210000D02*
X178630000Y-98430000D01*
%TO.C,D3*%
X140850000Y-44990000D02*
X140850000Y-50500000D01*
X144150000Y-44990000D02*
X140850000Y-44990000D01*
X144150000Y-44990000D02*
X144150000Y-50500000D01*
%TO.C,C5*%
X145520354Y-40125000D02*
X146520354Y-40125000D01*
X146020354Y-39625000D02*
X146020354Y-40625000D01*
X151000000Y-37920000D02*
X151000000Y-48080000D01*
X151040000Y-37920000D02*
X151040000Y-48080000D01*
X151080000Y-37920000D02*
X151080000Y-48080000D01*
X151120000Y-37921000D02*
X151120000Y-48079000D01*
X151160000Y-37922000D02*
X151160000Y-48078000D01*
X151200000Y-37923000D02*
X151200000Y-48077000D01*
X151240000Y-37925000D02*
X151240000Y-48075000D01*
X151280000Y-37927000D02*
X151280000Y-48073000D01*
X151320000Y-37930000D02*
X151320000Y-48070000D01*
X151360000Y-37932000D02*
X151360000Y-48068000D01*
X151400000Y-37935000D02*
X151400000Y-48065000D01*
X151440000Y-37938000D02*
X151440000Y-48062000D01*
X151480000Y-37942000D02*
X151480000Y-48058000D01*
X151520000Y-37946000D02*
X151520000Y-48054000D01*
X151560000Y-37950000D02*
X151560000Y-48050000D01*
X151600000Y-37955000D02*
X151600000Y-48045000D01*
X151640000Y-37960000D02*
X151640000Y-48040000D01*
X151680000Y-37965000D02*
X151680000Y-48035000D01*
X151721000Y-37970000D02*
X151721000Y-48030000D01*
X151761000Y-37976000D02*
X151761000Y-48024000D01*
X151801000Y-37982000D02*
X151801000Y-48018000D01*
X151841000Y-37989000D02*
X151841000Y-48011000D01*
X151881000Y-37996000D02*
X151881000Y-48004000D01*
X151921000Y-38003000D02*
X151921000Y-47997000D01*
X151961000Y-38010000D02*
X151961000Y-47990000D01*
X152001000Y-38018000D02*
X152001000Y-47982000D01*
X152041000Y-38026000D02*
X152041000Y-47974000D01*
X152081000Y-38035000D02*
X152081000Y-47965000D01*
X152121000Y-38044000D02*
X152121000Y-47956000D01*
X152161000Y-38053000D02*
X152161000Y-47947000D01*
X152201000Y-38062000D02*
X152201000Y-47938000D01*
X152241000Y-38072000D02*
X152241000Y-47928000D01*
X152281000Y-38082000D02*
X152281000Y-41759000D01*
X152281000Y-44241000D02*
X152281000Y-47918000D01*
X152321000Y-38093000D02*
X152321000Y-41759000D01*
X152321000Y-44241000D02*
X152321000Y-47907000D01*
X152361000Y-38103000D02*
X152361000Y-41759000D01*
X152361000Y-44241000D02*
X152361000Y-47897000D01*
X152401000Y-38115000D02*
X152401000Y-41759000D01*
X152401000Y-44241000D02*
X152401000Y-47885000D01*
X152441000Y-38126000D02*
X152441000Y-41759000D01*
X152441000Y-44241000D02*
X152441000Y-47874000D01*
X152481000Y-38138000D02*
X152481000Y-41759000D01*
X152481000Y-44241000D02*
X152481000Y-47862000D01*
X152521000Y-38150000D02*
X152521000Y-41759000D01*
X152521000Y-44241000D02*
X152521000Y-47850000D01*
X152561000Y-38163000D02*
X152561000Y-41759000D01*
X152561000Y-44241000D02*
X152561000Y-47837000D01*
X152601000Y-38176000D02*
X152601000Y-41759000D01*
X152601000Y-44241000D02*
X152601000Y-47824000D01*
X152641000Y-38189000D02*
X152641000Y-41759000D01*
X152641000Y-44241000D02*
X152641000Y-47811000D01*
X152681000Y-38203000D02*
X152681000Y-41759000D01*
X152681000Y-44241000D02*
X152681000Y-47797000D01*
X152721000Y-38217000D02*
X152721000Y-41759000D01*
X152721000Y-44241000D02*
X152721000Y-47783000D01*
X152761000Y-38232000D02*
X152761000Y-41759000D01*
X152761000Y-44241000D02*
X152761000Y-47768000D01*
X152801000Y-38246000D02*
X152801000Y-41759000D01*
X152801000Y-44241000D02*
X152801000Y-47754000D01*
X152841000Y-38262000D02*
X152841000Y-41759000D01*
X152841000Y-44241000D02*
X152841000Y-47738000D01*
X152881000Y-38277000D02*
X152881000Y-41759000D01*
X152881000Y-44241000D02*
X152881000Y-47723000D01*
X152921000Y-38293000D02*
X152921000Y-41759000D01*
X152921000Y-44241000D02*
X152921000Y-47707000D01*
X152961000Y-38310000D02*
X152961000Y-41759000D01*
X152961000Y-44241000D02*
X152961000Y-47690000D01*
X153001000Y-38326000D02*
X153001000Y-41759000D01*
X153001000Y-44241000D02*
X153001000Y-47674000D01*
X153041000Y-38343000D02*
X153041000Y-41759000D01*
X153041000Y-44241000D02*
X153041000Y-47657000D01*
X153081000Y-38361000D02*
X153081000Y-41759000D01*
X153081000Y-44241000D02*
X153081000Y-47639000D01*
X153121000Y-38379000D02*
X153121000Y-41759000D01*
X153121000Y-44241000D02*
X153121000Y-47621000D01*
X153161000Y-38397000D02*
X153161000Y-41759000D01*
X153161000Y-44241000D02*
X153161000Y-47603000D01*
X153201000Y-38416000D02*
X153201000Y-41759000D01*
X153201000Y-44241000D02*
X153201000Y-47584000D01*
X153241000Y-38436000D02*
X153241000Y-41759000D01*
X153241000Y-44241000D02*
X153241000Y-47564000D01*
X153281000Y-38455000D02*
X153281000Y-41759000D01*
X153281000Y-44241000D02*
X153281000Y-47545000D01*
X153321000Y-38475000D02*
X153321000Y-41759000D01*
X153321000Y-44241000D02*
X153321000Y-47525000D01*
X153361000Y-38496000D02*
X153361000Y-41759000D01*
X153361000Y-44241000D02*
X153361000Y-47504000D01*
X153401000Y-38517000D02*
X153401000Y-41759000D01*
X153401000Y-44241000D02*
X153401000Y-47483000D01*
X153441000Y-38538000D02*
X153441000Y-41759000D01*
X153441000Y-44241000D02*
X153441000Y-47462000D01*
X153481000Y-38560000D02*
X153481000Y-41759000D01*
X153481000Y-44241000D02*
X153481000Y-47440000D01*
X153521000Y-38583000D02*
X153521000Y-41759000D01*
X153521000Y-44241000D02*
X153521000Y-47417000D01*
X153561000Y-38605000D02*
X153561000Y-41759000D01*
X153561000Y-44241000D02*
X153561000Y-47395000D01*
X153601000Y-38629000D02*
X153601000Y-41759000D01*
X153601000Y-44241000D02*
X153601000Y-47371000D01*
X153641000Y-38653000D02*
X153641000Y-41759000D01*
X153641000Y-44241000D02*
X153641000Y-47347000D01*
X153681000Y-38677000D02*
X153681000Y-41759000D01*
X153681000Y-44241000D02*
X153681000Y-47323000D01*
X153721000Y-38702000D02*
X153721000Y-41759000D01*
X153721000Y-44241000D02*
X153721000Y-47298000D01*
X153761000Y-38727000D02*
X153761000Y-41759000D01*
X153761000Y-44241000D02*
X153761000Y-47273000D01*
X153801000Y-38753000D02*
X153801000Y-41759000D01*
X153801000Y-44241000D02*
X153801000Y-47247000D01*
X153841000Y-38779000D02*
X153841000Y-41759000D01*
X153841000Y-44241000D02*
X153841000Y-47221000D01*
X153881000Y-38806000D02*
X153881000Y-41759000D01*
X153881000Y-44241000D02*
X153881000Y-47194000D01*
X153921000Y-38834000D02*
X153921000Y-41759000D01*
X153921000Y-44241000D02*
X153921000Y-47166000D01*
X153961000Y-38862000D02*
X153961000Y-41759000D01*
X153961000Y-44241000D02*
X153961000Y-47138000D01*
X154001000Y-38890000D02*
X154001000Y-41759000D01*
X154001000Y-44241000D02*
X154001000Y-47110000D01*
X154041000Y-38920000D02*
X154041000Y-41759000D01*
X154041000Y-44241000D02*
X154041000Y-47080000D01*
X154081000Y-38950000D02*
X154081000Y-41759000D01*
X154081000Y-44241000D02*
X154081000Y-47050000D01*
X154121000Y-38980000D02*
X154121000Y-41759000D01*
X154121000Y-44241000D02*
X154121000Y-47020000D01*
X154161000Y-39011000D02*
X154161000Y-41759000D01*
X154161000Y-44241000D02*
X154161000Y-46989000D01*
X154201000Y-39043000D02*
X154201000Y-41759000D01*
X154201000Y-44241000D02*
X154201000Y-46957000D01*
X154241000Y-39075000D02*
X154241000Y-41759000D01*
X154241000Y-44241000D02*
X154241000Y-46925000D01*
X154281000Y-39108000D02*
X154281000Y-41759000D01*
X154281000Y-44241000D02*
X154281000Y-46892000D01*
X154321000Y-39142000D02*
X154321000Y-41759000D01*
X154321000Y-44241000D02*
X154321000Y-46858000D01*
X154361000Y-39176000D02*
X154361000Y-41759000D01*
X154361000Y-44241000D02*
X154361000Y-46824000D01*
X154401000Y-39211000D02*
X154401000Y-41759000D01*
X154401000Y-44241000D02*
X154401000Y-46789000D01*
X154441000Y-39247000D02*
X154441000Y-41759000D01*
X154441000Y-44241000D02*
X154441000Y-46753000D01*
X154481000Y-39284000D02*
X154481000Y-41759000D01*
X154481000Y-44241000D02*
X154481000Y-46716000D01*
X154521000Y-39321000D02*
X154521000Y-41759000D01*
X154521000Y-44241000D02*
X154521000Y-46679000D01*
X154561000Y-39360000D02*
X154561000Y-41759000D01*
X154561000Y-44241000D02*
X154561000Y-46640000D01*
X154601000Y-39399000D02*
X154601000Y-41759000D01*
X154601000Y-44241000D02*
X154601000Y-46601000D01*
X154641000Y-39439000D02*
X154641000Y-41759000D01*
X154641000Y-44241000D02*
X154641000Y-46561000D01*
X154681000Y-39480000D02*
X154681000Y-41759000D01*
X154681000Y-44241000D02*
X154681000Y-46520000D01*
X154721000Y-39522000D02*
X154721000Y-41759000D01*
X154721000Y-44241000D02*
X154721000Y-46478000D01*
X154761000Y-39564000D02*
X154761000Y-46436000D01*
X154801000Y-39608000D02*
X154801000Y-46392000D01*
X154841000Y-39653000D02*
X154841000Y-46347000D01*
X154881000Y-39699000D02*
X154881000Y-46301000D01*
X154921000Y-39746000D02*
X154921000Y-46254000D01*
X154961000Y-39794000D02*
X154961000Y-46206000D01*
X155001000Y-39844000D02*
X155001000Y-46156000D01*
X155041000Y-39894000D02*
X155041000Y-46106000D01*
X155081000Y-39946000D02*
X155081000Y-46054000D01*
X155121000Y-40000000D02*
X155121000Y-46000000D01*
X155161000Y-40055000D02*
X155161000Y-45945000D01*
X155201000Y-40111000D02*
X155201000Y-45889000D01*
X155241000Y-40170000D02*
X155241000Y-45830000D01*
X155281000Y-40230000D02*
X155281000Y-45770000D01*
X155321000Y-40291000D02*
X155321000Y-45709000D01*
X155361000Y-40355000D02*
X155361000Y-45645000D01*
X155401000Y-40421000D02*
X155401000Y-45579000D01*
X155441000Y-40490000D02*
X155441000Y-45510000D01*
X155481000Y-40561000D02*
X155481000Y-45439000D01*
X155521000Y-40635000D02*
X155521000Y-45365000D01*
X155561000Y-40711000D02*
X155561000Y-45289000D01*
X155601000Y-40791000D02*
X155601000Y-45209000D01*
X155641000Y-40875000D02*
X155641000Y-45125000D01*
X155681000Y-40963000D02*
X155681000Y-45037000D01*
X155721000Y-41056000D02*
X155721000Y-44944000D01*
X155761000Y-41154000D02*
X155761000Y-44846000D01*
X155801000Y-41258000D02*
X155801000Y-44742000D01*
X155841000Y-41370000D02*
X155841000Y-44630000D01*
X155881000Y-41490000D02*
X155881000Y-44510000D01*
X155921000Y-41622000D02*
X155921000Y-44378000D01*
X155961000Y-41770000D02*
X155961000Y-44230000D01*
X156001000Y-41938000D02*
X156001000Y-44062000D01*
X156041000Y-42138000D02*
X156041000Y-43862000D01*
X156081000Y-42401000D02*
X156081000Y-43599000D01*
X156120000Y-43000000D02*
G75*
G02*
X145880000Y-43000000I-5120000J0D01*
G01*
X145880000Y-43000000D02*
G75*
G02*
X156120000Y-43000000I5120000J0D01*
G01*
%TO.C,C4*%
X151988748Y-54765000D02*
X152511252Y-54765000D01*
X151988748Y-56235000D02*
X152511252Y-56235000D01*
%TO.C,D1*%
X140850000Y-36990000D02*
X140850000Y-42500000D01*
X144150000Y-36990000D02*
X140850000Y-36990000D01*
X144150000Y-36990000D02*
X144150000Y-42500000D01*
%TO.C,J14*%
X165820000Y-48270000D02*
X167150000Y-48270000D01*
X165820000Y-49600000D02*
X165820000Y-48270000D01*
X165820000Y-50870000D02*
X165820000Y-58550000D01*
X165820000Y-50870000D02*
X168480000Y-50870000D01*
X165820000Y-58550000D02*
X168480000Y-58550000D01*
X168480000Y-50870000D02*
X168480000Y-58550000D01*
%TO.C,C1*%
X145280199Y-52305000D02*
X145680199Y-52305000D01*
X145480199Y-52105000D02*
X145480199Y-52505000D01*
X147550000Y-51420000D02*
X147550000Y-52660000D01*
X147550000Y-54340000D02*
X147550000Y-55580000D01*
X147590000Y-51420000D02*
X147590000Y-52660000D01*
X147590000Y-54340000D02*
X147590000Y-55580000D01*
X147630000Y-51421000D02*
X147630000Y-52660000D01*
X147630000Y-54340000D02*
X147630000Y-55579000D01*
X147670000Y-51423000D02*
X147670000Y-52660000D01*
X147670000Y-54340000D02*
X147670000Y-55577000D01*
X147710000Y-51426000D02*
X147710000Y-52660000D01*
X147710000Y-54340000D02*
X147710000Y-55574000D01*
X147750000Y-51429000D02*
X147750000Y-52660000D01*
X147750000Y-54340000D02*
X147750000Y-55571000D01*
X147790000Y-51433000D02*
X147790000Y-52660000D01*
X147790000Y-54340000D02*
X147790000Y-55567000D01*
X147830000Y-51438000D02*
X147830000Y-52660000D01*
X147830000Y-54340000D02*
X147830000Y-55562000D01*
X147870000Y-51444000D02*
X147870000Y-52660000D01*
X147870000Y-54340000D02*
X147870000Y-55556000D01*
X147910000Y-51450000D02*
X147910000Y-52660000D01*
X147910000Y-54340000D02*
X147910000Y-55550000D01*
X147950000Y-51458000D02*
X147950000Y-52660000D01*
X147950000Y-54340000D02*
X147950000Y-55542000D01*
X147990000Y-51466000D02*
X147990000Y-52660000D01*
X147990000Y-54340000D02*
X147990000Y-55534000D01*
X148030000Y-51475000D02*
X148030000Y-52660000D01*
X148030000Y-54340000D02*
X148030000Y-55525000D01*
X148070000Y-51484000D02*
X148070000Y-52660000D01*
X148070000Y-54340000D02*
X148070000Y-55516000D01*
X148110000Y-51495000D02*
X148110000Y-52660000D01*
X148110000Y-54340000D02*
X148110000Y-55505000D01*
X148150000Y-51506000D02*
X148150000Y-52660000D01*
X148150000Y-54340000D02*
X148150000Y-55494000D01*
X148190000Y-51518000D02*
X148190000Y-52660000D01*
X148190000Y-54340000D02*
X148190000Y-55482000D01*
X148230000Y-51532000D02*
X148230000Y-52660000D01*
X148230000Y-54340000D02*
X148230000Y-55468000D01*
X148271000Y-51546000D02*
X148271000Y-52660000D01*
X148271000Y-54340000D02*
X148271000Y-55454000D01*
X148311000Y-51560000D02*
X148311000Y-52660000D01*
X148311000Y-54340000D02*
X148311000Y-55440000D01*
X148351000Y-51576000D02*
X148351000Y-52660000D01*
X148351000Y-54340000D02*
X148351000Y-55424000D01*
X148391000Y-51593000D02*
X148391000Y-52660000D01*
X148391000Y-54340000D02*
X148391000Y-55407000D01*
X148431000Y-51611000D02*
X148431000Y-52660000D01*
X148431000Y-54340000D02*
X148431000Y-55389000D01*
X148471000Y-51630000D02*
X148471000Y-52660000D01*
X148471000Y-54340000D02*
X148471000Y-55370000D01*
X148511000Y-51649000D02*
X148511000Y-52660000D01*
X148511000Y-54340000D02*
X148511000Y-55351000D01*
X148551000Y-51670000D02*
X148551000Y-52660000D01*
X148551000Y-54340000D02*
X148551000Y-55330000D01*
X148591000Y-51692000D02*
X148591000Y-52660000D01*
X148591000Y-54340000D02*
X148591000Y-55308000D01*
X148631000Y-51715000D02*
X148631000Y-52660000D01*
X148631000Y-54340000D02*
X148631000Y-55285000D01*
X148671000Y-51740000D02*
X148671000Y-52660000D01*
X148671000Y-54340000D02*
X148671000Y-55260000D01*
X148711000Y-51765000D02*
X148711000Y-52660000D01*
X148711000Y-54340000D02*
X148711000Y-55235000D01*
X148751000Y-51792000D02*
X148751000Y-52660000D01*
X148751000Y-54340000D02*
X148751000Y-55208000D01*
X148791000Y-51820000D02*
X148791000Y-52660000D01*
X148791000Y-54340000D02*
X148791000Y-55180000D01*
X148831000Y-51850000D02*
X148831000Y-52660000D01*
X148831000Y-54340000D02*
X148831000Y-55150000D01*
X148871000Y-51881000D02*
X148871000Y-52660000D01*
X148871000Y-54340000D02*
X148871000Y-55119000D01*
X148911000Y-51913000D02*
X148911000Y-52660000D01*
X148911000Y-54340000D02*
X148911000Y-55087000D01*
X148951000Y-51948000D02*
X148951000Y-52660000D01*
X148951000Y-54340000D02*
X148951000Y-55052000D01*
X148991000Y-51984000D02*
X148991000Y-52660000D01*
X148991000Y-54340000D02*
X148991000Y-55016000D01*
X149031000Y-52022000D02*
X149031000Y-52660000D01*
X149031000Y-54340000D02*
X149031000Y-54978000D01*
X149071000Y-52062000D02*
X149071000Y-52660000D01*
X149071000Y-54340000D02*
X149071000Y-54938000D01*
X149111000Y-52104000D02*
X149111000Y-52660000D01*
X149111000Y-54340000D02*
X149111000Y-54896000D01*
X149151000Y-52149000D02*
X149151000Y-54851000D01*
X149191000Y-52196000D02*
X149191000Y-54804000D01*
X149231000Y-52246000D02*
X149231000Y-54754000D01*
X149271000Y-52300000D02*
X149271000Y-54700000D01*
X149311000Y-52358000D02*
X149311000Y-54642000D01*
X149351000Y-52420000D02*
X149351000Y-54580000D01*
X149391000Y-52487000D02*
X149391000Y-54513000D01*
X149431000Y-52560000D02*
X149431000Y-54440000D01*
X149471000Y-52641000D02*
X149471000Y-54359000D01*
X149511000Y-52732000D02*
X149511000Y-54268000D01*
X149551000Y-52836000D02*
X149551000Y-54164000D01*
X149591000Y-52963000D02*
X149591000Y-54037000D01*
X149631000Y-53130000D02*
X149631000Y-53870000D01*
X149670000Y-53500000D02*
G75*
G02*
X145430000Y-53500000I-2120000J0D01*
G01*
X145430000Y-53500000D02*
G75*
G02*
X149670000Y-53500000I2120000J0D01*
G01*
%TO.C,J3*%
X124490000Y-87330000D02*
X124490000Y-86000000D01*
X125820000Y-87330000D02*
X124490000Y-87330000D01*
X127090000Y-84670000D02*
X172870000Y-84670000D01*
X127090000Y-87330000D02*
X127090000Y-84670000D01*
X127090000Y-87330000D02*
X172870000Y-87330000D01*
X172870000Y-87330000D02*
X172870000Y-84670000D01*
%TO.C,J17*%
X181670000Y-47550000D02*
X183000000Y-47550000D01*
X181670000Y-48880000D02*
X181670000Y-47550000D01*
X181670000Y-50150000D02*
X181670000Y-60370000D01*
X181670000Y-50150000D02*
X184330000Y-50150000D01*
X181670000Y-60370000D02*
X184330000Y-60370000D01*
X184330000Y-50150000D02*
X184330000Y-60370000D01*
%TO.C,C13*%
X173212164Y-114740000D02*
X173427836Y-114740000D01*
X173212164Y-115460000D02*
X173427836Y-115460000D01*
%TO.C,J2*%
X125430000Y-54430000D02*
X125430000Y-53100000D01*
X126760000Y-54430000D02*
X125430000Y-54430000D01*
X128030000Y-51770000D02*
X130630000Y-51770000D01*
X128030000Y-54430000D02*
X128030000Y-51770000D01*
X128030000Y-54430000D02*
X130630000Y-54430000D01*
X130630000Y-54430000D02*
X130630000Y-51770000D01*
%TO.C,C10*%
X161988748Y-48865000D02*
X162511252Y-48865000D01*
X161988748Y-50335000D02*
X162511252Y-50335000D01*
%TD*%
%LPC*%
D12*
%TO.C,J16*%
X177300000Y-42060000D03*
D13*
X177300000Y-44600000D03*
X177300000Y-47140000D03*
X177300000Y-49680000D03*
X177300000Y-52220000D03*
%TD*%
D14*
%TO.C,C3*%
X151300000Y-53000000D03*
X153200000Y-53000000D03*
%TD*%
D15*
%TO.C,C8*%
X157800000Y-51600000D03*
X158760000Y-51600000D03*
%TD*%
D16*
%TO.C,L3*%
X158750000Y-56100000D03*
X162850000Y-56100000D03*
%TD*%
D15*
%TO.C,C12*%
X172840000Y-113100000D03*
X173800000Y-113100000D03*
%TD*%
D12*
%TO.C,J7*%
X125820000Y-62600000D03*
D13*
X128360000Y-62600000D03*
X130900000Y-62600000D03*
X133440000Y-62600000D03*
X135980000Y-62600000D03*
X138520000Y-62600000D03*
X141060000Y-62600000D03*
X143600000Y-62600000D03*
X146140000Y-62600000D03*
X148680000Y-62600000D03*
X151220000Y-62600000D03*
X153760000Y-62600000D03*
X156300000Y-62600000D03*
X158840000Y-62600000D03*
X161380000Y-62600000D03*
X163920000Y-62600000D03*
X166460000Y-62600000D03*
X169000000Y-62600000D03*
X171540000Y-62600000D03*
%TD*%
D12*
%TO.C,J11*%
X177300000Y-72060000D03*
D13*
X177300000Y-74600000D03*
X177300000Y-77140000D03*
X177300000Y-79680000D03*
X177300000Y-82220000D03*
%TD*%
D12*
%TO.C,J19*%
X183000000Y-79340000D03*
D13*
X183000000Y-81880000D03*
X183000000Y-84420000D03*
X183000000Y-86960000D03*
X183000000Y-89500000D03*
%TD*%
D12*
%TO.C,J12*%
X167150000Y-37300000D03*
D13*
X167150000Y-39840000D03*
X167150000Y-42380000D03*
X167150000Y-44920000D03*
%TD*%
D12*
%TO.C,J18*%
X183000000Y-64340000D03*
D13*
X183000000Y-66880000D03*
X183000000Y-69420000D03*
X183000000Y-71960000D03*
X183000000Y-74500000D03*
%TD*%
D12*
%TO.C,J10*%
X177300000Y-57525000D03*
D13*
X177300000Y-60065000D03*
X177300000Y-62605000D03*
X177300000Y-65145000D03*
X177300000Y-67685000D03*
%TD*%
D12*
%TO.C,J15*%
X171800000Y-49600000D03*
D13*
X171800000Y-52140000D03*
X171800000Y-54680000D03*
X171800000Y-57220000D03*
%TD*%
D12*
%TO.C,J13*%
X171800000Y-37300000D03*
D13*
X171800000Y-39840000D03*
X171800000Y-42380000D03*
X171800000Y-44920000D03*
%TD*%
D17*
%TO.C,C6*%
X141800000Y-56000000D03*
X141800000Y-56960000D03*
%TD*%
D15*
%TO.C,C11*%
X172840000Y-111100000D03*
X173800000Y-111100000D03*
%TD*%
D12*
%TO.C,J8*%
X177300000Y-101740000D03*
D13*
X177300000Y-104280000D03*
X177300000Y-106820000D03*
X177300000Y-109360000D03*
%TD*%
D12*
%TO.C,J21*%
X137300000Y-53100000D03*
D13*
X134760000Y-53100000D03*
%TD*%
D18*
%TO.C,U1*%
X159200000Y-47325000D03*
X158250000Y-47325000D03*
X157300000Y-47325000D03*
X157300000Y-49600000D03*
X158250000Y-49600000D03*
X159200000Y-49600000D03*
%TD*%
D19*
%TO.C,J1*%
X129500000Y-42000000D03*
D20*
X133900000Y-42000000D03*
D21*
X129400000Y-36500000D03*
X135400000Y-36500000D03*
X135400000Y-47500000D03*
X129400000Y-47500000D03*
%TD*%
D12*
%TO.C,J5*%
X125800000Y-93500000D03*
D13*
X128340000Y-93500000D03*
X130880000Y-93500000D03*
X133420000Y-93500000D03*
X135960000Y-93500000D03*
X138500000Y-93500000D03*
X141040000Y-93500000D03*
X143580000Y-93500000D03*
X146120000Y-93500000D03*
X148660000Y-93500000D03*
X151200000Y-93500000D03*
X153740000Y-93500000D03*
X156280000Y-93500000D03*
X158820000Y-93500000D03*
X161360000Y-93500000D03*
X163900000Y-93500000D03*
X166440000Y-93500000D03*
X168980000Y-93500000D03*
X171520000Y-93500000D03*
%TD*%
D12*
%TO.C,J4*%
X125800000Y-117000000D03*
D13*
X128340000Y-117000000D03*
X130880000Y-117000000D03*
X133420000Y-117000000D03*
X135960000Y-117000000D03*
X138500000Y-117000000D03*
X141040000Y-117000000D03*
X143580000Y-117000000D03*
X146120000Y-117000000D03*
X148660000Y-117000000D03*
X151200000Y-117000000D03*
X153740000Y-117000000D03*
X156280000Y-117000000D03*
X158820000Y-117000000D03*
X161360000Y-117000000D03*
X163900000Y-117000000D03*
X166440000Y-117000000D03*
X168980000Y-117000000D03*
X171520000Y-117000000D03*
%TD*%
D22*
%TO.C,U2*%
X157800000Y-43150000D03*
X157800000Y-44100000D03*
X157800000Y-45050000D03*
X160075000Y-45050000D03*
X160075000Y-44100000D03*
X160075000Y-43150000D03*
%TD*%
D23*
%TO.C,L1*%
X162900000Y-38600000D03*
X158800000Y-38600000D03*
%TD*%
D12*
%TO.C,J9*%
X177300000Y-114100000D03*
D13*
X177300000Y-116640000D03*
X177300000Y-119180000D03*
%TD*%
D24*
%TO.C,C2*%
X162300000Y-43560000D03*
X162300000Y-42600000D03*
%TD*%
%TO.C,C7*%
X155300000Y-53960000D03*
X155300000Y-53000000D03*
%TD*%
D12*
%TO.C,J20*%
X183000000Y-94880000D03*
D13*
X183000000Y-97420000D03*
X183000000Y-99960000D03*
X183000000Y-102500000D03*
X183000000Y-105040000D03*
%TD*%
D14*
%TO.C,C9*%
X161300000Y-47100000D03*
X163200000Y-47100000D03*
%TD*%
D12*
%TO.C,J6*%
X177300000Y-86940000D03*
D13*
X177300000Y-89480000D03*
X177300000Y-92020000D03*
X177300000Y-94560000D03*
X177300000Y-97100000D03*
%TD*%
D25*
%TO.C,D3*%
X142500000Y-46500000D03*
X142500000Y-50500000D03*
%TD*%
D26*
%TO.C,C5*%
X148500000Y-43000000D03*
D20*
X153500000Y-43000000D03*
%TD*%
D14*
%TO.C,C4*%
X151300000Y-55500000D03*
X153200000Y-55500000D03*
%TD*%
D25*
%TO.C,D1*%
X142500000Y-38500000D03*
X142500000Y-42500000D03*
%TD*%
D12*
%TO.C,J14*%
X167150000Y-49600000D03*
D13*
X167150000Y-52140000D03*
X167150000Y-54680000D03*
X167150000Y-57220000D03*
%TD*%
D27*
%TO.C,C1*%
X146800000Y-53500000D03*
D28*
X148300000Y-53500000D03*
%TD*%
D12*
%TO.C,J3*%
X125820000Y-86000000D03*
D13*
X128360000Y-86000000D03*
X130900000Y-86000000D03*
X133440000Y-86000000D03*
X135980000Y-86000000D03*
X138520000Y-86000000D03*
X141060000Y-86000000D03*
X143600000Y-86000000D03*
X146140000Y-86000000D03*
X148680000Y-86000000D03*
X151220000Y-86000000D03*
X153760000Y-86000000D03*
X156300000Y-86000000D03*
X158840000Y-86000000D03*
X161380000Y-86000000D03*
X163920000Y-86000000D03*
X166460000Y-86000000D03*
X169000000Y-86000000D03*
X171540000Y-86000000D03*
%TD*%
D12*
%TO.C,J17*%
X183000000Y-48880000D03*
D13*
X183000000Y-51420000D03*
X183000000Y-53960000D03*
X183000000Y-56500000D03*
X183000000Y-59040000D03*
%TD*%
D15*
%TO.C,C13*%
X172840000Y-115100000D03*
X173800000Y-115100000D03*
%TD*%
D12*
%TO.C,J2*%
X126760000Y-53100000D03*
D13*
X129300000Y-53100000D03*
%TD*%
D14*
%TO.C,C10*%
X161300000Y-49600000D03*
X163200000Y-49600000D03*
%TD*%
%LPD*%
M02*
