%TF.GenerationSoftware,KiCad,Pcbnew,8.0.8*%
%TF.CreationDate,2025-02-17T20:57:00-08:00*%
%TF.ProjectId,pcbfrfr,70636266-7266-4722-9e6b-696361645f70,rev?*%
%TF.SameCoordinates,Original*%
%TF.FileFunction,Copper,L1,Top*%
%TF.FilePolarity,Positive*%
%FSLAX46Y46*%
G04 Gerber Fmt 4.6, Leading zero omitted, Abs format (unit mm)*
G04 Created by KiCad (PCBNEW 8.0.8) date 2025-02-17 20:57:00*
%MOMM*%
%LPD*%
G01*
G04 APERTURE LIST*
G04 Aperture macros list*
%AMRoundRect*
0 Rectangle with rounded corners*
0 $1 Rounding radius*
0 $2 $3 $4 $5 $6 $7 $8 $9 X,Y pos of 4 corners*
0 Add a 4 corners polygon primitive as box body*
4,1,4,$2,$3,$4,$5,$6,$7,$8,$9,$2,$3,0*
0 Add four circle primitives for the rounded corners*
1,1,$1+$1,$2,$3*
1,1,$1+$1,$4,$5*
1,1,$1+$1,$6,$7*
1,1,$1+$1,$8,$9*
0 Add four rect primitives between the rounded corners*
20,1,$1+$1,$2,$3,$4,$5,0*
20,1,$1+$1,$4,$5,$6,$7,0*
20,1,$1+$1,$6,$7,$8,$9,0*
20,1,$1+$1,$8,$9,$2,$3,0*%
G04 Aperture macros list end*
%TA.AperFunction,SMDPad,CuDef*%
%ADD10RoundRect,0.250000X-0.650000X1.000000X-0.650000X-1.000000X0.650000X-1.000000X0.650000X1.000000X0*%
%TD*%
%TA.AperFunction,ComponentPad*%
%ADD11O,1.700000X1.700000*%
%TD*%
%TA.AperFunction,ComponentPad*%
%ADD12R,1.700000X1.700000*%
%TD*%
%TA.AperFunction,SMDPad,CuDef*%
%ADD13R,2.000000X3.000000*%
%TD*%
%TA.AperFunction,SMDPad,CuDef*%
%ADD14RoundRect,0.150000X-0.512500X-0.150000X0.512500X-0.150000X0.512500X0.150000X-0.512500X0.150000X0*%
%TD*%
%TA.AperFunction,SMDPad,CuDef*%
%ADD15RoundRect,0.150000X-0.150000X0.512500X-0.150000X-0.512500X0.150000X-0.512500X0.150000X0.512500X0*%
%TD*%
%TA.AperFunction,SMDPad,CuDef*%
%ADD16RoundRect,0.250000X-0.700000X-1.000000X0.700000X-1.000000X0.700000X1.000000X-0.700000X1.000000X0*%
%TD*%
%TA.AperFunction,SMDPad,CuDef*%
%ADD17RoundRect,0.250000X0.700000X1.000000X-0.700000X1.000000X-0.700000X-1.000000X0.700000X-1.000000X0*%
%TD*%
%TA.AperFunction,SMDPad,CuDef*%
%ADD18RoundRect,0.140000X-0.140000X-0.170000X0.140000X-0.170000X0.140000X0.170000X-0.140000X0.170000X0*%
%TD*%
%TA.AperFunction,SMDPad,CuDef*%
%ADD19RoundRect,0.250000X-0.250000X-0.475000X0.250000X-0.475000X0.250000X0.475000X-0.250000X0.475000X0*%
%TD*%
%TA.AperFunction,SMDPad,CuDef*%
%ADD20RoundRect,0.140000X0.170000X-0.140000X0.170000X0.140000X-0.170000X0.140000X-0.170000X-0.140000X0*%
%TD*%
%TA.AperFunction,SMDPad,CuDef*%
%ADD21RoundRect,0.140000X-0.170000X0.140000X-0.170000X-0.140000X0.170000X-0.140000X0.170000X0.140000X0*%
%TD*%
%TA.AperFunction,ComponentPad*%
%ADD22C,2.000000*%
%TD*%
%TA.AperFunction,ComponentPad*%
%ADD23R,2.000000X2.000000*%
%TD*%
%TA.AperFunction,ComponentPad*%
%ADD24C,1.200000*%
%TD*%
%TA.AperFunction,ComponentPad*%
%ADD25R,1.200000X1.200000*%
%TD*%
%TA.AperFunction,ViaPad*%
%ADD26C,0.600000*%
%TD*%
%TA.AperFunction,Conductor*%
%ADD27C,0.200000*%
%TD*%
G04 APERTURE END LIST*
D10*
%TO.P,D3,1,K*%
%TO.N,Net-(D1-K)*%
X142500000Y-46500000D03*
%TO.P,D3,2,A*%
%TO.N,Net-(D3-A)*%
X142500000Y-50500000D03*
%TD*%
%TO.P,D1,1,K*%
%TO.N,Net-(D1-K)*%
X142500000Y-38500000D03*
%TO.P,D1,2,A*%
%TO.N,Net-(D1-A)*%
X142500000Y-42500000D03*
%TD*%
D11*
%TO.P,J21,2,Pin_2*%
%TO.N,GND*%
X134760000Y-53100000D03*
D12*
%TO.P,J21,1,Pin_1*%
%TO.N,Net-(D3-A)*%
X137300000Y-53100000D03*
%TD*%
D11*
%TO.P,J2,2,Pin_2*%
%TO.N,Net-(D1-A)*%
X129300000Y-53100000D03*
D12*
%TO.P,J2,1,Pin_1*%
%TO.N,Net-(J2-Pin_1)*%
X126760000Y-53100000D03*
%TD*%
D13*
%TO.P,J1,1*%
%TO.N,Net-(D3-A)*%
X129400000Y-36500000D03*
X135400000Y-36500000D03*
%TO.P,J1,2*%
%TO.N,GND*%
X135400000Y-47500000D03*
%TO.P,J1,3*%
%TO.N,Net-(J2-Pin_1)*%
X129400000Y-47500000D03*
%TD*%
D14*
%TO.P,U2,6,BST*%
%TO.N,Net-(U2-BST)*%
X160075000Y-43150000D03*
%TO.P,U2,5,SW*%
%TO.N,Net-(U2-SW)*%
X160075000Y-44100000D03*
%TO.P,U2,4,GND*%
%TO.N,GND*%
X160075000Y-45050000D03*
%TO.P,U2,3,IN*%
%TO.N,Net-(D1-K)*%
X157800000Y-45050000D03*
%TO.P,U2,2,EN*%
X157800000Y-44100000D03*
%TO.P,U2,1,FB*%
%TO.N,Net-(J11-Pin_4)*%
X157800000Y-43150000D03*
%TD*%
D15*
%TO.P,U1,6,BST*%
%TO.N,Net-(U1-BST)*%
X159200000Y-49600000D03*
%TO.P,U1,5,SW*%
%TO.N,Net-(U1-SW)*%
X158250000Y-49600000D03*
%TO.P,U1,4,GND*%
%TO.N,GND*%
X157300000Y-49600000D03*
%TO.P,U1,3,IN*%
%TO.N,Net-(J11-Pin_4)*%
X157300000Y-47325000D03*
%TO.P,U1,2,EN*%
X158250000Y-47325000D03*
%TO.P,U1,1,FB*%
%TO.N,3.3V*%
X159200000Y-47325000D03*
%TD*%
D16*
%TO.P,L3,2,2*%
%TO.N,3.3V*%
X162850000Y-56100000D03*
%TO.P,L3,1,1*%
%TO.N,Net-(U1-SW)*%
X158750000Y-56100000D03*
%TD*%
D17*
%TO.P,L1,2,2*%
%TO.N,Net-(J11-Pin_4)*%
X158800000Y-38600000D03*
%TO.P,L1,1,1*%
%TO.N,Net-(U2-SW)*%
X162900000Y-38600000D03*
%TD*%
D12*
%TO.P,J20,1,Pin_1*%
%TO.N,Net-(J20-Pin_1)*%
X183000000Y-94880000D03*
D11*
%TO.P,J20,2,Pin_2*%
%TO.N,Net-(J20-Pin_2)*%
X183000000Y-97420000D03*
%TO.P,J20,3,Pin_3*%
%TO.N,Net-(J20-Pin_3)*%
X183000000Y-99960000D03*
%TO.P,J20,4,Pin_4*%
%TO.N,Net-(J20-Pin_4)*%
X183000000Y-102500000D03*
%TO.P,J20,5,Pin_5*%
%TO.N,Net-(J20-Pin_5)*%
X183000000Y-105040000D03*
%TD*%
D12*
%TO.P,J19,1,Pin_1*%
%TO.N,Net-(J19-Pin_1)*%
X183000000Y-79340000D03*
D11*
%TO.P,J19,2,Pin_2*%
%TO.N,Net-(J19-Pin_2)*%
X183000000Y-81880000D03*
%TO.P,J19,3,Pin_3*%
%TO.N,Net-(J19-Pin_3)*%
X183000000Y-84420000D03*
%TO.P,J19,4,Pin_4*%
%TO.N,Net-(J19-Pin_4)*%
X183000000Y-86960000D03*
%TO.P,J19,5,Pin_5*%
%TO.N,Net-(J19-Pin_5)*%
X183000000Y-89500000D03*
%TD*%
D12*
%TO.P,J18,1,Pin_1*%
%TO.N,Net-(J18-Pin_1)*%
X183000000Y-64340000D03*
D11*
%TO.P,J18,2,Pin_2*%
%TO.N,Net-(J18-Pin_2)*%
X183000000Y-66880000D03*
%TO.P,J18,3,Pin_3*%
%TO.N,Net-(J18-Pin_3)*%
X183000000Y-69420000D03*
%TO.P,J18,4,Pin_4*%
%TO.N,Net-(J18-Pin_4)*%
X183000000Y-71960000D03*
%TO.P,J18,5,Pin_5*%
%TO.N,Net-(J18-Pin_5)*%
X183000000Y-74500000D03*
%TD*%
D12*
%TO.P,J17,1,Pin_1*%
%TO.N,Net-(J17-Pin_1)*%
X183000000Y-48880000D03*
D11*
%TO.P,J17,2,Pin_2*%
%TO.N,Net-(J17-Pin_2)*%
X183000000Y-51420000D03*
%TO.P,J17,3,Pin_3*%
%TO.N,Net-(J17-Pin_3)*%
X183000000Y-53960000D03*
%TO.P,J17,4,Pin_4*%
%TO.N,Net-(J17-Pin_4)*%
X183000000Y-56500000D03*
%TO.P,J17,5,Pin_5*%
%TO.N,Net-(J17-Pin_5)*%
X183000000Y-59040000D03*
%TD*%
D12*
%TO.P,J16,1,Pin_1*%
%TO.N,Net-(J16-Pin_1)*%
X177300000Y-42060000D03*
D11*
%TO.P,J16,2,Pin_2*%
%TO.N,Net-(J16-Pin_2)*%
X177300000Y-44600000D03*
%TO.P,J16,3,Pin_3*%
%TO.N,Net-(J16-Pin_3)*%
X177300000Y-47140000D03*
%TO.P,J16,4,Pin_4*%
%TO.N,Net-(J16-Pin_4)*%
X177300000Y-49680000D03*
%TO.P,J16,5,Pin_5*%
%TO.N,Net-(J16-Pin_5)*%
X177300000Y-52220000D03*
%TD*%
D12*
%TO.P,J15,1,Pin_1*%
%TO.N,GND*%
X171800000Y-49600000D03*
D11*
%TO.P,J15,2,Pin_2*%
X171800000Y-52140000D03*
%TO.P,J15,3,Pin_3*%
X171800000Y-54680000D03*
%TO.P,J15,4,Pin_4*%
X171800000Y-57220000D03*
%TD*%
D12*
%TO.P,J14,1,Pin_1*%
%TO.N,3.3V*%
X167150000Y-49600000D03*
D11*
%TO.P,J14,2,Pin_2*%
X167150000Y-52140000D03*
%TO.P,J14,3,Pin_3*%
X167150000Y-54680000D03*
%TO.P,J14,4,Pin_4*%
X167150000Y-57220000D03*
%TD*%
D12*
%TO.P,J13,1,Pin_1*%
%TO.N,GND*%
X171800000Y-37300000D03*
D11*
%TO.P,J13,2,Pin_2*%
X171800000Y-39840000D03*
%TO.P,J13,3,Pin_3*%
X171800000Y-42380000D03*
%TO.P,J13,4,Pin_4*%
X171800000Y-44920000D03*
%TD*%
D12*
%TO.P,J12,1,Pin_1*%
%TO.N,Net-(J11-Pin_4)*%
X167150000Y-37300000D03*
D11*
%TO.P,J12,2,Pin_2*%
X167150000Y-39840000D03*
%TO.P,J12,3,Pin_3*%
X167150000Y-42380000D03*
%TO.P,J12,4,Pin_4*%
X167150000Y-44920000D03*
%TD*%
D12*
%TO.P,J11,1,Pin_1*%
%TO.N,Net-(J11-Pin_1)*%
X177300000Y-72060000D03*
D11*
%TO.P,J11,2,Pin_2*%
%TO.N,Net-(J11-Pin_2)*%
X177300000Y-74600000D03*
%TO.P,J11,3,Pin_3*%
%TO.N,Net-(J11-Pin_3)*%
X177300000Y-77140000D03*
%TO.P,J11,4,Pin_4*%
%TO.N,Net-(J11-Pin_4)*%
X177300000Y-79680000D03*
%TO.P,J11,5,Pin_5*%
%TO.N,GND*%
X177300000Y-82220000D03*
%TD*%
D12*
%TO.P,J10,1,Pin_1*%
%TO.N,Net-(J10-Pin_1)*%
X177300000Y-57525000D03*
D11*
%TO.P,J10,2,Pin_2*%
%TO.N,Net-(J10-Pin_2)*%
X177300000Y-60065000D03*
%TO.P,J10,3,Pin_3*%
%TO.N,Net-(J10-Pin_3)*%
X177300000Y-62605000D03*
%TO.P,J10,4,Pin_4*%
%TO.N,3.3V*%
X177300000Y-65145000D03*
%TO.P,J10,5,Pin_5*%
%TO.N,GND*%
X177300000Y-67685000D03*
%TD*%
D12*
%TO.P,J9,1,Pin_1*%
%TO.N,GND*%
X177300000Y-114100000D03*
D11*
%TO.P,J9,2,Pin_2*%
%TO.N,Net-(J4-Pin_3)*%
X177300000Y-116640000D03*
%TO.P,J9,3,Pin_3*%
%TO.N,3.3V*%
X177300000Y-119180000D03*
%TD*%
%TO.P,J7,19,Pin_19*%
%TO.N,GND*%
X171540000Y-62600000D03*
%TO.P,J7,18,Pin_18*%
%TO.N,Net-(J18-Pin_5)*%
X169000000Y-62600000D03*
%TO.P,J7,17,Pin_17*%
%TO.N,Net-(J18-Pin_4)*%
X166460000Y-62600000D03*
%TO.P,J7,16,Pin_16*%
%TO.N,Net-(J18-Pin_3)*%
X163920000Y-62600000D03*
%TO.P,J7,15,Pin_15*%
%TO.N,Net-(J18-Pin_2)*%
X161380000Y-62600000D03*
%TO.P,J7,14,Pin_14*%
%TO.N,Net-(J18-Pin_1)*%
X158840000Y-62600000D03*
%TO.P,J7,13,Pin_13*%
%TO.N,GND*%
X156300000Y-62600000D03*
%TO.P,J7,12,Pin_12*%
%TO.N,unconnected-(J7-Pin_12-Pad12)*%
X153760000Y-62600000D03*
%TO.P,J7,11,Pin_11*%
%TO.N,unconnected-(J7-Pin_11-Pad11)*%
X151220000Y-62600000D03*
%TO.P,J7,10,Pin_10*%
%TO.N,Net-(J5-Pin_12)*%
X148680000Y-62600000D03*
%TO.P,J7,9,Pin_9*%
%TO.N,Net-(J5-Pin_11)*%
X146140000Y-62600000D03*
%TO.P,J7,8,Pin_8*%
%TO.N,unconnected-(J7-Pin_8-Pad8)*%
X143600000Y-62600000D03*
%TO.P,J7,7,Pin_7*%
%TO.N,unconnected-(J7-Pin_7-Pad7)*%
X141060000Y-62600000D03*
%TO.P,J7,6,Pin_6*%
%TO.N,unconnected-(J7-Pin_6-Pad6)*%
X138520000Y-62600000D03*
%TO.P,J7,5,Pin_5*%
%TO.N,Net-(J6-Pin_2)*%
X135980000Y-62600000D03*
%TO.P,J7,4,Pin_4*%
%TO.N,unconnected-(J7-Pin_4-Pad4)*%
X133440000Y-62600000D03*
%TO.P,J7,3,Pin_3*%
%TO.N,unconnected-(J7-Pin_3-Pad3)*%
X130900000Y-62600000D03*
%TO.P,J7,2,Pin_2*%
%TO.N,unconnected-(J7-Pin_2-Pad2)*%
X128360000Y-62600000D03*
D12*
%TO.P,J7,1,Pin_1*%
%TO.N,unconnected-(J7-Pin_1-Pad1)*%
X125820000Y-62600000D03*
%TD*%
%TO.P,J6,1,Pin_1*%
%TO.N,3.3V*%
X177300000Y-86940000D03*
D11*
%TO.P,J6,2,Pin_2*%
%TO.N,Net-(J6-Pin_2)*%
X177300000Y-89480000D03*
%TO.P,J6,3,Pin_3*%
%TO.N,Net-(J3-Pin_15)*%
X177300000Y-92020000D03*
%TO.P,J6,4,Pin_4*%
%TO.N,Net-(J3-Pin_13)*%
X177300000Y-94560000D03*
%TO.P,J6,5,Pin_5*%
%TO.N,GND*%
X177300000Y-97100000D03*
%TD*%
%TO.P,J5,19,Pin_19*%
%TO.N,GND*%
X171520000Y-94600000D03*
%TO.P,J5,18,Pin_18*%
%TO.N,Net-(J20-Pin_5)*%
X168980000Y-94600000D03*
%TO.P,J5,17,Pin_17*%
%TO.N,Net-(J5-Pin_17)*%
X166440000Y-94600000D03*
%TO.P,J5,16,Pin_16*%
%TO.N,Net-(J20-Pin_4)*%
X163900000Y-94600000D03*
%TO.P,J5,15,Pin_15*%
%TO.N,Net-(J20-Pin_3)*%
X161360000Y-94600000D03*
%TO.P,J5,14,Pin_14*%
%TO.N,Net-(J5-Pin_14)*%
X158820000Y-94600000D03*
%TO.P,J5,13,Pin_13*%
%TO.N,GND*%
X156280000Y-94600000D03*
%TO.P,J5,12,Pin_12*%
%TO.N,Net-(J5-Pin_12)*%
X153740000Y-94600000D03*
%TO.P,J5,11,Pin_11*%
%TO.N,Net-(J5-Pin_11)*%
X151200000Y-94600000D03*
%TO.P,J5,10,Pin_10*%
%TO.N,Net-(J20-Pin_2)*%
X148660000Y-94600000D03*
%TO.P,J5,9,Pin_9*%
%TO.N,Net-(J20-Pin_1)*%
X146120000Y-94600000D03*
%TO.P,J5,8,Pin_8*%
%TO.N,unconnected-(J5-Pin_8-Pad8)*%
X143580000Y-94600000D03*
%TO.P,J5,7,Pin_7*%
%TO.N,Net-(J10-Pin_3)*%
X141040000Y-94600000D03*
%TO.P,J5,6,Pin_6*%
%TO.N,unconnected-(J5-Pin_6-Pad6)*%
X138500000Y-94600000D03*
%TO.P,J5,5,Pin_5*%
%TO.N,unconnected-(J5-Pin_5-Pad5)*%
X135960000Y-94600000D03*
%TO.P,J5,4,Pin_4*%
%TO.N,unconnected-(J5-Pin_4-Pad4)*%
X133420000Y-94600000D03*
%TO.P,J5,3,Pin_3*%
%TO.N,unconnected-(J5-Pin_3-Pad3)*%
X130880000Y-94600000D03*
%TO.P,J5,2,Pin_2*%
%TO.N,unconnected-(J5-Pin_2-Pad2)*%
X128340000Y-94600000D03*
D12*
%TO.P,J5,1,Pin_1*%
%TO.N,unconnected-(J5-Pin_1-Pad1)*%
X125800000Y-94600000D03*
%TD*%
D11*
%TO.P,J4,19,Pin_19*%
%TO.N,unconnected-(J4-Pin_19-Pad19)*%
X171520000Y-119100000D03*
%TO.P,J4,18,Pin_18*%
%TO.N,unconnected-(J4-Pin_18-Pad18)*%
X168980000Y-119100000D03*
%TO.P,J4,17,Pin_17*%
%TO.N,unconnected-(J4-Pin_17-Pad17)*%
X166440000Y-119100000D03*
%TO.P,J4,16,Pin_16*%
%TO.N,unconnected-(J4-Pin_16-Pad16)*%
X163900000Y-119100000D03*
%TO.P,J4,15,Pin_15*%
%TO.N,unconnected-(J4-Pin_15-Pad15)*%
X161360000Y-119100000D03*
%TO.P,J4,14,Pin_14*%
%TO.N,GND*%
X158820000Y-119100000D03*
%TO.P,J4,13,Pin_13*%
%TO.N,unconnected-(J4-Pin_13-Pad13)*%
X156280000Y-119100000D03*
%TO.P,J4,12,Pin_12*%
%TO.N,Net-(J19-Pin_5)*%
X153740000Y-119100000D03*
%TO.P,J4,11,Pin_11*%
%TO.N,Net-(J10-Pin_1)*%
X151200000Y-119100000D03*
%TO.P,J4,10,Pin_10*%
%TO.N,Net-(J10-Pin_2)*%
X148660000Y-119100000D03*
%TO.P,J4,9,Pin_9*%
%TO.N,Net-(J11-Pin_3)*%
X146120000Y-119100000D03*
%TO.P,J4,8,Pin_8*%
%TO.N,Net-(J11-Pin_2)*%
X143580000Y-119100000D03*
%TO.P,J4,7,Pin_7*%
%TO.N,Net-(J11-Pin_1)*%
X141040000Y-119100000D03*
%TO.P,J4,6,Pin_6*%
%TO.N,Net-(J19-Pin_4)*%
X138500000Y-119100000D03*
%TO.P,J4,5,Pin_5*%
%TO.N,Net-(J19-Pin_3)*%
X135960000Y-119100000D03*
%TO.P,J4,4,Pin_4*%
%TO.N,Net-(J19-Pin_2)*%
X133420000Y-119100000D03*
%TO.P,J4,3,Pin_3*%
%TO.N,Net-(J4-Pin_3)*%
X130880000Y-119100000D03*
%TO.P,J4,2,Pin_2*%
%TO.N,Net-(J19-Pin_1)*%
X128340000Y-119100000D03*
D12*
%TO.P,J4,1,Pin_1*%
%TO.N,3.3V*%
X125800000Y-119100000D03*
%TD*%
D11*
%TO.P,J3,19,Pin_19*%
%TO.N,unconnected-(J3-Pin_19-Pad19)*%
X171540000Y-88000000D03*
%TO.P,J3,18,Pin_18*%
%TO.N,unconnected-(J3-Pin_18-Pad18)*%
X169000000Y-88000000D03*
%TO.P,J3,17,Pin_17*%
%TO.N,unconnected-(J3-Pin_17-Pad17)*%
X166460000Y-88000000D03*
%TO.P,J3,16,Pin_16*%
%TO.N,unconnected-(J3-Pin_16-Pad16)*%
X163920000Y-88000000D03*
%TO.P,J3,15,Pin_15*%
%TO.N,Net-(J3-Pin_15)*%
X161380000Y-88000000D03*
%TO.P,J3,14,Pin_14*%
%TO.N,GND*%
X158840000Y-88000000D03*
%TO.P,J3,13,Pin_13*%
%TO.N,Net-(J3-Pin_13)*%
X156300000Y-88000000D03*
%TO.P,J3,12,Pin_12*%
%TO.N,unconnected-(J3-Pin_12-Pad12)*%
X153760000Y-88000000D03*
%TO.P,J3,11,Pin_11*%
%TO.N,Net-(J17-Pin_5)*%
X151220000Y-88000000D03*
%TO.P,J3,10,Pin_10*%
%TO.N,Net-(J17-Pin_4)*%
X148680000Y-88000000D03*
%TO.P,J3,9,Pin_9*%
%TO.N,Net-(J17-Pin_3)*%
X146140000Y-88000000D03*
%TO.P,J3,8,Pin_8*%
%TO.N,Net-(J17-Pin_2)*%
X143600000Y-88000000D03*
%TO.P,J3,7,Pin_7*%
%TO.N,Net-(J17-Pin_1)*%
X141060000Y-88000000D03*
%TO.P,J3,6,Pin_6*%
%TO.N,Net-(J16-Pin_5)*%
X138520000Y-88000000D03*
%TO.P,J3,5,Pin_5*%
%TO.N,Net-(J16-Pin_4)*%
X135980000Y-88000000D03*
%TO.P,J3,4,Pin_4*%
%TO.N,Net-(J16-Pin_3)*%
X133440000Y-88000000D03*
%TO.P,J3,3,Pin_3*%
%TO.N,Net-(J16-Pin_2)*%
X130900000Y-88000000D03*
%TO.P,J3,2,Pin_2*%
%TO.N,Net-(J16-Pin_1)*%
X128360000Y-88000000D03*
D12*
%TO.P,J3,1,Pin_1*%
%TO.N,3.3V*%
X125820000Y-88000000D03*
%TD*%
D18*
%TO.P,C13,1*%
%TO.N,GND*%
X172840000Y-115100000D03*
%TO.P,C13,2*%
%TO.N,3.3V*%
X173800000Y-115100000D03*
%TD*%
%TO.P,C12,1*%
%TO.N,3.3V*%
X172840000Y-113100000D03*
%TO.P,C12,2*%
%TO.N,GND*%
X173800000Y-113100000D03*
%TD*%
%TO.P,C11,1*%
%TO.N,Net-(J4-Pin_3)*%
X172840000Y-111100000D03*
%TO.P,C11,2*%
%TO.N,GND*%
X173800000Y-111100000D03*
%TD*%
D19*
%TO.P,C10,2*%
%TO.N,GND*%
X163200000Y-49600000D03*
%TO.P,C10,1*%
%TO.N,3.3V*%
X161300000Y-49600000D03*
%TD*%
%TO.P,C9,2*%
%TO.N,GND*%
X163200000Y-47100000D03*
%TO.P,C9,1*%
%TO.N,3.3V*%
X161300000Y-47100000D03*
%TD*%
D18*
%TO.P,C8,2*%
%TO.N,Net-(U1-BST)*%
X158760000Y-51600000D03*
%TO.P,C8,1*%
%TO.N,Net-(U1-SW)*%
X157800000Y-51600000D03*
%TD*%
D20*
%TO.P,C7,2*%
%TO.N,GND*%
X155300000Y-53000000D03*
%TO.P,C7,1*%
%TO.N,Net-(J11-Pin_4)*%
X155300000Y-53960000D03*
%TD*%
D21*
%TO.P,C6,2*%
%TO.N,GND*%
X141800000Y-56960000D03*
%TO.P,C6,1*%
%TO.N,Net-(D1-K)*%
X141800000Y-56000000D03*
%TD*%
D22*
%TO.P,C5,2*%
%TO.N,GND*%
X153500000Y-43000000D03*
D23*
%TO.P,C5,1*%
%TO.N,Net-(D1-K)*%
X148500000Y-43000000D03*
%TD*%
D19*
%TO.P,C4,2*%
%TO.N,GND*%
X153200000Y-55500000D03*
%TO.P,C4,1*%
%TO.N,Net-(J11-Pin_4)*%
X151300000Y-55500000D03*
%TD*%
%TO.P,C3,2*%
%TO.N,GND*%
X153200000Y-53000000D03*
%TO.P,C3,1*%
%TO.N,Net-(J11-Pin_4)*%
X151300000Y-53000000D03*
%TD*%
D20*
%TO.P,C2,2*%
%TO.N,Net-(U2-BST)*%
X162300000Y-42600000D03*
%TO.P,C2,1*%
%TO.N,Net-(U2-SW)*%
X162300000Y-43560000D03*
%TD*%
D24*
%TO.P,C1,2*%
%TO.N,GND*%
X148300000Y-53500000D03*
D25*
%TO.P,C1,1*%
%TO.N,Net-(D1-K)*%
X146800000Y-53500000D03*
%TD*%
D12*
%TO.P,J8,1,Pin_1*%
%TO.N,Net-(J5-Pin_17)*%
X177300000Y-101740000D03*
D11*
%TO.P,J8,2,Pin_2*%
%TO.N,Net-(J5-Pin_14)*%
X177300000Y-104280000D03*
%TO.P,J8,3,Pin_3*%
%TO.N,Net-(J11-Pin_4)*%
X177300000Y-106820000D03*
%TO.P,J8,4,Pin_4*%
%TO.N,GND*%
X177300000Y-109360000D03*
%TD*%
D26*
%TO.N,Net-(J18-Pin_5)*%
X169000000Y-73441900D03*
%TO.N,Net-(J18-Pin_4)*%
X167827500Y-70570200D03*
%TO.N,Net-(J6-Pin_2)*%
X173021500Y-72840200D03*
X173021500Y-88585500D03*
%TO.N,Net-(J5-Pin_17)*%
X166761600Y-101740000D03*
%TO.N,Net-(J20-Pin_5)*%
X168980000Y-103009900D03*
%TO.N,Net-(J10-Pin_3)*%
X172046800Y-90239800D03*
%TO.N,Net-(J5-Pin_14)*%
X158191900Y-104280000D03*
%TO.N,Net-(J19-Pin_5)*%
X179861500Y-110288500D03*
%TO.N,Net-(J11-Pin_3)*%
X152376500Y-78982100D03*
%TO.N,Net-(J19-Pin_1)*%
X184607700Y-117864500D03*
%TO.N,Net-(J10-Pin_2)*%
X167827500Y-115885300D03*
%TO.N,Net-(J11-Pin_2)*%
X147390000Y-77386700D03*
%TO.N,Net-(J19-Pin_3)*%
X135960000Y-96814600D03*
%TO.N,Net-(J19-Pin_2)*%
X134690000Y-89151700D03*
%TO.N,Net-(J11-Pin_1)*%
X146978400Y-71864400D03*
%TO.N,Net-(J19-Pin_4)*%
X180566400Y-107994900D03*
%TO.N,Net-(J17-Pin_5)*%
X151220000Y-86632700D03*
X175625400Y-83665600D03*
%TO.N,Net-(J17-Pin_3)*%
X184572100Y-77380200D03*
%TO.N,Net-(J17-Pin_4)*%
X179866900Y-80950000D03*
%TO.N,Net-(J17-Pin_1)*%
X144868500Y-48410200D03*
%TO.N,Net-(J16-Pin_5)*%
X139791600Y-55162100D03*
%TO.N,Net-(J3-Pin_13)*%
X155497500Y-92642700D03*
%TO.N,Net-(J16-Pin_2)*%
X132243900Y-46071700D03*
%TO.N,Net-(J16-Pin_4)*%
X137250000Y-54519900D03*
%TO.N,Net-(J16-Pin_1)*%
X131352600Y-44801900D03*
%TO.N,Net-(J16-Pin_3)*%
X136031600Y-50484400D03*
%TO.N,Net-(J17-Pin_2)*%
X145938300Y-65577400D03*
%TO.N,Net-(D1-A)*%
X140628100Y-46688200D03*
%TO.N,3.3V*%
X174954100Y-86940000D03*
X167150000Y-61313700D03*
%TO.N,Net-(J11-Pin_4)*%
X156253300Y-79680000D03*
%TO.N,GND*%
X140628100Y-51927300D03*
%TD*%
D27*
%TO.N,Net-(D3-A)*%
X135400000Y-36500000D02*
X135400000Y-38301700D01*
X129400000Y-34698300D02*
X135400000Y-34698300D01*
X129400000Y-36500000D02*
X129400000Y-34698300D01*
X135400000Y-36500000D02*
X135400000Y-34698300D01*
X137300000Y-50500000D02*
X142500000Y-50500000D01*
X137300000Y-40201700D02*
X137300000Y-50500000D01*
X135400000Y-38301700D02*
X137300000Y-40201700D01*
X137300000Y-50500000D02*
X137300000Y-53100000D01*
%TO.N,Net-(J18-Pin_5)*%
X169000000Y-62600000D02*
X169000000Y-73441900D01*
%TO.N,Net-(J18-Pin_4)*%
X167827500Y-65119200D02*
X167827500Y-70570200D01*
X166460000Y-63751700D02*
X167827500Y-65119200D01*
X166460000Y-62600000D02*
X166460000Y-63751700D01*
%TO.N,Net-(J6-Pin_2)*%
X173021500Y-88585500D02*
X173021500Y-72840200D01*
%TO.N,Net-(J5-Pin_12)*%
X153740000Y-94600000D02*
X153740000Y-93448300D01*
X148680000Y-62600000D02*
X148680000Y-63751700D01*
X154957700Y-70029400D02*
X148680000Y-63751700D01*
X154957700Y-92230600D02*
X154957700Y-70029400D01*
X153740000Y-93448300D02*
X154957700Y-92230600D01*
%TO.N,Net-(J5-Pin_11)*%
X150048300Y-67660000D02*
X146140000Y-63751700D01*
X150048300Y-92296600D02*
X150048300Y-67660000D01*
X151200000Y-93448300D02*
X150048300Y-92296600D01*
X151200000Y-94600000D02*
X151200000Y-93448300D01*
X146140000Y-62600000D02*
X146140000Y-63751700D01*
%TO.N,Net-(J5-Pin_17)*%
X166440000Y-94600000D02*
X166440000Y-95751700D01*
X166761600Y-96073300D02*
X166761600Y-101740000D01*
X166440000Y-95751700D02*
X166761600Y-96073300D01*
%TO.N,Net-(J20-Pin_5)*%
X168980000Y-94600000D02*
X168980000Y-103009900D01*
%TO.N,Net-(J10-Pin_3)*%
X177300000Y-62605000D02*
X177300000Y-63756700D01*
X177014100Y-63756700D02*
X177300000Y-63756700D01*
X174080800Y-66690000D02*
X177014100Y-63756700D01*
X174080800Y-88377100D02*
X174080800Y-66690000D01*
X172218100Y-90239800D02*
X174080800Y-88377100D01*
X172046800Y-90239800D02*
X172218100Y-90239800D01*
%TO.N,Net-(J5-Pin_14)*%
X158820000Y-94600000D02*
X158820000Y-95751700D01*
X158191900Y-96379800D02*
X158191900Y-104280000D01*
X158820000Y-95751700D02*
X158191900Y-96379800D01*
%TO.N,Net-(J19-Pin_5)*%
X183000000Y-89500000D02*
X183000000Y-90651700D01*
X179861500Y-93790200D02*
X179861500Y-110288500D01*
X183000000Y-90651700D02*
X179861500Y-93790200D01*
%TO.N,Net-(J11-Pin_3)*%
X146120000Y-119100000D02*
X146120000Y-117948300D01*
X152376500Y-111691800D02*
X146120000Y-117948300D01*
X152376500Y-78982100D02*
X152376500Y-111691800D01*
%TO.N,Net-(J19-Pin_1)*%
X183000000Y-79340000D02*
X183000000Y-80491700D01*
X184607700Y-81811500D02*
X184607700Y-117864500D01*
X183287900Y-80491700D02*
X184607700Y-81811500D01*
X183000000Y-80491700D02*
X183287900Y-80491700D01*
%TO.N,Net-(J10-Pin_2)*%
X177300000Y-60065000D02*
X177300000Y-61216700D01*
X167827500Y-76140000D02*
X167827500Y-115885300D01*
X173093400Y-70874100D02*
X167827500Y-76140000D01*
X173093400Y-65154800D02*
X173093400Y-70874100D01*
X177031500Y-61216700D02*
X173093400Y-65154800D01*
X177300000Y-61216700D02*
X177031500Y-61216700D01*
%TO.N,Net-(J11-Pin_2)*%
X147390000Y-114138300D02*
X147390000Y-77386700D01*
X143580000Y-117948300D02*
X147390000Y-114138300D01*
X143580000Y-119100000D02*
X143580000Y-117948300D01*
%TO.N,Net-(J19-Pin_3)*%
X135960000Y-96814600D02*
X135960000Y-119100000D01*
%TO.N,Net-(J19-Pin_2)*%
X133420000Y-119100000D02*
X133420000Y-117948300D01*
X134690000Y-116678300D02*
X134690000Y-89151700D01*
X133420000Y-117948300D02*
X134690000Y-116678300D01*
%TO.N,Net-(J11-Pin_1)*%
X141040000Y-119100000D02*
X141040000Y-117948300D01*
X144867600Y-114120700D02*
X141040000Y-117948300D01*
X144867600Y-83406500D02*
X144867600Y-114120700D01*
X146422700Y-81851400D02*
X144867600Y-83406500D01*
X146422700Y-72420100D02*
X146422700Y-81851400D01*
X146978400Y-71864400D02*
X146422700Y-72420100D01*
%TO.N,Net-(J19-Pin_4)*%
X180566400Y-93653400D02*
X180566400Y-107994900D01*
X184157500Y-90062300D02*
X180566400Y-93653400D01*
X184157500Y-88981300D02*
X184157500Y-90062300D01*
X183287900Y-88111700D02*
X184157500Y-88981300D01*
X183000000Y-88111700D02*
X183287900Y-88111700D01*
X183000000Y-86960000D02*
X183000000Y-88111700D01*
%TO.N,Net-(J10-Pin_1)*%
X151200000Y-119100000D02*
X151200000Y-117948300D01*
X177300000Y-57525000D02*
X177300000Y-58676700D01*
X165170000Y-103978300D02*
X151200000Y-117948300D01*
X165170000Y-78195800D02*
X165170000Y-103978300D01*
X172691700Y-70674100D02*
X165170000Y-78195800D01*
X172691700Y-62997100D02*
X172691700Y-70674100D01*
X177012100Y-58676700D02*
X172691700Y-62997100D01*
X177300000Y-58676700D02*
X177012100Y-58676700D01*
%TO.N,Net-(J17-Pin_5)*%
X151220000Y-88000000D02*
X151220000Y-86848300D01*
X151220000Y-86848300D02*
X151220000Y-86632700D01*
X183000000Y-61079500D02*
X183000000Y-59040000D01*
X177664500Y-66415000D02*
X183000000Y-61079500D01*
X175625400Y-67696800D02*
X176907200Y-66415000D01*
X175625400Y-83665600D02*
X175625400Y-67696800D01*
%TO.N,Net-(J17-Pin_3)*%
X183000000Y-53960000D02*
X183000000Y-55111700D01*
X184572100Y-56415300D02*
X184572100Y-77380200D01*
X183268500Y-55111700D02*
X184572100Y-56415300D01*
X183000000Y-55111700D02*
X183268500Y-55111700D01*
%TO.N,Net-(J17-Pin_4)*%
X179866900Y-64834000D02*
X179866900Y-80950000D01*
X184151700Y-60549200D02*
X179866900Y-64834000D01*
X184151700Y-58515400D02*
X184151700Y-60549200D01*
X183288000Y-57651700D02*
X184151700Y-58515400D01*
X183000000Y-57651700D02*
X183288000Y-57651700D01*
X183000000Y-56500000D02*
X183000000Y-57651700D01*
%TO.N,Net-(J17-Pin_1)*%
X141060000Y-88000000D02*
X141060000Y-86848300D01*
X141060000Y-85936700D02*
X141060000Y-86848300D01*
X144868500Y-82128200D02*
X141060000Y-85936700D01*
X144868500Y-48410200D02*
X144868500Y-82128200D01*
%TO.N,Net-(J16-Pin_5)*%
X139791600Y-70307700D02*
X139791600Y-55162100D01*
X138520000Y-71579300D02*
X139791600Y-70307700D01*
X138520000Y-88000000D02*
X138520000Y-71579300D01*
%TO.N,Net-(J3-Pin_13)*%
X156300000Y-88000000D02*
X156300000Y-89151700D01*
X155497500Y-89954200D02*
X155497500Y-92642700D01*
X156300000Y-89151700D02*
X155497500Y-89954200D01*
%TO.N,Net-(J16-Pin_2)*%
X130900000Y-88000000D02*
X130900000Y-86848300D01*
X132243900Y-85504400D02*
X132243900Y-46071700D01*
X130900000Y-86848300D02*
X132243900Y-85504400D01*
%TO.N,Net-(J16-Pin_4)*%
X135980000Y-88000000D02*
X135980000Y-86848300D01*
X137250000Y-85578300D02*
X137250000Y-54519900D01*
X135980000Y-86848300D02*
X137250000Y-85578300D01*
%TO.N,Net-(J16-Pin_1)*%
X128360000Y-88000000D02*
X128360000Y-86848300D01*
X131352600Y-56493300D02*
X131352600Y-44801900D01*
X129630000Y-58215900D02*
X131352600Y-56493300D01*
X129630000Y-85578300D02*
X129630000Y-58215900D01*
X128360000Y-86848300D02*
X129630000Y-85578300D01*
%TO.N,Net-(J16-Pin_3)*%
X133440000Y-88000000D02*
X133440000Y-86848300D01*
X136031600Y-57702100D02*
X136031600Y-50484400D01*
X134710000Y-59023700D02*
X136031600Y-57702100D01*
X134710000Y-85578300D02*
X134710000Y-59023700D01*
X133440000Y-86848300D02*
X134710000Y-85578300D01*
%TO.N,Net-(J17-Pin_2)*%
X144426100Y-86022200D02*
X143600000Y-86848300D01*
X144426100Y-83138600D02*
X144426100Y-86022200D01*
X145938300Y-81626400D02*
X144426100Y-83138600D01*
X145938300Y-65577400D02*
X145938300Y-81626400D01*
X143600000Y-88000000D02*
X143600000Y-86848300D01*
%TO.N,Net-(J2-Pin_1)*%
X129400000Y-49308300D02*
X126760000Y-51948300D01*
X129400000Y-47500000D02*
X129400000Y-49308300D01*
X126760000Y-53100000D02*
X126760000Y-51948300D01*
%TO.N,Net-(D1-A)*%
X140628100Y-44371900D02*
X140628100Y-46688200D01*
X142500000Y-42500000D02*
X140628100Y-44371900D01*
%TO.N,Net-(J4-Pin_3)*%
X176485500Y-115488300D02*
X177300000Y-115488300D01*
X175265300Y-114268100D02*
X176485500Y-115488300D01*
X175265300Y-111599800D02*
X175265300Y-114268100D01*
X174103600Y-110438100D02*
X175265300Y-111599800D01*
X173501900Y-110438100D02*
X174103600Y-110438100D01*
X172840000Y-111100000D02*
X173501900Y-110438100D01*
X177300000Y-116640000D02*
X177300000Y-115488300D01*
%TO.N,3.3V*%
X177300000Y-119180000D02*
X177300000Y-118028300D01*
X176728300Y-118028300D02*
X177300000Y-118028300D01*
X173800000Y-115100000D02*
X176728300Y-118028300D01*
X126951700Y-116796600D02*
X125800000Y-117948300D01*
X126951700Y-90283400D02*
X126951700Y-116796600D01*
X125820000Y-89151700D02*
X126951700Y-90283400D01*
X125820000Y-88000000D02*
X125820000Y-89151700D01*
X125800000Y-119100000D02*
X125800000Y-117948300D01*
X167150000Y-54680000D02*
X167150000Y-52140000D01*
X167150000Y-52140000D02*
X167150000Y-49600000D01*
X167150000Y-56100000D02*
X167150000Y-54680000D01*
X177300000Y-87515800D02*
X177300000Y-88091700D01*
X177300000Y-87515800D02*
X177300000Y-86940000D01*
X167150000Y-56100000D02*
X162850000Y-56100000D01*
X162850000Y-51150000D02*
X161300000Y-49600000D01*
X162850000Y-56100000D02*
X162850000Y-51150000D01*
X161300000Y-47325000D02*
X159200000Y-47325000D01*
X161300000Y-47100000D02*
X161300000Y-47325000D01*
X161300000Y-47325000D02*
X161300000Y-49600000D01*
X172840000Y-113100000D02*
X172254600Y-113100000D01*
X172254600Y-115521000D02*
X172254600Y-113100000D01*
X172473400Y-115739800D02*
X172254600Y-115521000D01*
X173160200Y-115739800D02*
X172473400Y-115739800D01*
X173800000Y-115100000D02*
X173160200Y-115739800D01*
X174954100Y-67490900D02*
X174954100Y-86940000D01*
X177300000Y-65145000D02*
X174954100Y-67490900D01*
X171852900Y-112698300D02*
X172254600Y-113100000D01*
X171852900Y-97871200D02*
X171852900Y-112698300D01*
X176148300Y-93575800D02*
X171852900Y-97871200D01*
X176148300Y-88955400D02*
X176148300Y-93575800D01*
X177012000Y-88091700D02*
X176148300Y-88955400D01*
X177300000Y-88091700D02*
X177012000Y-88091700D01*
X167150000Y-56100000D02*
X167150000Y-57220000D01*
X167150000Y-57220000D02*
X167150000Y-61313700D01*
%TO.N,Net-(U1-BST)*%
X159200000Y-51160000D02*
X159200000Y-49600000D01*
X158760000Y-51600000D02*
X159200000Y-51160000D01*
%TO.N,Net-(U1-SW)*%
X158250000Y-51150000D02*
X158250000Y-49600000D01*
X157800000Y-51600000D02*
X158250000Y-51150000D01*
X158750000Y-52550000D02*
X157800000Y-51600000D01*
X158750000Y-56100000D02*
X158750000Y-52550000D01*
%TO.N,Net-(J11-Pin_4)*%
X151300000Y-53000000D02*
X151300000Y-55500000D01*
X167150000Y-44920000D02*
X167150000Y-42380000D01*
X167150000Y-42380000D02*
X167150000Y-39840000D01*
X167150000Y-39840000D02*
X167150000Y-37300000D01*
X177568500Y-105668300D02*
X177300000Y-105668300D01*
X178462500Y-104774300D02*
X177568500Y-105668300D01*
X178462500Y-80842500D02*
X178462500Y-104774300D01*
X177300000Y-79680000D02*
X178462500Y-80842500D01*
X177300000Y-106820000D02*
X177300000Y-105668300D01*
X158175900Y-43150000D02*
X157800000Y-43150000D01*
X158813800Y-43787900D02*
X158175900Y-43150000D01*
X158813800Y-46252800D02*
X158813800Y-43787900D01*
X158250000Y-46816600D02*
X158813800Y-46252800D01*
X158250000Y-47325000D02*
X158250000Y-46816600D01*
X157800000Y-39600000D02*
X158800000Y-38600000D01*
X157800000Y-43150000D02*
X157800000Y-39600000D01*
X165717100Y-37018800D02*
X165998300Y-37300000D01*
X160381200Y-37018800D02*
X165717100Y-37018800D01*
X158800000Y-38600000D02*
X160381200Y-37018800D01*
X167150000Y-37300000D02*
X165998300Y-37300000D01*
X155300000Y-54960800D02*
X153707200Y-56553600D01*
X155300000Y-53960000D02*
X155300000Y-54960800D01*
X152353600Y-56553600D02*
X151300000Y-55500000D01*
X153707200Y-56553600D02*
X152353600Y-56553600D01*
X158250000Y-47325000D02*
X157300000Y-47325000D01*
X155912200Y-53347800D02*
X155300000Y-53960000D01*
X155912200Y-48712800D02*
X155912200Y-53347800D01*
X157300000Y-47325000D02*
X155912200Y-48712800D01*
X156253300Y-67669700D02*
X156253300Y-79680000D01*
X155030000Y-66446400D02*
X156253300Y-67669700D01*
X155030000Y-57876400D02*
X155030000Y-66446400D01*
X153707200Y-56553600D02*
X155030000Y-57876400D01*
%TO.N,Net-(U2-BST)*%
X160625000Y-42600000D02*
X160075000Y-43150000D01*
X162300000Y-42600000D02*
X160625000Y-42600000D01*
%TO.N,Net-(U2-SW)*%
X161760000Y-44100000D02*
X160075000Y-44100000D01*
X162300000Y-43560000D02*
X161760000Y-44100000D01*
X162987000Y-42873000D02*
X162300000Y-43560000D01*
X162987000Y-38687000D02*
X162987000Y-42873000D01*
X162900000Y-38600000D02*
X162987000Y-38687000D01*
%TO.N,GND*%
X153200000Y-55500000D02*
X153200000Y-53000000D01*
X173800000Y-114140000D02*
X172840000Y-115100000D01*
X173800000Y-113100000D02*
X173800000Y-114140000D01*
X156280000Y-91711700D02*
X156280000Y-94600000D01*
X158840000Y-89151700D02*
X156280000Y-91711700D01*
X158840000Y-88000000D02*
X158840000Y-89151700D01*
X171540000Y-58631700D02*
X171800000Y-58371700D01*
X171540000Y-62600000D02*
X171540000Y-58631700D01*
X171800000Y-42380000D02*
X171800000Y-39840000D01*
X171800000Y-39840000D02*
X171800000Y-37300000D01*
X171800000Y-42380000D02*
X171800000Y-44920000D01*
X171800000Y-57795800D02*
X171800000Y-58371700D01*
X171800000Y-57795800D02*
X171800000Y-57220000D01*
X171800000Y-57220000D02*
X171800000Y-54680000D01*
X171800000Y-54680000D02*
X171800000Y-52140000D01*
X171800000Y-52140000D02*
X171800000Y-49600000D01*
X177300000Y-97100000D02*
X177300000Y-98251700D01*
X177300000Y-67685000D02*
X177300000Y-68836700D01*
X177300000Y-82220000D02*
X177300000Y-81068300D01*
X177300000Y-81068300D02*
X176227100Y-81068300D01*
X176110200Y-70026500D02*
X177300000Y-68836700D01*
X176110200Y-80951400D02*
X176110200Y-70026500D01*
X176227100Y-81068300D02*
X176110200Y-80951400D01*
X153200000Y-53000000D02*
X155300000Y-53000000D01*
X161150000Y-45050000D02*
X160075000Y-45050000D01*
X163200000Y-47100000D02*
X161150000Y-45050000D01*
X135400000Y-51308300D02*
X134760000Y-51948300D01*
X135400000Y-47500000D02*
X135400000Y-51308300D01*
X134760000Y-53100000D02*
X134760000Y-51948300D01*
X140628100Y-55788100D02*
X140628100Y-51927300D01*
X141800000Y-56960000D02*
X140628100Y-55788100D01*
X158840000Y-66291700D02*
X158840000Y-88000000D01*
X156300000Y-63751700D02*
X158840000Y-66291700D01*
X156300000Y-63175800D02*
X156300000Y-63751700D01*
X177300000Y-114100000D02*
X177300000Y-109360000D01*
X177300000Y-109360000D02*
X177300000Y-108208300D01*
X152114200Y-44385800D02*
X153500000Y-43000000D01*
X152114200Y-51914200D02*
X152114200Y-44385800D01*
X153200000Y-53000000D02*
X152114200Y-51914200D01*
X149885800Y-51914200D02*
X148300000Y-53500000D01*
X152114200Y-51914200D02*
X149885800Y-51914200D01*
X176227100Y-83914800D02*
X176227100Y-81068300D01*
X176110100Y-84031800D02*
X176227100Y-83914800D01*
X176110100Y-87135800D02*
X176110100Y-84031800D01*
X171520000Y-91725900D02*
X176110100Y-87135800D01*
X171520000Y-94600000D02*
X171520000Y-91725900D01*
X163200000Y-49600000D02*
X163200000Y-47513000D01*
X163200000Y-47513000D02*
X163200000Y-47100000D01*
X163200000Y-47513000D02*
X171800000Y-47513000D01*
X171800000Y-44920000D02*
X171800000Y-47513000D01*
X171800000Y-47513000D02*
X171800000Y-49600000D01*
X177012100Y-108208300D02*
X176143800Y-107340000D01*
X177300000Y-108208300D02*
X177012100Y-108208300D01*
X176143800Y-99407900D02*
X177300000Y-98251700D01*
X176143800Y-107340000D02*
X176143800Y-99407900D01*
X175664500Y-107340000D02*
X176143800Y-107340000D01*
X172254600Y-110749900D02*
X175664500Y-107340000D01*
X172254600Y-111499400D02*
X172254600Y-110749900D01*
X172479800Y-111724600D02*
X172254600Y-111499400D01*
X173800000Y-111724600D02*
X172479800Y-111724600D01*
X173800000Y-111100000D02*
X173800000Y-111724600D01*
X173800000Y-111724600D02*
X173800000Y-113100000D01*
X156300000Y-63175800D02*
X156300000Y-62600000D01*
X156587900Y-50312100D02*
X157300000Y-49600000D01*
X156587900Y-61160400D02*
X156587900Y-50312100D01*
X156300000Y-61448300D02*
X156587900Y-61160400D01*
X156300000Y-62600000D02*
X156300000Y-61448300D01*
%TO.N,Net-(D1-K)*%
X148500000Y-43000000D02*
X148500000Y-44301700D01*
X146800000Y-53500000D02*
X146800000Y-46500000D01*
X146800000Y-46001700D02*
X148500000Y-44301700D01*
X146800000Y-46500000D02*
X146800000Y-46001700D01*
X148500000Y-43000000D02*
X149801700Y-43000000D01*
X157800000Y-45050000D02*
X157800000Y-44100000D01*
X151103400Y-41698300D02*
X149801700Y-43000000D01*
X154914600Y-41698300D02*
X151103400Y-41698300D01*
X157316300Y-44100000D02*
X154914600Y-41698300D01*
X157800000Y-44100000D02*
X157316300Y-44100000D01*
X143702700Y-39702700D02*
X143702700Y-46500000D01*
X142500000Y-38500000D02*
X143702700Y-39702700D01*
X143702700Y-46500000D02*
X142500000Y-46500000D01*
X146800000Y-46500000D02*
X143702700Y-46500000D01*
X143702700Y-54097300D02*
X141800000Y-56000000D01*
X143702700Y-46500000D02*
X143702700Y-54097300D01*
%TO.N,Net-(J17-Pin_5)*%
X176907200Y-66415000D02*
X177664500Y-66415000D01*
%TD*%
M02*
