M48
; DRILL file {KiCad 8.0.7} date 2025-02-18T15:16:03-0800
; FORMAT={-:-/ absolute / inch / decimal}
; #@! TF.CreationDate,2025-02-18T15:16:03-08:00
; #@! TF.GenerationSoftware,Kicad,Pcbnew,8.0.7
; #@! TF.FileFunction,Plated,1,2,PTH
FMAT,2
INCH
; #@! TA.AperFunction,Plated,PTH,ViaDrill
T1C0.0118
; #@! TA.AperFunction,Plated,PTH,ComponentDrill
T2C0.0236
; #@! TA.AperFunction,Plated,PTH,ComponentDrill
T3C0.0394
%
G90
G05
T1
X5.1035Y-2.1706
X5.3016Y-2.2458
X5.4035Y-2.2014
X5.4519Y-4.472
X5.5067Y-2.1179
X5.6051Y-2.9944
X5.6069Y-2.3418
X5.6102Y-1.7424
X5.7063Y-2.3436
X5.7068Y-3.1009
X5.7995Y-3.4399
X5.8081Y-2.6389
X6.1063Y-2.3431
X6.13Y-3.6095
X6.2126Y-1.8063
X6.4252Y-1.7232
X6.7241Y-4.2519
X6.8731Y-3.0149
X6.887Y-2.2981
X6.8961Y-2.9917
X6.9694Y-3.8938
X7.0123Y-2.7834
X7.0533Y-4.4196
X7.0581Y-3.3395
X7.0812Y-4.5398
X7.0818Y-2.9897
X7.1055Y-3.3138
X7.1129Y-4.4459
X7.158Y-4.6375
X7.252Y-4.0062
T2
X5.7795Y-2.1063
X5.8386Y-2.1063
T3
X4.9528Y-3.6811
X4.9528Y-4.6063
X4.9535Y-2.4646
X4.9535Y-3.3858
X4.9906Y-2.0906
X5.0528Y-3.6811
X5.0528Y-4.6063
X5.0535Y-2.4646
X5.0535Y-3.3858
X5.0906Y-2.0906
X5.1528Y-3.6811
X5.1528Y-4.6063
X5.1535Y-2.4646
X5.1535Y-3.3858
X5.2528Y-3.6811
X5.2528Y-4.6063
X5.2535Y-2.4646
X5.2535Y-3.3858
X5.3055Y-2.0906
X5.3528Y-3.6811
X5.3528Y-4.6063
X5.3535Y-2.4646
X5.3535Y-3.3858
X5.4055Y-2.0906
X5.4528Y-3.6811
X5.4528Y-4.6063
X5.4535Y-2.4646
X5.4535Y-3.3858
X5.5528Y-3.6811
X5.5528Y-4.6063
X5.5535Y-2.4646
X5.5535Y-3.3858
X5.6528Y-3.6811
X5.6528Y-4.6063
X5.6535Y-2.4646
X5.6535Y-3.3858
X5.7528Y-3.6811
X5.7528Y-4.6063
X5.7535Y-2.4646
X5.7535Y-3.3858
X5.8465Y-1.6929
X5.8528Y-3.6811
X5.8528Y-4.6063
X5.8535Y-2.4646
X5.8535Y-3.3858
X5.9528Y-3.6811
X5.9528Y-4.6063
X5.9535Y-2.4646
X5.9535Y-3.3858
X6.0433Y-1.6929
X6.0528Y-3.6811
X6.0528Y-4.6063
X6.0535Y-2.4646
X6.0535Y-3.3858
X6.1528Y-3.6811
X6.1528Y-4.6063
X6.1535Y-2.4646
X6.1535Y-3.3858
X6.2528Y-3.6811
X6.2528Y-4.6063
X6.2535Y-2.4646
X6.2535Y-3.3858
X6.3528Y-3.6811
X6.3528Y-4.6063
X6.3535Y-2.4646
X6.3535Y-3.3858
X6.4528Y-3.6811
X6.4528Y-4.6063
X6.4535Y-2.4646
X6.4535Y-3.3858
X6.5528Y-3.6811
X6.5528Y-4.6063
X6.5535Y-2.4646
X6.5535Y-3.3858
X6.5807Y-1.4685
X6.5807Y-1.5685
X6.5807Y-1.6685
X6.5807Y-1.7685
X6.5807Y-1.9528
X6.5807Y-2.0528
X6.5807Y-2.1528
X6.5807Y-2.2528
X6.6528Y-3.6811
X6.6528Y-4.6063
X6.6535Y-2.4646
X6.6535Y-3.3858
X6.7528Y-3.6811
X6.7528Y-4.6063
X6.7535Y-2.4646
X6.7535Y-3.3858
X6.7638Y-1.4685
X6.7638Y-1.5685
X6.7638Y-1.6685
X6.7638Y-1.7685
X6.7638Y-1.9528
X6.7638Y-2.0528
X6.7638Y-2.1528
X6.7638Y-2.2528
X6.9803Y-1.6559
X6.9803Y-1.7559
X6.9803Y-1.8559
X6.9803Y-1.9559
X6.9803Y-2.0559
X6.9803Y-2.2648
X6.9803Y-2.3648
X6.9803Y-2.4648
X6.9803Y-2.5648
X6.9803Y-2.6648
X6.9803Y-2.837
X6.9803Y-2.937
X6.9803Y-3.037
X6.9803Y-3.137
X6.9803Y-3.237
X6.9803Y-3.4228
X6.9803Y-3.5228
X6.9803Y-3.6228
X6.9803Y-3.7228
X6.9803Y-3.8228
X6.9803Y-4.0055
X6.9803Y-4.1055
X6.9803Y-4.2055
X6.9803Y-4.3055
X6.9803Y-4.4921
X6.9803Y-4.5921
X6.9803Y-4.6921
X7.2047Y-1.9244
X7.2047Y-2.0244
X7.2047Y-2.1244
X7.2047Y-2.2244
X7.2047Y-2.3244
X7.2047Y-2.5331
X7.2047Y-2.6331
X7.2047Y-2.7331
X7.2047Y-2.8331
X7.2047Y-2.9331
X7.2047Y-3.1236
X7.2047Y-3.2236
X7.2047Y-3.3236
X7.2047Y-3.4236
X7.2047Y-3.5236
X7.2047Y-3.7354
X7.2047Y-3.8354
X7.2047Y-3.9354
X7.2047Y-4.0354
X7.2047Y-4.1354
M30
