%TF.GenerationSoftware,KiCad,Pcbnew,8.0.8*%
%TF.CreationDate,2025-02-17T20:57:00-08:00*%
%TF.ProjectId,pcbfrfr,70636266-7266-4722-9e6b-696361645f70,rev?*%
%TF.SameCoordinates,Original*%
%TF.FileFunction,Copper,L2,Bot*%
%TF.FilePolarity,Positive*%
%FSLAX46Y46*%
G04 Gerber Fmt 4.6, Leading zero omitted, Abs format (unit mm)*
G04 Created by KiCad (PCBNEW 8.0.8) date 2025-02-17 20:57:00*
%MOMM*%
%LPD*%
G01*
G04 APERTURE LIST*
%TA.AperFunction,ComponentPad*%
%ADD10O,1.700000X1.700000*%
%TD*%
%TA.AperFunction,ComponentPad*%
%ADD11R,1.700000X1.700000*%
%TD*%
%TA.AperFunction,ComponentPad*%
%ADD12C,2.000000*%
%TD*%
%TA.AperFunction,ComponentPad*%
%ADD13R,2.000000X2.000000*%
%TD*%
%TA.AperFunction,ComponentPad*%
%ADD14C,1.200000*%
%TD*%
%TA.AperFunction,ComponentPad*%
%ADD15R,1.200000X1.200000*%
%TD*%
%TA.AperFunction,ViaPad*%
%ADD16C,0.600000*%
%TD*%
%TA.AperFunction,Conductor*%
%ADD17C,0.200000*%
%TD*%
G04 APERTURE END LIST*
D10*
%TO.P,J21,2,Pin_2*%
%TO.N,GND*%
X134760000Y-53100000D03*
D11*
%TO.P,J21,1,Pin_1*%
%TO.N,Net-(D3-A)*%
X137300000Y-53100000D03*
%TD*%
D10*
%TO.P,J2,2,Pin_2*%
%TO.N,Net-(D1-A)*%
X129300000Y-53100000D03*
D11*
%TO.P,J2,1,Pin_1*%
%TO.N,Net-(J2-Pin_1)*%
X126760000Y-53100000D03*
%TD*%
%TO.P,J20,1,Pin_1*%
%TO.N,Net-(J20-Pin_1)*%
X183000000Y-94880000D03*
D10*
%TO.P,J20,2,Pin_2*%
%TO.N,Net-(J20-Pin_2)*%
X183000000Y-97420000D03*
%TO.P,J20,3,Pin_3*%
%TO.N,Net-(J20-Pin_3)*%
X183000000Y-99960000D03*
%TO.P,J20,4,Pin_4*%
%TO.N,Net-(J20-Pin_4)*%
X183000000Y-102500000D03*
%TO.P,J20,5,Pin_5*%
%TO.N,Net-(J20-Pin_5)*%
X183000000Y-105040000D03*
%TD*%
D11*
%TO.P,J19,1,Pin_1*%
%TO.N,Net-(J19-Pin_1)*%
X183000000Y-79340000D03*
D10*
%TO.P,J19,2,Pin_2*%
%TO.N,Net-(J19-Pin_2)*%
X183000000Y-81880000D03*
%TO.P,J19,3,Pin_3*%
%TO.N,Net-(J19-Pin_3)*%
X183000000Y-84420000D03*
%TO.P,J19,4,Pin_4*%
%TO.N,Net-(J19-Pin_4)*%
X183000000Y-86960000D03*
%TO.P,J19,5,Pin_5*%
%TO.N,Net-(J19-Pin_5)*%
X183000000Y-89500000D03*
%TD*%
D11*
%TO.P,J18,1,Pin_1*%
%TO.N,Net-(J18-Pin_1)*%
X183000000Y-64340000D03*
D10*
%TO.P,J18,2,Pin_2*%
%TO.N,Net-(J18-Pin_2)*%
X183000000Y-66880000D03*
%TO.P,J18,3,Pin_3*%
%TO.N,Net-(J18-Pin_3)*%
X183000000Y-69420000D03*
%TO.P,J18,4,Pin_4*%
%TO.N,Net-(J18-Pin_4)*%
X183000000Y-71960000D03*
%TO.P,J18,5,Pin_5*%
%TO.N,Net-(J18-Pin_5)*%
X183000000Y-74500000D03*
%TD*%
D11*
%TO.P,J17,1,Pin_1*%
%TO.N,Net-(J17-Pin_1)*%
X183000000Y-48880000D03*
D10*
%TO.P,J17,2,Pin_2*%
%TO.N,Net-(J17-Pin_2)*%
X183000000Y-51420000D03*
%TO.P,J17,3,Pin_3*%
%TO.N,Net-(J17-Pin_3)*%
X183000000Y-53960000D03*
%TO.P,J17,4,Pin_4*%
%TO.N,Net-(J17-Pin_4)*%
X183000000Y-56500000D03*
%TO.P,J17,5,Pin_5*%
%TO.N,Net-(J17-Pin_5)*%
X183000000Y-59040000D03*
%TD*%
D11*
%TO.P,J16,1,Pin_1*%
%TO.N,Net-(J16-Pin_1)*%
X177300000Y-42060000D03*
D10*
%TO.P,J16,2,Pin_2*%
%TO.N,Net-(J16-Pin_2)*%
X177300000Y-44600000D03*
%TO.P,J16,3,Pin_3*%
%TO.N,Net-(J16-Pin_3)*%
X177300000Y-47140000D03*
%TO.P,J16,4,Pin_4*%
%TO.N,Net-(J16-Pin_4)*%
X177300000Y-49680000D03*
%TO.P,J16,5,Pin_5*%
%TO.N,Net-(J16-Pin_5)*%
X177300000Y-52220000D03*
%TD*%
D11*
%TO.P,J15,1,Pin_1*%
%TO.N,GND*%
X171800000Y-49600000D03*
D10*
%TO.P,J15,2,Pin_2*%
X171800000Y-52140000D03*
%TO.P,J15,3,Pin_3*%
X171800000Y-54680000D03*
%TO.P,J15,4,Pin_4*%
X171800000Y-57220000D03*
%TD*%
D11*
%TO.P,J14,1,Pin_1*%
%TO.N,3.3V*%
X167150000Y-49600000D03*
D10*
%TO.P,J14,2,Pin_2*%
X167150000Y-52140000D03*
%TO.P,J14,3,Pin_3*%
X167150000Y-54680000D03*
%TO.P,J14,4,Pin_4*%
X167150000Y-57220000D03*
%TD*%
D11*
%TO.P,J13,1,Pin_1*%
%TO.N,GND*%
X171800000Y-37300000D03*
D10*
%TO.P,J13,2,Pin_2*%
X171800000Y-39840000D03*
%TO.P,J13,3,Pin_3*%
X171800000Y-42380000D03*
%TO.P,J13,4,Pin_4*%
X171800000Y-44920000D03*
%TD*%
D11*
%TO.P,J12,1,Pin_1*%
%TO.N,Net-(J11-Pin_4)*%
X167150000Y-37300000D03*
D10*
%TO.P,J12,2,Pin_2*%
X167150000Y-39840000D03*
%TO.P,J12,3,Pin_3*%
X167150000Y-42380000D03*
%TO.P,J12,4,Pin_4*%
X167150000Y-44920000D03*
%TD*%
D11*
%TO.P,J11,1,Pin_1*%
%TO.N,Net-(J11-Pin_1)*%
X177300000Y-72060000D03*
D10*
%TO.P,J11,2,Pin_2*%
%TO.N,Net-(J11-Pin_2)*%
X177300000Y-74600000D03*
%TO.P,J11,3,Pin_3*%
%TO.N,Net-(J11-Pin_3)*%
X177300000Y-77140000D03*
%TO.P,J11,4,Pin_4*%
%TO.N,Net-(J11-Pin_4)*%
X177300000Y-79680000D03*
%TO.P,J11,5,Pin_5*%
%TO.N,GND*%
X177300000Y-82220000D03*
%TD*%
D11*
%TO.P,J10,1,Pin_1*%
%TO.N,Net-(J10-Pin_1)*%
X177300000Y-57525000D03*
D10*
%TO.P,J10,2,Pin_2*%
%TO.N,Net-(J10-Pin_2)*%
X177300000Y-60065000D03*
%TO.P,J10,3,Pin_3*%
%TO.N,Net-(J10-Pin_3)*%
X177300000Y-62605000D03*
%TO.P,J10,4,Pin_4*%
%TO.N,3.3V*%
X177300000Y-65145000D03*
%TO.P,J10,5,Pin_5*%
%TO.N,GND*%
X177300000Y-67685000D03*
%TD*%
D11*
%TO.P,J9,1,Pin_1*%
%TO.N,GND*%
X177300000Y-114100000D03*
D10*
%TO.P,J9,2,Pin_2*%
%TO.N,Net-(J4-Pin_3)*%
X177300000Y-116640000D03*
%TO.P,J9,3,Pin_3*%
%TO.N,3.3V*%
X177300000Y-119180000D03*
%TD*%
%TO.P,J7,19,Pin_19*%
%TO.N,GND*%
X171540000Y-62600000D03*
%TO.P,J7,18,Pin_18*%
%TO.N,Net-(J18-Pin_5)*%
X169000000Y-62600000D03*
%TO.P,J7,17,Pin_17*%
%TO.N,Net-(J18-Pin_4)*%
X166460000Y-62600000D03*
%TO.P,J7,16,Pin_16*%
%TO.N,Net-(J18-Pin_3)*%
X163920000Y-62600000D03*
%TO.P,J7,15,Pin_15*%
%TO.N,Net-(J18-Pin_2)*%
X161380000Y-62600000D03*
%TO.P,J7,14,Pin_14*%
%TO.N,Net-(J18-Pin_1)*%
X158840000Y-62600000D03*
%TO.P,J7,13,Pin_13*%
%TO.N,GND*%
X156300000Y-62600000D03*
%TO.P,J7,12,Pin_12*%
%TO.N,unconnected-(J7-Pin_12-Pad12)*%
X153760000Y-62600000D03*
%TO.P,J7,11,Pin_11*%
%TO.N,unconnected-(J7-Pin_11-Pad11)*%
X151220000Y-62600000D03*
%TO.P,J7,10,Pin_10*%
%TO.N,Net-(J5-Pin_12)*%
X148680000Y-62600000D03*
%TO.P,J7,9,Pin_9*%
%TO.N,Net-(J5-Pin_11)*%
X146140000Y-62600000D03*
%TO.P,J7,8,Pin_8*%
%TO.N,unconnected-(J7-Pin_8-Pad8)*%
X143600000Y-62600000D03*
%TO.P,J7,7,Pin_7*%
%TO.N,unconnected-(J7-Pin_7-Pad7)*%
X141060000Y-62600000D03*
%TO.P,J7,6,Pin_6*%
%TO.N,unconnected-(J7-Pin_6-Pad6)*%
X138520000Y-62600000D03*
%TO.P,J7,5,Pin_5*%
%TO.N,Net-(J6-Pin_2)*%
X135980000Y-62600000D03*
%TO.P,J7,4,Pin_4*%
%TO.N,unconnected-(J7-Pin_4-Pad4)*%
X133440000Y-62600000D03*
%TO.P,J7,3,Pin_3*%
%TO.N,unconnected-(J7-Pin_3-Pad3)*%
X130900000Y-62600000D03*
%TO.P,J7,2,Pin_2*%
%TO.N,unconnected-(J7-Pin_2-Pad2)*%
X128360000Y-62600000D03*
D11*
%TO.P,J7,1,Pin_1*%
%TO.N,unconnected-(J7-Pin_1-Pad1)*%
X125820000Y-62600000D03*
%TD*%
%TO.P,J6,1,Pin_1*%
%TO.N,3.3V*%
X177300000Y-86940000D03*
D10*
%TO.P,J6,2,Pin_2*%
%TO.N,Net-(J6-Pin_2)*%
X177300000Y-89480000D03*
%TO.P,J6,3,Pin_3*%
%TO.N,Net-(J3-Pin_15)*%
X177300000Y-92020000D03*
%TO.P,J6,4,Pin_4*%
%TO.N,Net-(J3-Pin_13)*%
X177300000Y-94560000D03*
%TO.P,J6,5,Pin_5*%
%TO.N,GND*%
X177300000Y-97100000D03*
%TD*%
%TO.P,J5,19,Pin_19*%
%TO.N,GND*%
X171520000Y-94600000D03*
%TO.P,J5,18,Pin_18*%
%TO.N,Net-(J20-Pin_5)*%
X168980000Y-94600000D03*
%TO.P,J5,17,Pin_17*%
%TO.N,Net-(J5-Pin_17)*%
X166440000Y-94600000D03*
%TO.P,J5,16,Pin_16*%
%TO.N,Net-(J20-Pin_4)*%
X163900000Y-94600000D03*
%TO.P,J5,15,Pin_15*%
%TO.N,Net-(J20-Pin_3)*%
X161360000Y-94600000D03*
%TO.P,J5,14,Pin_14*%
%TO.N,Net-(J5-Pin_14)*%
X158820000Y-94600000D03*
%TO.P,J5,13,Pin_13*%
%TO.N,GND*%
X156280000Y-94600000D03*
%TO.P,J5,12,Pin_12*%
%TO.N,Net-(J5-Pin_12)*%
X153740000Y-94600000D03*
%TO.P,J5,11,Pin_11*%
%TO.N,Net-(J5-Pin_11)*%
X151200000Y-94600000D03*
%TO.P,J5,10,Pin_10*%
%TO.N,Net-(J20-Pin_2)*%
X148660000Y-94600000D03*
%TO.P,J5,9,Pin_9*%
%TO.N,Net-(J20-Pin_1)*%
X146120000Y-94600000D03*
%TO.P,J5,8,Pin_8*%
%TO.N,unconnected-(J5-Pin_8-Pad8)*%
X143580000Y-94600000D03*
%TO.P,J5,7,Pin_7*%
%TO.N,Net-(J10-Pin_3)*%
X141040000Y-94600000D03*
%TO.P,J5,6,Pin_6*%
%TO.N,unconnected-(J5-Pin_6-Pad6)*%
X138500000Y-94600000D03*
%TO.P,J5,5,Pin_5*%
%TO.N,unconnected-(J5-Pin_5-Pad5)*%
X135960000Y-94600000D03*
%TO.P,J5,4,Pin_4*%
%TO.N,unconnected-(J5-Pin_4-Pad4)*%
X133420000Y-94600000D03*
%TO.P,J5,3,Pin_3*%
%TO.N,unconnected-(J5-Pin_3-Pad3)*%
X130880000Y-94600000D03*
%TO.P,J5,2,Pin_2*%
%TO.N,unconnected-(J5-Pin_2-Pad2)*%
X128340000Y-94600000D03*
D11*
%TO.P,J5,1,Pin_1*%
%TO.N,unconnected-(J5-Pin_1-Pad1)*%
X125800000Y-94600000D03*
%TD*%
D10*
%TO.P,J4,19,Pin_19*%
%TO.N,unconnected-(J4-Pin_19-Pad19)*%
X171520000Y-119100000D03*
%TO.P,J4,18,Pin_18*%
%TO.N,unconnected-(J4-Pin_18-Pad18)*%
X168980000Y-119100000D03*
%TO.P,J4,17,Pin_17*%
%TO.N,unconnected-(J4-Pin_17-Pad17)*%
X166440000Y-119100000D03*
%TO.P,J4,16,Pin_16*%
%TO.N,unconnected-(J4-Pin_16-Pad16)*%
X163900000Y-119100000D03*
%TO.P,J4,15,Pin_15*%
%TO.N,unconnected-(J4-Pin_15-Pad15)*%
X161360000Y-119100000D03*
%TO.P,J4,14,Pin_14*%
%TO.N,GND*%
X158820000Y-119100000D03*
%TO.P,J4,13,Pin_13*%
%TO.N,unconnected-(J4-Pin_13-Pad13)*%
X156280000Y-119100000D03*
%TO.P,J4,12,Pin_12*%
%TO.N,Net-(J19-Pin_5)*%
X153740000Y-119100000D03*
%TO.P,J4,11,Pin_11*%
%TO.N,Net-(J10-Pin_1)*%
X151200000Y-119100000D03*
%TO.P,J4,10,Pin_10*%
%TO.N,Net-(J10-Pin_2)*%
X148660000Y-119100000D03*
%TO.P,J4,9,Pin_9*%
%TO.N,Net-(J11-Pin_3)*%
X146120000Y-119100000D03*
%TO.P,J4,8,Pin_8*%
%TO.N,Net-(J11-Pin_2)*%
X143580000Y-119100000D03*
%TO.P,J4,7,Pin_7*%
%TO.N,Net-(J11-Pin_1)*%
X141040000Y-119100000D03*
%TO.P,J4,6,Pin_6*%
%TO.N,Net-(J19-Pin_4)*%
X138500000Y-119100000D03*
%TO.P,J4,5,Pin_5*%
%TO.N,Net-(J19-Pin_3)*%
X135960000Y-119100000D03*
%TO.P,J4,4,Pin_4*%
%TO.N,Net-(J19-Pin_2)*%
X133420000Y-119100000D03*
%TO.P,J4,3,Pin_3*%
%TO.N,Net-(J4-Pin_3)*%
X130880000Y-119100000D03*
%TO.P,J4,2,Pin_2*%
%TO.N,Net-(J19-Pin_1)*%
X128340000Y-119100000D03*
D11*
%TO.P,J4,1,Pin_1*%
%TO.N,3.3V*%
X125800000Y-119100000D03*
%TD*%
D10*
%TO.P,J3,19,Pin_19*%
%TO.N,unconnected-(J3-Pin_19-Pad19)*%
X171540000Y-88000000D03*
%TO.P,J3,18,Pin_18*%
%TO.N,unconnected-(J3-Pin_18-Pad18)*%
X169000000Y-88000000D03*
%TO.P,J3,17,Pin_17*%
%TO.N,unconnected-(J3-Pin_17-Pad17)*%
X166460000Y-88000000D03*
%TO.P,J3,16,Pin_16*%
%TO.N,unconnected-(J3-Pin_16-Pad16)*%
X163920000Y-88000000D03*
%TO.P,J3,15,Pin_15*%
%TO.N,Net-(J3-Pin_15)*%
X161380000Y-88000000D03*
%TO.P,J3,14,Pin_14*%
%TO.N,GND*%
X158840000Y-88000000D03*
%TO.P,J3,13,Pin_13*%
%TO.N,Net-(J3-Pin_13)*%
X156300000Y-88000000D03*
%TO.P,J3,12,Pin_12*%
%TO.N,unconnected-(J3-Pin_12-Pad12)*%
X153760000Y-88000000D03*
%TO.P,J3,11,Pin_11*%
%TO.N,Net-(J17-Pin_5)*%
X151220000Y-88000000D03*
%TO.P,J3,10,Pin_10*%
%TO.N,Net-(J17-Pin_4)*%
X148680000Y-88000000D03*
%TO.P,J3,9,Pin_9*%
%TO.N,Net-(J17-Pin_3)*%
X146140000Y-88000000D03*
%TO.P,J3,8,Pin_8*%
%TO.N,Net-(J17-Pin_2)*%
X143600000Y-88000000D03*
%TO.P,J3,7,Pin_7*%
%TO.N,Net-(J17-Pin_1)*%
X141060000Y-88000000D03*
%TO.P,J3,6,Pin_6*%
%TO.N,Net-(J16-Pin_5)*%
X138520000Y-88000000D03*
%TO.P,J3,5,Pin_5*%
%TO.N,Net-(J16-Pin_4)*%
X135980000Y-88000000D03*
%TO.P,J3,4,Pin_4*%
%TO.N,Net-(J16-Pin_3)*%
X133440000Y-88000000D03*
%TO.P,J3,3,Pin_3*%
%TO.N,Net-(J16-Pin_2)*%
X130900000Y-88000000D03*
%TO.P,J3,2,Pin_2*%
%TO.N,Net-(J16-Pin_1)*%
X128360000Y-88000000D03*
D11*
%TO.P,J3,1,Pin_1*%
%TO.N,3.3V*%
X125820000Y-88000000D03*
%TD*%
D12*
%TO.P,C5,2*%
%TO.N,GND*%
X153500000Y-43000000D03*
D13*
%TO.P,C5,1*%
%TO.N,Net-(D1-K)*%
X148500000Y-43000000D03*
%TD*%
D14*
%TO.P,C1,2*%
%TO.N,GND*%
X148300000Y-53500000D03*
D15*
%TO.P,C1,1*%
%TO.N,Net-(D1-K)*%
X146800000Y-53500000D03*
%TD*%
D11*
%TO.P,J8,1,Pin_1*%
%TO.N,Net-(J5-Pin_17)*%
X177300000Y-101740000D03*
D10*
%TO.P,J8,2,Pin_2*%
%TO.N,Net-(J5-Pin_14)*%
X177300000Y-104280000D03*
%TO.P,J8,3,Pin_3*%
%TO.N,Net-(J11-Pin_4)*%
X177300000Y-106820000D03*
%TO.P,J8,4,Pin_4*%
%TO.N,GND*%
X177300000Y-109360000D03*
%TD*%
D16*
%TO.N,Net-(J18-Pin_5)*%
X169000000Y-73441900D03*
%TO.N,Net-(J18-Pin_4)*%
X167827500Y-70570200D03*
%TO.N,Net-(J6-Pin_2)*%
X173021500Y-72840200D03*
X173021500Y-88585500D03*
%TO.N,Net-(J5-Pin_17)*%
X166761600Y-101740000D03*
%TO.N,Net-(J20-Pin_5)*%
X168980000Y-103009900D03*
%TO.N,Net-(J10-Pin_3)*%
X172046800Y-90239800D03*
%TO.N,Net-(J5-Pin_14)*%
X158191900Y-104280000D03*
%TO.N,Net-(J19-Pin_5)*%
X179861500Y-110288500D03*
%TO.N,Net-(J11-Pin_3)*%
X152376500Y-78982100D03*
%TO.N,Net-(J19-Pin_1)*%
X184607700Y-117864500D03*
%TO.N,Net-(J10-Pin_2)*%
X167827500Y-115885300D03*
%TO.N,Net-(J11-Pin_2)*%
X147390000Y-77386700D03*
%TO.N,Net-(J19-Pin_3)*%
X135960000Y-96814600D03*
%TO.N,Net-(J19-Pin_2)*%
X134690000Y-89151700D03*
%TO.N,Net-(J11-Pin_1)*%
X146978400Y-71864400D03*
%TO.N,Net-(J19-Pin_4)*%
X180566400Y-107994900D03*
%TO.N,Net-(J17-Pin_5)*%
X151220000Y-86632700D03*
X175625400Y-83665600D03*
%TO.N,Net-(J17-Pin_3)*%
X184572100Y-77380200D03*
%TO.N,Net-(J17-Pin_4)*%
X179866900Y-80950000D03*
%TO.N,Net-(J17-Pin_1)*%
X144868500Y-48410200D03*
%TO.N,Net-(J16-Pin_5)*%
X139791600Y-55162100D03*
%TO.N,Net-(J3-Pin_13)*%
X155497500Y-92642700D03*
%TO.N,Net-(J16-Pin_2)*%
X132243900Y-46071700D03*
%TO.N,Net-(J16-Pin_4)*%
X137250000Y-54519900D03*
%TO.N,Net-(J16-Pin_1)*%
X131352600Y-44801900D03*
%TO.N,Net-(J16-Pin_3)*%
X136031600Y-50484400D03*
%TO.N,Net-(J17-Pin_2)*%
X145938300Y-65577400D03*
%TO.N,Net-(D1-A)*%
X140628100Y-46688200D03*
%TO.N,3.3V*%
X174954100Y-86940000D03*
X167150000Y-61313700D03*
%TO.N,Net-(J11-Pin_4)*%
X156253300Y-79680000D03*
%TO.N,GND*%
X140628100Y-51927300D03*
%TD*%
D17*
%TO.N,Net-(J18-Pin_3)*%
X162762000Y-61442000D02*
X163920000Y-62600000D01*
X160867900Y-61442000D02*
X162762000Y-61442000D01*
X160214900Y-62095000D02*
X160867900Y-61442000D01*
X160214900Y-63128100D02*
X160214900Y-62095000D01*
X166506800Y-69420000D02*
X160214900Y-63128100D01*
X183000000Y-69420000D02*
X166506800Y-69420000D01*
%TO.N,Net-(J18-Pin_1)*%
X183000000Y-64340000D02*
X181848300Y-64340000D01*
X160731700Y-60708300D02*
X158840000Y-62600000D01*
X168076700Y-60708300D02*
X160731700Y-60708300D01*
X168408600Y-61040200D02*
X168076700Y-60708300D01*
X171565500Y-61040200D02*
X168408600Y-61040200D01*
X171705000Y-60900700D02*
X171565500Y-61040200D01*
X172037600Y-60900700D02*
X171705000Y-60900700D01*
X175010500Y-63873600D02*
X172037600Y-60900700D01*
X181381900Y-63873600D02*
X175010500Y-63873600D01*
X181848300Y-64340000D02*
X181381900Y-63873600D01*
%TO.N,Net-(J18-Pin_2)*%
X161380000Y-62600000D02*
X162531700Y-62600000D01*
X183000000Y-66880000D02*
X181848300Y-66880000D01*
X179891600Y-68836700D02*
X181848300Y-66880000D01*
X168480500Y-68836700D02*
X179891600Y-68836700D01*
X162531700Y-62887900D02*
X168480500Y-68836700D01*
X162531700Y-62600000D02*
X162531700Y-62887900D01*
%TO.N,Net-(J18-Pin_5)*%
X183000000Y-74500000D02*
X181848300Y-74500000D01*
X180790200Y-73441900D02*
X169000000Y-73441900D01*
X181848300Y-74500000D02*
X180790200Y-73441900D01*
%TO.N,Net-(J18-Pin_4)*%
X180458500Y-70570200D02*
X167827500Y-70570200D01*
X181848300Y-71960000D02*
X180458500Y-70570200D01*
X183000000Y-71960000D02*
X181848300Y-71960000D01*
%TO.N,Net-(J6-Pin_2)*%
X175253800Y-88585500D02*
X176148300Y-89480000D01*
X173021500Y-88585500D02*
X175253800Y-88585500D01*
X177300000Y-89480000D02*
X176148300Y-89480000D01*
X135980000Y-62600000D02*
X137131700Y-62600000D01*
X147084000Y-72840200D02*
X173021500Y-72840200D01*
X137131700Y-62887900D02*
X147084000Y-72840200D01*
X137131700Y-62600000D02*
X137131700Y-62887900D01*
%TO.N,Net-(J20-Pin_3)*%
X161360000Y-94600000D02*
X162511700Y-94600000D01*
X162511700Y-94849200D02*
X162511700Y-94600000D01*
X167622500Y-99960000D02*
X162511700Y-94849200D01*
X183000000Y-99960000D02*
X167622500Y-99960000D01*
%TO.N,Net-(J20-Pin_1)*%
X146120000Y-94600000D02*
X147271700Y-94600000D01*
X183000000Y-94880000D02*
X181848300Y-94880000D01*
X147271700Y-94312100D02*
X147271700Y-94600000D01*
X148950800Y-92633000D02*
X147271700Y-94312100D01*
X154656500Y-92633000D02*
X148950800Y-92633000D01*
X154656500Y-92632900D02*
X154656500Y-92633000D01*
X155254900Y-92034500D02*
X154656500Y-92632900D01*
X175438200Y-92034500D02*
X155254900Y-92034500D01*
X176586200Y-93182500D02*
X175438200Y-92034500D01*
X180150800Y-93182500D02*
X176586200Y-93182500D01*
X181848300Y-94880000D02*
X180150800Y-93182500D01*
%TO.N,Net-(J5-Pin_17)*%
X177300000Y-101740000D02*
X166761600Y-101740000D01*
%TO.N,Net-(J20-Pin_5)*%
X183000000Y-105040000D02*
X181848300Y-105040000D01*
X179818200Y-103009900D02*
X168980000Y-103009900D01*
X181848300Y-105040000D02*
X179818200Y-103009900D01*
%TO.N,Net-(J20-Pin_2)*%
X180258300Y-95830000D02*
X181848300Y-97420000D01*
X175993600Y-95830000D02*
X180258300Y-95830000D01*
X173201600Y-93038000D02*
X175993600Y-95830000D01*
X156918400Y-93038000D02*
X173201600Y-93038000D01*
X156508100Y-93448300D02*
X156918400Y-93038000D01*
X150675400Y-93448300D02*
X156508100Y-93448300D01*
X149811700Y-94312000D02*
X150675400Y-93448300D01*
X149811700Y-94600000D02*
X149811700Y-94312000D01*
X148660000Y-94600000D02*
X149811700Y-94600000D01*
X183000000Y-97420000D02*
X181848300Y-97420000D01*
%TO.N,Net-(J10-Pin_3)*%
X141040000Y-94600000D02*
X142191700Y-94600000D01*
X171692400Y-90594200D02*
X172046800Y-90239800D01*
X145929000Y-90594200D02*
X171692400Y-90594200D01*
X142191700Y-94331500D02*
X145929000Y-90594200D01*
X142191700Y-94600000D02*
X142191700Y-94331500D01*
%TO.N,Net-(J5-Pin_14)*%
X177300000Y-104280000D02*
X176148300Y-104280000D01*
X176148300Y-104280000D02*
X158191900Y-104280000D01*
%TO.N,Net-(J20-Pin_4)*%
X163900000Y-94600000D02*
X165051700Y-94600000D01*
X165051700Y-94887900D02*
X165051700Y-94600000D01*
X168925300Y-98761500D02*
X165051700Y-94887900D01*
X183486000Y-98761500D02*
X168925300Y-98761500D01*
X184206700Y-99482200D02*
X183486000Y-98761500D01*
X184206700Y-100429500D02*
X184206700Y-99482200D01*
X183287900Y-101348300D02*
X184206700Y-100429500D01*
X183000000Y-101348300D02*
X183287900Y-101348300D01*
X183000000Y-102500000D02*
X183000000Y-101348300D01*
%TO.N,Net-(J19-Pin_5)*%
X153740000Y-119100000D02*
X154891700Y-119100000D01*
X178380400Y-110288500D02*
X179861500Y-110288500D01*
X171524000Y-117144900D02*
X178380400Y-110288500D01*
X156558800Y-117144900D02*
X171524000Y-117144900D01*
X154891700Y-118812000D02*
X156558800Y-117144900D01*
X154891700Y-119100000D02*
X154891700Y-118812000D01*
%TO.N,Net-(J11-Pin_3)*%
X153516000Y-77842600D02*
X152376500Y-78982100D01*
X175445700Y-77842600D02*
X153516000Y-77842600D01*
X176148300Y-77140000D02*
X175445700Y-77842600D01*
X177300000Y-77140000D02*
X176148300Y-77140000D01*
%TO.N,Net-(J19-Pin_1)*%
X128340000Y-119100000D02*
X129491700Y-119100000D01*
X176643500Y-117864500D02*
X184607700Y-117864500D01*
X173847600Y-120660400D02*
X176643500Y-117864500D01*
X130741600Y-120660400D02*
X173847600Y-120660400D01*
X129491700Y-119410500D02*
X130741600Y-120660400D01*
X129491700Y-119100000D02*
X129491700Y-119410500D01*
%TO.N,Net-(J10-Pin_2)*%
X152738500Y-115885300D02*
X167827500Y-115885300D01*
X149811700Y-118812100D02*
X152738500Y-115885300D01*
X149811700Y-119100000D02*
X149811700Y-118812100D01*
X148660000Y-119100000D02*
X149811700Y-119100000D01*
%TO.N,Net-(J11-Pin_2)*%
X177300000Y-74600000D02*
X176148300Y-74600000D01*
X173361600Y-77386700D02*
X147390000Y-77386700D01*
X176148300Y-74600000D02*
X173361600Y-77386700D01*
%TO.N,Net-(J19-Pin_3)*%
X183000000Y-84420000D02*
X181848300Y-84420000D01*
X181480200Y-84788100D02*
X181848300Y-84420000D01*
X157883100Y-84788100D02*
X181480200Y-84788100D01*
X155030000Y-87641200D02*
X157883100Y-84788100D01*
X155030000Y-88395700D02*
X155030000Y-87641200D01*
X153321800Y-90103900D02*
X155030000Y-88395700D01*
X141347400Y-90103900D02*
X153321800Y-90103900D01*
X137111700Y-94339600D02*
X141347400Y-90103900D01*
X137111700Y-95662900D02*
X137111700Y-94339600D01*
X135960000Y-96814600D02*
X137111700Y-95662900D01*
%TO.N,Net-(J19-Pin_2)*%
X151791700Y-89151700D02*
X134690000Y-89151700D01*
X152490000Y-88453400D02*
X151791700Y-89151700D01*
X152490000Y-87557600D02*
X152490000Y-88453400D01*
X155757000Y-84290600D02*
X152490000Y-87557600D01*
X179437700Y-84290600D02*
X155757000Y-84290600D01*
X181848300Y-81880000D02*
X179437700Y-84290600D01*
X183000000Y-81880000D02*
X181848300Y-81880000D01*
%TO.N,Net-(J11-Pin_1)*%
X175952700Y-71864400D02*
X146978400Y-71864400D01*
X176148300Y-72060000D02*
X175952700Y-71864400D01*
X177300000Y-72060000D02*
X176148300Y-72060000D01*
%TO.N,Net-(J19-Pin_4)*%
X150468900Y-107994900D02*
X180566400Y-107994900D01*
X139651700Y-118812100D02*
X150468900Y-107994900D01*
X139651700Y-119100000D02*
X139651700Y-118812100D01*
X138500000Y-119100000D02*
X139651700Y-119100000D01*
%TO.N,Net-(J17-Pin_5)*%
X154187100Y-83665600D02*
X151220000Y-86632700D01*
X175625400Y-83665600D02*
X154187100Y-83665600D01*
%TO.N,Net-(J17-Pin_3)*%
X146140000Y-88000000D02*
X147291700Y-88000000D01*
X182833100Y-77380200D02*
X184572100Y-77380200D01*
X181803300Y-78410000D02*
X182833100Y-77380200D01*
X156593800Y-78410000D02*
X181803300Y-78410000D01*
X147291700Y-87712100D02*
X156593800Y-78410000D01*
X147291700Y-88000000D02*
X147291700Y-87712100D01*
%TO.N,Net-(J3-Pin_15)*%
X161380000Y-88000000D02*
X162531700Y-88000000D01*
X177300000Y-92020000D02*
X176148300Y-92020000D01*
X173315500Y-89187200D02*
X176148300Y-92020000D01*
X163417300Y-89187200D02*
X173315500Y-89187200D01*
X162531700Y-88301600D02*
X163417300Y-89187200D01*
X162531700Y-88000000D02*
X162531700Y-88301600D01*
%TO.N,Net-(J17-Pin_4)*%
X156017900Y-80950000D02*
X179866900Y-80950000D01*
X149831700Y-87136200D02*
X156017900Y-80950000D01*
X149831700Y-88000000D02*
X149831700Y-87136200D01*
X148680000Y-88000000D02*
X149831700Y-88000000D01*
%TO.N,Net-(J17-Pin_1)*%
X183000000Y-48880000D02*
X181848300Y-48880000D01*
X181378500Y-48410200D02*
X144868500Y-48410200D01*
X181848300Y-48880000D02*
X181378500Y-48410200D01*
%TO.N,Net-(J16-Pin_5)*%
X177300000Y-52220000D02*
X176148300Y-52220000D01*
X148481200Y-55162100D02*
X139791600Y-55162100D01*
X150271600Y-53371700D02*
X148481200Y-55162100D01*
X174996600Y-53371700D02*
X150271600Y-53371700D01*
X176148300Y-52220000D02*
X174996600Y-53371700D01*
%TO.N,Net-(J3-Pin_13)*%
X177300000Y-94560000D02*
X176148300Y-94560000D01*
X155549100Y-92591100D02*
X155497500Y-92642700D01*
X174179400Y-92591100D02*
X155549100Y-92591100D01*
X176148300Y-94560000D02*
X174179400Y-92591100D01*
%TO.N,Net-(J16-Pin_2)*%
X177300000Y-44600000D02*
X176148300Y-44600000D01*
X174676600Y-46071700D02*
X132243900Y-46071700D01*
X176148300Y-44600000D02*
X174676600Y-46071700D01*
%TO.N,Net-(J16-Pin_4)*%
X177300000Y-49680000D02*
X176148300Y-49680000D01*
X145501100Y-54519900D02*
X137250000Y-54519900D01*
X145576000Y-54594800D02*
X145501100Y-54519900D01*
X148480500Y-54594800D02*
X145576000Y-54594800D01*
X149206800Y-53868500D02*
X148480500Y-54594800D01*
X149206800Y-53760300D02*
X149206800Y-53868500D01*
X152135400Y-50831700D02*
X149206800Y-53760300D01*
X174996600Y-50831700D02*
X152135400Y-50831700D01*
X176148300Y-49680000D02*
X174996600Y-50831700D01*
%TO.N,Net-(J16-Pin_1)*%
X153539100Y-44801900D02*
X131352600Y-44801900D01*
X154691100Y-43649900D02*
X153539100Y-44801900D01*
X174558400Y-43649900D02*
X154691100Y-43649900D01*
X176148300Y-42060000D02*
X174558400Y-43649900D01*
X177300000Y-42060000D02*
X176148300Y-42060000D01*
%TO.N,Net-(J16-Pin_3)*%
X175821900Y-47466400D02*
X176148300Y-47140000D01*
X139049600Y-47466400D02*
X175821900Y-47466400D01*
X136031600Y-50484400D02*
X139049600Y-47466400D01*
X177300000Y-47140000D02*
X176148300Y-47140000D01*
%TO.N,Net-(J17-Pin_2)*%
X183000000Y-51420000D02*
X181848300Y-51420000D01*
X147410000Y-64105700D02*
X145938300Y-65577400D01*
X147410000Y-62224800D02*
X147410000Y-64105700D01*
X153684800Y-55950000D02*
X147410000Y-62224800D01*
X177318300Y-55950000D02*
X153684800Y-55950000D01*
X181848300Y-51420000D02*
X177318300Y-55950000D01*
%TO.N,Net-(D1-A)*%
X136863500Y-46688200D02*
X140628100Y-46688200D01*
X130451700Y-53100000D02*
X136863500Y-46688200D01*
X129300000Y-53100000D02*
X130451700Y-53100000D01*
%TO.N,Net-(J4-Pin_3)*%
X174296100Y-116640000D02*
X177300000Y-116640000D01*
X172987800Y-117948300D02*
X174296100Y-116640000D01*
X168486700Y-117948300D02*
X172987800Y-117948300D01*
X167710000Y-118725000D02*
X168486700Y-117948300D01*
X167710000Y-119500600D02*
X167710000Y-118725000D01*
X166951900Y-120258700D02*
X167710000Y-119500600D01*
X132902500Y-120258700D02*
X166951900Y-120258700D01*
X132031700Y-119387900D02*
X132902500Y-120258700D01*
X132031700Y-119100000D02*
X132031700Y-119387900D01*
X130880000Y-119100000D02*
X132031700Y-119100000D01*
%TO.N,3.3V*%
X125800000Y-119100000D02*
X126951700Y-119100000D01*
X177300000Y-119180000D02*
X176148300Y-119180000D01*
X174266200Y-121062100D02*
X176148300Y-119180000D01*
X128654600Y-121062100D02*
X174266200Y-121062100D01*
X126951700Y-119359200D02*
X128654600Y-121062100D01*
X126951700Y-119100000D02*
X126951700Y-119359200D01*
X177300000Y-86940000D02*
X176148300Y-86940000D01*
X176148300Y-86940000D02*
X174954100Y-86940000D01*
X167281300Y-61445000D02*
X167150000Y-61313700D01*
X172013800Y-61445000D02*
X167281300Y-61445000D01*
X174844100Y-64275300D02*
X172013800Y-61445000D01*
X176430300Y-64275300D02*
X174844100Y-64275300D01*
X177300000Y-65145000D02*
X176430300Y-64275300D01*
%TO.N,Net-(J11-Pin_4)*%
X177300000Y-79680000D02*
X156253300Y-79680000D01*
%TO.N,GND*%
X134760000Y-53100000D02*
X135911700Y-53100000D01*
X158820000Y-119100000D02*
X159971700Y-119100000D01*
X177300000Y-114100000D02*
X176148300Y-114100000D01*
X177300000Y-97100000D02*
X176148300Y-97100000D01*
X156300000Y-62600000D02*
X157451700Y-62600000D01*
X148300000Y-53275000D02*
X148300000Y-53500000D01*
X146952300Y-51927300D02*
X148300000Y-53275000D01*
X140628100Y-51927300D02*
X146952300Y-51927300D01*
X136269900Y-51927300D02*
X140628100Y-51927300D01*
X135911700Y-52285500D02*
X136269900Y-51927300D01*
X135911700Y-53100000D02*
X135911700Y-52285500D01*
X173648300Y-94600000D02*
X171520000Y-94600000D01*
X176148300Y-97100000D02*
X173648300Y-94600000D01*
X156280000Y-94600000D02*
X157431700Y-94600000D01*
X172701700Y-117546600D02*
X176148300Y-114100000D01*
X161223500Y-117546600D02*
X172701700Y-117546600D01*
X159971700Y-118798400D02*
X161223500Y-117546600D01*
X159971700Y-119100000D02*
X159971700Y-118798400D01*
X171520000Y-94600000D02*
X170368300Y-94600000D01*
X169457700Y-41189400D02*
X170648300Y-42380000D01*
X155310600Y-41189400D02*
X169457700Y-41189400D01*
X153500000Y-43000000D02*
X155310600Y-41189400D01*
X171800000Y-42380000D02*
X170648300Y-42380000D01*
X170368300Y-94312100D02*
X170368300Y-94600000D01*
X169500700Y-93444500D02*
X170368300Y-94312100D01*
X158318700Y-93444500D02*
X169500700Y-93444500D01*
X157431700Y-94331500D02*
X158318700Y-93444500D01*
X157431700Y-94600000D02*
X157431700Y-94331500D01*
X157451700Y-62331400D02*
X157451700Y-62600000D01*
X159476500Y-60306600D02*
X157451700Y-62331400D01*
X168243000Y-60306600D02*
X159476500Y-60306600D01*
X168574900Y-60638500D02*
X168243000Y-60306600D01*
X171399200Y-60638500D02*
X168574900Y-60638500D01*
X171538700Y-60499000D02*
X171399200Y-60638500D01*
X172203900Y-60499000D02*
X171538700Y-60499000D01*
X173158200Y-61453300D02*
X172203900Y-60499000D01*
X182240000Y-61453300D02*
X173158200Y-61453300D01*
X184151700Y-63365000D02*
X182240000Y-61453300D01*
X184151700Y-65315000D02*
X184151700Y-63365000D01*
X183975000Y-65491700D02*
X184151700Y-65315000D01*
X178582100Y-65491700D02*
X183975000Y-65491700D01*
X177777100Y-66296700D02*
X178582100Y-65491700D01*
X176822900Y-66296700D02*
X177777100Y-66296700D01*
X176004000Y-65477800D02*
X176822900Y-66296700D01*
X176004000Y-65477700D02*
X176004000Y-65477800D01*
X174417700Y-65477700D02*
X176004000Y-65477700D01*
X171540000Y-62600000D02*
X174417700Y-65477700D01*
%TD*%
M02*
