M48
; DRILL file {KiCad 8.0.8} date 2025-02-18T21:41:40-0800
; FORMAT={-:-/ absolute / inch / decimal}
; #@! TF.CreationDate,2025-02-18T21:41:40-08:00
; #@! TF.GenerationSoftware,Kicad,Pcbnew,8.0.8
; #@! TF.FileFunction,Plated,1,2,PTH
FMAT,2
INCH
; #@! TA.AperFunction,Plated,PTH,ViaDrill
T1C0.0118
; #@! TA.AperFunction,Plated,PTH,ComponentDrill
T2C0.0236
; #@! TA.AperFunction,Plated,PTH,ComponentDrill
T3C0.0394
%
G90
G05
T1
X5.1378Y-2.0079
X5.2065Y-2.0079
X5.3059Y-2.2631
X5.4035Y-2.3622
X5.5315Y-1.9882
X5.6035Y-2.837
X5.659Y-2.937
X5.8024Y-2.3379
X5.8486Y-3.2698
X5.871Y-2.3473
X5.9219Y-2.1517
X6.1154Y-3.5669
X6.1742Y-2.1988
X6.1975Y-1.7556
X6.2701Y-3.137
X6.5993Y-2.71
X6.6535Y-2.8877
X6.6535Y-4.4186
X6.7028Y-4.7008
X6.811Y-2.9634
X6.8409Y-3.1051
X6.8937Y-2.7291
X6.9096Y-2.7562
X7.0827Y-2.9897
X7.0827Y-4.1555
X7.0891Y-4.5454
X7.1024Y-4.297
X7.1063Y-3.087
X7.1911Y-4.3915
X7.3031Y-4.1732
T2
X5.748Y-2.2047
X5.8071Y-2.2047
T3
X4.9528Y-3.6811
X4.9528Y-4.6063
X4.9535Y-2.4646
X4.9535Y-3.3858
X4.9906Y-2.1457
X5.0528Y-3.6811
X5.0528Y-4.6063
X5.0535Y-2.4646
X5.0535Y-3.3858
X5.0906Y-2.1457
X5.1528Y-3.6811
X5.1528Y-4.6063
X5.1535Y-2.4646
X5.1535Y-3.3858
X5.2528Y-3.6811
X5.2528Y-4.6063
X5.2535Y-2.4646
X5.2535Y-3.3858
X5.3055Y-2.1457
X5.3528Y-3.6811
X5.3528Y-4.6063
X5.3535Y-2.4646
X5.3535Y-3.3858
X5.4055Y-2.1457
X5.4528Y-3.6811
X5.4528Y-4.6063
X5.4535Y-2.4646
X5.4535Y-3.3858
X5.5528Y-3.6811
X5.5528Y-4.6063
X5.5535Y-2.4646
X5.5535Y-3.3858
X5.6528Y-3.6811
X5.6528Y-4.6063
X5.6535Y-2.4646
X5.6535Y-3.3858
X5.7528Y-3.6811
X5.7528Y-4.6063
X5.7535Y-2.4646
X5.7535Y-3.3858
X5.8465Y-1.6929
X5.8528Y-3.6811
X5.8528Y-4.6063
X5.8535Y-2.4646
X5.8535Y-3.3858
X5.9528Y-3.6811
X5.9528Y-4.6063
X5.9535Y-2.4646
X5.9535Y-3.3858
X6.0433Y-1.6929
X6.0528Y-3.6811
X6.0528Y-4.6063
X6.0535Y-2.4646
X6.0535Y-3.3858
X6.1528Y-3.6811
X6.1528Y-4.6063
X6.1535Y-2.4646
X6.1535Y-3.3858
X6.2528Y-3.6811
X6.2528Y-4.6063
X6.2535Y-2.4646
X6.2535Y-3.3858
X6.3528Y-3.6811
X6.3528Y-4.6063
X6.3535Y-2.4646
X6.3535Y-3.3858
X6.4528Y-3.6811
X6.4528Y-4.6063
X6.4535Y-2.4646
X6.4535Y-3.3858
X6.5528Y-3.6811
X6.5528Y-4.6063
X6.5535Y-2.4646
X6.5535Y-3.3858
X6.5807Y-1.4339
X6.5807Y-1.5339
X6.5807Y-1.6339
X6.5807Y-1.7339
X6.5807Y-1.9528
X6.5807Y-2.0528
X6.5807Y-2.1528
X6.5807Y-2.2528
X6.6528Y-3.6811
X6.6528Y-4.6063
X6.6535Y-2.4646
X6.6535Y-3.3858
X6.7528Y-3.6811
X6.7528Y-4.6063
X6.7535Y-2.4646
X6.7535Y-3.3858
X6.7638Y-1.4339
X6.7638Y-1.5339
X6.7638Y-1.6339
X6.7638Y-1.7339
X6.7638Y-1.9528
X6.7638Y-2.0528
X6.7638Y-2.1528
X6.7638Y-2.2528
X6.9803Y-1.6559
X6.9803Y-1.7559
X6.9803Y-1.8559
X6.9803Y-1.9559
X6.9803Y-2.0559
X6.9803Y-2.2648
X6.9803Y-2.3648
X6.9803Y-2.4648
X6.9803Y-2.5648
X6.9803Y-2.6648
X6.9803Y-2.837
X6.9803Y-2.937
X6.9803Y-3.037
X6.9803Y-3.137
X6.9803Y-3.237
X6.9803Y-3.4228
X6.9803Y-3.5228
X6.9803Y-3.6228
X6.9803Y-3.7228
X6.9803Y-3.8228
X6.9803Y-4.0055
X6.9803Y-4.1055
X6.9803Y-4.2055
X6.9803Y-4.3055
X6.9803Y-4.4921
X6.9803Y-4.5921
X6.9803Y-4.6921
X7.2047Y-1.9244
X7.2047Y-2.0244
X7.2047Y-2.1244
X7.2047Y-2.2244
X7.2047Y-2.3244
X7.2047Y-2.5331
X7.2047Y-2.6331
X7.2047Y-2.7331
X7.2047Y-2.8331
X7.2047Y-2.9331
X7.2047Y-3.1236
X7.2047Y-3.2236
X7.2047Y-3.3236
X7.2047Y-3.4236
X7.2047Y-3.5236
X7.2047Y-3.7354
X7.2047Y-3.8354
X7.2047Y-3.9354
X7.2047Y-4.0354
X7.2047Y-4.1354
M30
