M48
; DRILL file {KiCad 8.0.8} date 2025-02-17T20:57:00-0800
; FORMAT={-:-/ absolute / inch / decimal}
; #@! TF.CreationDate,2025-02-17T20:57:00-08:00
; #@! TF.GenerationSoftware,Kicad,Pcbnew,8.0.8
; #@! TF.FileFunction,Plated,1,2,PTH
FMAT,2
INCH
; #@! TA.AperFunction,Plated,PTH,ViaDrill
T1C0.0118
; #@! TA.AperFunction,Plated,PTH,ComponentDrill
T2C0.0236
; #@! TA.AperFunction,Plated,PTH,ComponentDrill
T3C0.0394
%
G90
G05
T1
X5.1714Y-1.7639
X5.2065Y-1.8138
X5.3028Y-3.5099
X5.3528Y-3.8116
X5.3556Y-1.9876
X5.4035Y-2.1465
X5.5036Y-2.1717
X5.5365Y-1.8381
X5.5365Y-2.0444
X5.7035Y-1.9059
X5.7456Y-2.5818
X5.7866Y-2.8293
X5.8028Y-3.0467
X5.9535Y-3.4107
X5.9991Y-3.1095
X6.1219Y-3.6474
X6.1517Y-3.137
X6.228Y-4.1055
X6.5654Y-4.0055
X6.5807Y-2.4139
X6.6074Y-2.7784
X6.6074Y-4.5624
X6.6528Y-4.0555
X6.6535Y-2.8914
X6.7735Y-3.5527
X6.8119Y-2.8677
X6.8119Y-3.4876
X6.888Y-3.4228
X6.9144Y-3.2939
X7.0812Y-4.3421
X7.0814Y-3.187
X7.1089Y-4.2518
X7.2666Y-3.0465
X7.268Y-4.6403
T2
X5.7795Y-2.1063
X5.8386Y-2.1063
T3
X4.9528Y-3.7244
X4.9528Y-4.689
X4.9535Y-2.4646
X4.9535Y-3.4646
X4.9906Y-2.0906
X5.0528Y-3.7244
X5.0528Y-4.689
X5.0535Y-2.4646
X5.0535Y-3.4646
X5.0906Y-2.0906
X5.1528Y-3.7244
X5.1528Y-4.689
X5.1535Y-2.4646
X5.1535Y-3.4646
X5.2528Y-3.7244
X5.2528Y-4.689
X5.2535Y-2.4646
X5.2535Y-3.4646
X5.3055Y-2.0906
X5.3528Y-3.7244
X5.3528Y-4.689
X5.3535Y-2.4646
X5.3535Y-3.4646
X5.4055Y-2.0906
X5.4528Y-3.7244
X5.4528Y-4.689
X5.4535Y-2.4646
X5.4535Y-3.4646
X5.5528Y-3.7244
X5.5528Y-4.689
X5.5535Y-2.4646
X5.5535Y-3.4646
X5.6528Y-3.7244
X5.6528Y-4.689
X5.6535Y-2.4646
X5.6535Y-3.4646
X5.7528Y-3.7244
X5.7528Y-4.689
X5.7535Y-2.4646
X5.7535Y-3.4646
X5.8465Y-1.6929
X5.8528Y-3.7244
X5.8528Y-4.689
X5.8535Y-2.4646
X5.8535Y-3.4646
X5.9528Y-3.7244
X5.9528Y-4.689
X5.9535Y-2.4646
X5.9535Y-3.4646
X6.0433Y-1.6929
X6.0528Y-3.7244
X6.0528Y-4.689
X6.0535Y-2.4646
X6.0535Y-3.4646
X6.1528Y-3.7244
X6.1528Y-4.689
X6.1535Y-2.4646
X6.1535Y-3.4646
X6.2528Y-3.7244
X6.2528Y-4.689
X6.2535Y-2.4646
X6.2535Y-3.4646
X6.3528Y-3.7244
X6.3528Y-4.689
X6.3535Y-2.4646
X6.3535Y-3.4646
X6.4528Y-3.7244
X6.4528Y-4.689
X6.4535Y-2.4646
X6.4535Y-3.4646
X6.5528Y-3.7244
X6.5528Y-4.689
X6.5535Y-2.4646
X6.5535Y-3.4646
X6.5807Y-1.4685
X6.5807Y-1.5685
X6.5807Y-1.6685
X6.5807Y-1.7685
X6.5807Y-1.9528
X6.5807Y-2.0528
X6.5807Y-2.1528
X6.5807Y-2.2528
X6.6528Y-3.7244
X6.6528Y-4.689
X6.6535Y-2.4646
X6.6535Y-3.4646
X6.7528Y-3.7244
X6.7528Y-4.689
X6.7535Y-2.4646
X6.7535Y-3.4646
X6.7638Y-1.4685
X6.7638Y-1.5685
X6.7638Y-1.6685
X6.7638Y-1.7685
X6.7638Y-1.9528
X6.7638Y-2.0528
X6.7638Y-2.1528
X6.7638Y-2.2528
X6.9803Y-1.6559
X6.9803Y-1.7559
X6.9803Y-1.8559
X6.9803Y-1.9559
X6.9803Y-2.0559
X6.9803Y-2.2648
X6.9803Y-2.3648
X6.9803Y-2.4648
X6.9803Y-2.5648
X6.9803Y-2.6648
X6.9803Y-2.837
X6.9803Y-2.937
X6.9803Y-3.037
X6.9803Y-3.137
X6.9803Y-3.237
X6.9803Y-3.4228
X6.9803Y-3.5228
X6.9803Y-3.6228
X6.9803Y-3.7228
X6.9803Y-3.8228
X6.9803Y-4.0055
X6.9803Y-4.1055
X6.9803Y-4.2055
X6.9803Y-4.3055
X6.9803Y-4.4921
X6.9803Y-4.5921
X6.9803Y-4.6921
X7.2047Y-1.9244
X7.2047Y-2.0244
X7.2047Y-2.1244
X7.2047Y-2.2244
X7.2047Y-2.3244
X7.2047Y-2.5331
X7.2047Y-2.6331
X7.2047Y-2.7331
X7.2047Y-2.8331
X7.2047Y-2.9331
X7.2047Y-3.1236
X7.2047Y-3.2236
X7.2047Y-3.3236
X7.2047Y-3.4236
X7.2047Y-3.5236
X7.2047Y-3.7354
X7.2047Y-3.8354
X7.2047Y-3.9354
X7.2047Y-4.0354
X7.2047Y-4.1354
M30
