%TF.GenerationSoftware,KiCad,Pcbnew,8.0.7*%
%TF.CreationDate,2025-02-18T15:16:03-08:00*%
%TF.ProjectId,pcbfrfr,70636266-7266-4722-9e6b-696361645f70,rev?*%
%TF.SameCoordinates,Original*%
%TF.FileFunction,Copper,L2,Bot*%
%TF.FilePolarity,Positive*%
%FSLAX46Y46*%
G04 Gerber Fmt 4.6, Leading zero omitted, Abs format (unit mm)*
G04 Created by KiCad (PCBNEW 8.0.7) date 2025-02-18 15:16:03*
%MOMM*%
%LPD*%
G01*
G04 APERTURE LIST*
%TA.AperFunction,ComponentPad*%
%ADD10R,1.700000X1.700000*%
%TD*%
%TA.AperFunction,ComponentPad*%
%ADD11O,1.700000X1.700000*%
%TD*%
%TA.AperFunction,ComponentPad*%
%ADD12R,2.000000X2.000000*%
%TD*%
%TA.AperFunction,ComponentPad*%
%ADD13C,2.000000*%
%TD*%
%TA.AperFunction,ComponentPad*%
%ADD14R,1.200000X1.200000*%
%TD*%
%TA.AperFunction,ComponentPad*%
%ADD15C,1.200000*%
%TD*%
%TA.AperFunction,ViaPad*%
%ADD16C,0.600000*%
%TD*%
%TA.AperFunction,Conductor*%
%ADD17C,0.200000*%
%TD*%
G04 APERTURE END LIST*
D10*
%TO.P,J16,1,Pin_1*%
%TO.N,Net-(J16-Pin_1)*%
X177300000Y-42060000D03*
D11*
%TO.P,J16,2,Pin_2*%
%TO.N,Net-(J16-Pin_2)*%
X177300000Y-44600000D03*
%TO.P,J16,3,Pin_3*%
%TO.N,Net-(J16-Pin_3)*%
X177300000Y-47140000D03*
%TO.P,J16,4,Pin_4*%
%TO.N,Net-(J16-Pin_4)*%
X177300000Y-49680000D03*
%TO.P,J16,5,Pin_5*%
%TO.N,Net-(J16-Pin_5)*%
X177300000Y-52220000D03*
%TD*%
D10*
%TO.P,J7,1,Pin_1*%
%TO.N,unconnected-(J7-Pin_1-Pad1)*%
X125820000Y-62600000D03*
D11*
%TO.P,J7,2,Pin_2*%
%TO.N,unconnected-(J7-Pin_2-Pad2)*%
X128360000Y-62600000D03*
%TO.P,J7,3,Pin_3*%
%TO.N,unconnected-(J7-Pin_3-Pad3)*%
X130900000Y-62600000D03*
%TO.P,J7,4,Pin_4*%
%TO.N,unconnected-(J7-Pin_4-Pad4)*%
X133440000Y-62600000D03*
%TO.P,J7,5,Pin_5*%
%TO.N,Net-(J6-Pin_2)*%
X135980000Y-62600000D03*
%TO.P,J7,6,Pin_6*%
%TO.N,unconnected-(J7-Pin_6-Pad6)*%
X138520000Y-62600000D03*
%TO.P,J7,7,Pin_7*%
%TO.N,unconnected-(J7-Pin_7-Pad7)*%
X141060000Y-62600000D03*
%TO.P,J7,8,Pin_8*%
%TO.N,unconnected-(J7-Pin_8-Pad8)*%
X143600000Y-62600000D03*
%TO.P,J7,9,Pin_9*%
%TO.N,Net-(J5-Pin_11)*%
X146140000Y-62600000D03*
%TO.P,J7,10,Pin_10*%
%TO.N,Net-(J5-Pin_12)*%
X148680000Y-62600000D03*
%TO.P,J7,11,Pin_11*%
%TO.N,unconnected-(J7-Pin_11-Pad11)*%
X151220000Y-62600000D03*
%TO.P,J7,12,Pin_12*%
%TO.N,unconnected-(J7-Pin_12-Pad12)*%
X153760000Y-62600000D03*
%TO.P,J7,13,Pin_13*%
%TO.N,GND*%
X156300000Y-62600000D03*
%TO.P,J7,14,Pin_14*%
%TO.N,Net-(J18-Pin_1)*%
X158840000Y-62600000D03*
%TO.P,J7,15,Pin_15*%
%TO.N,Net-(J18-Pin_2)*%
X161380000Y-62600000D03*
%TO.P,J7,16,Pin_16*%
%TO.N,Net-(J18-Pin_3)*%
X163920000Y-62600000D03*
%TO.P,J7,17,Pin_17*%
%TO.N,Net-(J18-Pin_4)*%
X166460000Y-62600000D03*
%TO.P,J7,18,Pin_18*%
%TO.N,Net-(J18-Pin_5)*%
X169000000Y-62600000D03*
%TO.P,J7,19,Pin_19*%
%TO.N,GND*%
X171540000Y-62600000D03*
%TD*%
D10*
%TO.P,J11,1,Pin_1*%
%TO.N,Net-(J11-Pin_1)*%
X177300000Y-72060000D03*
D11*
%TO.P,J11,2,Pin_2*%
%TO.N,Net-(J11-Pin_2)*%
X177300000Y-74600000D03*
%TO.P,J11,3,Pin_3*%
%TO.N,Net-(J11-Pin_3)*%
X177300000Y-77140000D03*
%TO.P,J11,4,Pin_4*%
%TO.N,Net-(J11-Pin_4)*%
X177300000Y-79680000D03*
%TO.P,J11,5,Pin_5*%
%TO.N,GND*%
X177300000Y-82220000D03*
%TD*%
D10*
%TO.P,J19,1,Pin_1*%
%TO.N,Net-(J19-Pin_1)*%
X183000000Y-79340000D03*
D11*
%TO.P,J19,2,Pin_2*%
%TO.N,Net-(J19-Pin_2)*%
X183000000Y-81880000D03*
%TO.P,J19,3,Pin_3*%
%TO.N,Net-(J19-Pin_3)*%
X183000000Y-84420000D03*
%TO.P,J19,4,Pin_4*%
%TO.N,Net-(J19-Pin_4)*%
X183000000Y-86960000D03*
%TO.P,J19,5,Pin_5*%
%TO.N,Net-(J19-Pin_5)*%
X183000000Y-89500000D03*
%TD*%
D10*
%TO.P,J12,1,Pin_1*%
%TO.N,Net-(J11-Pin_4)*%
X167150000Y-37300000D03*
D11*
%TO.P,J12,2,Pin_2*%
X167150000Y-39840000D03*
%TO.P,J12,3,Pin_3*%
X167150000Y-42380000D03*
%TO.P,J12,4,Pin_4*%
X167150000Y-44920000D03*
%TD*%
D10*
%TO.P,J18,1,Pin_1*%
%TO.N,Net-(J18-Pin_1)*%
X183000000Y-64340000D03*
D11*
%TO.P,J18,2,Pin_2*%
%TO.N,Net-(J18-Pin_2)*%
X183000000Y-66880000D03*
%TO.P,J18,3,Pin_3*%
%TO.N,Net-(J18-Pin_3)*%
X183000000Y-69420000D03*
%TO.P,J18,4,Pin_4*%
%TO.N,Net-(J18-Pin_4)*%
X183000000Y-71960000D03*
%TO.P,J18,5,Pin_5*%
%TO.N,Net-(J18-Pin_5)*%
X183000000Y-74500000D03*
%TD*%
D10*
%TO.P,J10,1,Pin_1*%
%TO.N,Net-(J10-Pin_1)*%
X177300000Y-57525000D03*
D11*
%TO.P,J10,2,Pin_2*%
%TO.N,Net-(J10-Pin_2)*%
X177300000Y-60065000D03*
%TO.P,J10,3,Pin_3*%
%TO.N,Net-(J10-Pin_3)*%
X177300000Y-62605000D03*
%TO.P,J10,4,Pin_4*%
%TO.N,3.3V*%
X177300000Y-65145000D03*
%TO.P,J10,5,Pin_5*%
%TO.N,GND*%
X177300000Y-67685000D03*
%TD*%
D10*
%TO.P,J15,1,Pin_1*%
%TO.N,GND*%
X171800000Y-49600000D03*
D11*
%TO.P,J15,2,Pin_2*%
X171800000Y-52140000D03*
%TO.P,J15,3,Pin_3*%
X171800000Y-54680000D03*
%TO.P,J15,4,Pin_4*%
X171800000Y-57220000D03*
%TD*%
D10*
%TO.P,J13,1,Pin_1*%
%TO.N,GND*%
X171800000Y-37300000D03*
D11*
%TO.P,J13,2,Pin_2*%
X171800000Y-39840000D03*
%TO.P,J13,3,Pin_3*%
X171800000Y-42380000D03*
%TO.P,J13,4,Pin_4*%
X171800000Y-44920000D03*
%TD*%
D10*
%TO.P,J8,1,Pin_1*%
%TO.N,Net-(J5-Pin_17)*%
X177300000Y-101740000D03*
D11*
%TO.P,J8,2,Pin_2*%
%TO.N,Net-(J5-Pin_14)*%
X177300000Y-104280000D03*
%TO.P,J8,3,Pin_3*%
%TO.N,Net-(J11-Pin_4)*%
X177300000Y-106820000D03*
%TO.P,J8,4,Pin_4*%
%TO.N,GND*%
X177300000Y-109360000D03*
%TD*%
D10*
%TO.P,J21,1,Pin_1*%
%TO.N,Net-(D3-A)*%
X137300000Y-53100000D03*
D11*
%TO.P,J21,2,Pin_2*%
%TO.N,GND*%
X134760000Y-53100000D03*
%TD*%
D10*
%TO.P,J5,1,Pin_1*%
%TO.N,unconnected-(J5-Pin_1-Pad1)*%
X125800000Y-93500000D03*
D11*
%TO.P,J5,2,Pin_2*%
%TO.N,unconnected-(J5-Pin_2-Pad2)*%
X128340000Y-93500000D03*
%TO.P,J5,3,Pin_3*%
%TO.N,unconnected-(J5-Pin_3-Pad3)*%
X130880000Y-93500000D03*
%TO.P,J5,4,Pin_4*%
%TO.N,unconnected-(J5-Pin_4-Pad4)*%
X133420000Y-93500000D03*
%TO.P,J5,5,Pin_5*%
%TO.N,unconnected-(J5-Pin_5-Pad5)*%
X135960000Y-93500000D03*
%TO.P,J5,6,Pin_6*%
%TO.N,unconnected-(J5-Pin_6-Pad6)*%
X138500000Y-93500000D03*
%TO.P,J5,7,Pin_7*%
%TO.N,Net-(J10-Pin_3)*%
X141040000Y-93500000D03*
%TO.P,J5,8,Pin_8*%
%TO.N,unconnected-(J5-Pin_8-Pad8)*%
X143580000Y-93500000D03*
%TO.P,J5,9,Pin_9*%
%TO.N,Net-(J20-Pin_1)*%
X146120000Y-93500000D03*
%TO.P,J5,10,Pin_10*%
%TO.N,Net-(J20-Pin_2)*%
X148660000Y-93500000D03*
%TO.P,J5,11,Pin_11*%
%TO.N,Net-(J5-Pin_11)*%
X151200000Y-93500000D03*
%TO.P,J5,12,Pin_12*%
%TO.N,Net-(J5-Pin_12)*%
X153740000Y-93500000D03*
%TO.P,J5,13,Pin_13*%
%TO.N,GND*%
X156280000Y-93500000D03*
%TO.P,J5,14,Pin_14*%
%TO.N,Net-(J5-Pin_14)*%
X158820000Y-93500000D03*
%TO.P,J5,15,Pin_15*%
%TO.N,Net-(J20-Pin_3)*%
X161360000Y-93500000D03*
%TO.P,J5,16,Pin_16*%
%TO.N,Net-(J20-Pin_4)*%
X163900000Y-93500000D03*
%TO.P,J5,17,Pin_17*%
%TO.N,Net-(J5-Pin_17)*%
X166440000Y-93500000D03*
%TO.P,J5,18,Pin_18*%
%TO.N,Net-(J20-Pin_5)*%
X168980000Y-93500000D03*
%TO.P,J5,19,Pin_19*%
%TO.N,GND*%
X171520000Y-93500000D03*
%TD*%
D10*
%TO.P,J4,1,Pin_1*%
%TO.N,3.3V*%
X125800000Y-117000000D03*
D11*
%TO.P,J4,2,Pin_2*%
%TO.N,Net-(J19-Pin_1)*%
X128340000Y-117000000D03*
%TO.P,J4,3,Pin_3*%
%TO.N,Net-(J4-Pin_3)*%
X130880000Y-117000000D03*
%TO.P,J4,4,Pin_4*%
%TO.N,Net-(J19-Pin_2)*%
X133420000Y-117000000D03*
%TO.P,J4,5,Pin_5*%
%TO.N,Net-(J19-Pin_3)*%
X135960000Y-117000000D03*
%TO.P,J4,6,Pin_6*%
%TO.N,Net-(J19-Pin_4)*%
X138500000Y-117000000D03*
%TO.P,J4,7,Pin_7*%
%TO.N,Net-(J11-Pin_1)*%
X141040000Y-117000000D03*
%TO.P,J4,8,Pin_8*%
%TO.N,Net-(J11-Pin_2)*%
X143580000Y-117000000D03*
%TO.P,J4,9,Pin_9*%
%TO.N,Net-(J11-Pin_3)*%
X146120000Y-117000000D03*
%TO.P,J4,10,Pin_10*%
%TO.N,Net-(J10-Pin_2)*%
X148660000Y-117000000D03*
%TO.P,J4,11,Pin_11*%
%TO.N,Net-(J10-Pin_1)*%
X151200000Y-117000000D03*
%TO.P,J4,12,Pin_12*%
%TO.N,Net-(J19-Pin_5)*%
X153740000Y-117000000D03*
%TO.P,J4,13,Pin_13*%
%TO.N,unconnected-(J4-Pin_13-Pad13)*%
X156280000Y-117000000D03*
%TO.P,J4,14,Pin_14*%
%TO.N,GND*%
X158820000Y-117000000D03*
%TO.P,J4,15,Pin_15*%
%TO.N,unconnected-(J4-Pin_15-Pad15)*%
X161360000Y-117000000D03*
%TO.P,J4,16,Pin_16*%
%TO.N,unconnected-(J4-Pin_16-Pad16)*%
X163900000Y-117000000D03*
%TO.P,J4,17,Pin_17*%
%TO.N,unconnected-(J4-Pin_17-Pad17)*%
X166440000Y-117000000D03*
%TO.P,J4,18,Pin_18*%
%TO.N,unconnected-(J4-Pin_18-Pad18)*%
X168980000Y-117000000D03*
%TO.P,J4,19,Pin_19*%
%TO.N,unconnected-(J4-Pin_19-Pad19)*%
X171520000Y-117000000D03*
%TD*%
D10*
%TO.P,J9,1,Pin_1*%
%TO.N,GND*%
X177300000Y-114100000D03*
D11*
%TO.P,J9,2,Pin_2*%
%TO.N,Net-(J4-Pin_3)*%
X177300000Y-116640000D03*
%TO.P,J9,3,Pin_3*%
%TO.N,3.3V*%
X177300000Y-119180000D03*
%TD*%
D10*
%TO.P,J20,1,Pin_1*%
%TO.N,Net-(J20-Pin_1)*%
X183000000Y-94880000D03*
D11*
%TO.P,J20,2,Pin_2*%
%TO.N,Net-(J20-Pin_2)*%
X183000000Y-97420000D03*
%TO.P,J20,3,Pin_3*%
%TO.N,Net-(J20-Pin_3)*%
X183000000Y-99960000D03*
%TO.P,J20,4,Pin_4*%
%TO.N,Net-(J20-Pin_4)*%
X183000000Y-102500000D03*
%TO.P,J20,5,Pin_5*%
%TO.N,Net-(J20-Pin_5)*%
X183000000Y-105040000D03*
%TD*%
D10*
%TO.P,J6,1,Pin_1*%
%TO.N,3.3V*%
X177300000Y-86940000D03*
D11*
%TO.P,J6,2,Pin_2*%
%TO.N,Net-(J6-Pin_2)*%
X177300000Y-89480000D03*
%TO.P,J6,3,Pin_3*%
%TO.N,Net-(J3-Pin_15)*%
X177300000Y-92020000D03*
%TO.P,J6,4,Pin_4*%
%TO.N,Net-(J3-Pin_13)*%
X177300000Y-94560000D03*
%TO.P,J6,5,Pin_5*%
%TO.N,GND*%
X177300000Y-97100000D03*
%TD*%
D12*
%TO.P,C5,1*%
%TO.N,Net-(D1-K)*%
X148500000Y-43000000D03*
D13*
%TO.P,C5,2*%
%TO.N,GND*%
X153500000Y-43000000D03*
%TD*%
D10*
%TO.P,J14,1,Pin_1*%
%TO.N,3.3V*%
X167150000Y-49600000D03*
D11*
%TO.P,J14,2,Pin_2*%
X167150000Y-52140000D03*
%TO.P,J14,3,Pin_3*%
X167150000Y-54680000D03*
%TO.P,J14,4,Pin_4*%
X167150000Y-57220000D03*
%TD*%
D14*
%TO.P,C1,1*%
%TO.N,Net-(D1-K)*%
X146800000Y-53500000D03*
D15*
%TO.P,C1,2*%
%TO.N,GND*%
X148300000Y-53500000D03*
%TD*%
D10*
%TO.P,J3,1,Pin_1*%
%TO.N,3.3V*%
X125820000Y-86000000D03*
D11*
%TO.P,J3,2,Pin_2*%
%TO.N,Net-(J16-Pin_1)*%
X128360000Y-86000000D03*
%TO.P,J3,3,Pin_3*%
%TO.N,Net-(J16-Pin_2)*%
X130900000Y-86000000D03*
%TO.P,J3,4,Pin_4*%
%TO.N,Net-(J16-Pin_3)*%
X133440000Y-86000000D03*
%TO.P,J3,5,Pin_5*%
%TO.N,Net-(J16-Pin_4)*%
X135980000Y-86000000D03*
%TO.P,J3,6,Pin_6*%
%TO.N,Net-(J16-Pin_5)*%
X138520000Y-86000000D03*
%TO.P,J3,7,Pin_7*%
%TO.N,Net-(J17-Pin_1)*%
X141060000Y-86000000D03*
%TO.P,J3,8,Pin_8*%
%TO.N,Net-(J17-Pin_2)*%
X143600000Y-86000000D03*
%TO.P,J3,9,Pin_9*%
%TO.N,Net-(J17-Pin_3)*%
X146140000Y-86000000D03*
%TO.P,J3,10,Pin_10*%
%TO.N,Net-(J17-Pin_4)*%
X148680000Y-86000000D03*
%TO.P,J3,11,Pin_11*%
%TO.N,Net-(J17-Pin_5)*%
X151220000Y-86000000D03*
%TO.P,J3,12,Pin_12*%
%TO.N,unconnected-(J3-Pin_12-Pad12)*%
X153760000Y-86000000D03*
%TO.P,J3,13,Pin_13*%
%TO.N,Net-(J3-Pin_13)*%
X156300000Y-86000000D03*
%TO.P,J3,14,Pin_14*%
%TO.N,GND*%
X158840000Y-86000000D03*
%TO.P,J3,15,Pin_15*%
%TO.N,Net-(J3-Pin_15)*%
X161380000Y-86000000D03*
%TO.P,J3,16,Pin_16*%
%TO.N,unconnected-(J3-Pin_16-Pad16)*%
X163920000Y-86000000D03*
%TO.P,J3,17,Pin_17*%
%TO.N,unconnected-(J3-Pin_17-Pad17)*%
X166460000Y-86000000D03*
%TO.P,J3,18,Pin_18*%
%TO.N,unconnected-(J3-Pin_18-Pad18)*%
X169000000Y-86000000D03*
%TO.P,J3,19,Pin_19*%
%TO.N,unconnected-(J3-Pin_19-Pad19)*%
X171540000Y-86000000D03*
%TD*%
D10*
%TO.P,J17,1,Pin_1*%
%TO.N,Net-(J17-Pin_1)*%
X183000000Y-48880000D03*
D11*
%TO.P,J17,2,Pin_2*%
%TO.N,Net-(J17-Pin_2)*%
X183000000Y-51420000D03*
%TO.P,J17,3,Pin_3*%
%TO.N,Net-(J17-Pin_3)*%
X183000000Y-53960000D03*
%TO.P,J17,4,Pin_4*%
%TO.N,Net-(J17-Pin_4)*%
X183000000Y-56500000D03*
%TO.P,J17,5,Pin_5*%
%TO.N,Net-(J17-Pin_5)*%
X183000000Y-59040000D03*
%TD*%
D10*
%TO.P,J2,1,Pin_1*%
%TO.N,Net-(J2-Pin_1)*%
X126760000Y-53100000D03*
D11*
%TO.P,J2,2,Pin_2*%
%TO.N,Net-(D1-A)*%
X129300000Y-53100000D03*
%TD*%
D16*
%TO.N,Net-(J6-Pin_2)*%
X178111800Y-70697600D03*
%TO.N,Net-(J5-Pin_17)*%
X177021500Y-98903400D03*
%TO.N,Net-(J20-Pin_5)*%
X170792800Y-107998400D03*
%TO.N,Net-(J10-Pin_3)*%
X179276800Y-84823900D03*
%TO.N,Net-(J19-Pin_5)*%
X181813500Y-117791800D03*
%TO.N,Net-(J11-Pin_3)*%
X147306600Y-87372900D03*
%TO.N,Net-(J19-Pin_1)*%
X184200000Y-101757400D03*
%TO.N,Net-(J10-Pin_2)*%
X147526100Y-67026800D03*
%TO.N,Net-(J11-Pin_2)*%
X144951700Y-78763500D03*
%TO.N,Net-(J19-Pin_3)*%
X179861500Y-115309900D03*
%TO.N,Net-(J19-Pin_2)*%
X179155000Y-112256800D03*
%TO.N,Net-(J11-Pin_1)*%
X142370000Y-76058400D03*
%TO.N,Net-(J19-Pin_4)*%
X138478400Y-113590000D03*
X180666400Y-112924600D03*
%TO.N,Net-(J10-Pin_1)*%
X155099600Y-59513500D03*
%TO.N,Net-(J17-Pin_5)*%
X180480300Y-84169700D03*
%TO.N,Net-(J17-Pin_3)*%
X142415500Y-59480500D03*
%TO.N,Net-(J17-Pin_4)*%
X144940800Y-59527700D03*
%TO.N,Net-(J17-Pin_1)*%
X139869500Y-53794900D03*
%TO.N,Net-(J16-Pin_5)*%
X175161400Y-75989100D03*
%TO.N,Net-(J3-Pin_13)*%
X155701300Y-91682500D03*
%TO.N,Net-(J16-Pin_2)*%
X134660800Y-57042700D03*
%TO.N,Net-(J16-Pin_4)*%
X137250000Y-55916300D03*
%TO.N,Net-(J16-Pin_1)*%
X129630000Y-55132800D03*
%TO.N,Net-(J16-Pin_3)*%
X174576200Y-76579200D03*
%TO.N,Net-(J17-Pin_2)*%
X179878600Y-75937900D03*
%TO.N,Net-(D1-A)*%
X142500000Y-44256700D03*
%TO.N,3.3V*%
X174929600Y-58372200D03*
%TO.N,GND*%
X163200000Y-43768300D03*
%TO.N,Net-(D1-K)*%
X157800000Y-45879500D03*
%TD*%
D17*
%TO.N,Net-(J18-Pin_3)*%
X163920000Y-62600000D02*
X165071700Y-62600000D01*
X183000000Y-69420000D02*
X181848300Y-69420000D01*
X165071700Y-62312100D02*
X165071700Y-62600000D01*
X165939800Y-61444000D02*
X165071700Y-62312100D01*
X169521600Y-61444000D02*
X165939800Y-61444000D01*
X170270000Y-62192400D02*
X169521600Y-61444000D01*
X170270000Y-62971300D02*
X170270000Y-62192400D01*
X176232400Y-68933700D02*
X170270000Y-62971300D01*
X181362000Y-68933700D02*
X176232400Y-68933700D01*
X181848300Y-69420000D02*
X181362000Y-68933700D01*
%TO.N,Net-(J18-Pin_1)*%
X159991700Y-62331500D02*
X159991700Y-62600000D01*
X161697600Y-60625600D02*
X159991700Y-62331500D01*
X175440400Y-60625600D02*
X161697600Y-60625600D01*
X176149800Y-61335000D02*
X175440400Y-60625600D01*
X178843300Y-61335000D02*
X176149800Y-61335000D01*
X181848300Y-64340000D02*
X178843300Y-61335000D01*
X183000000Y-64340000D02*
X181848300Y-64340000D01*
X158840000Y-62600000D02*
X159991700Y-62600000D01*
%TO.N,Net-(J18-Pin_2)*%
X161380000Y-62600000D02*
X162531700Y-62600000D01*
X183000000Y-66880000D02*
X181848300Y-66880000D01*
X181383300Y-66415000D02*
X181848300Y-66880000D01*
X176893700Y-66415000D02*
X181383300Y-66415000D01*
X175411300Y-64932600D02*
X176893700Y-66415000D01*
X175411300Y-64833600D02*
X175411300Y-64932600D01*
X171605000Y-61027300D02*
X175411300Y-64833600D01*
X163816500Y-61027300D02*
X171605000Y-61027300D01*
X162531700Y-62312100D02*
X163816500Y-61027300D01*
X162531700Y-62600000D02*
X162531700Y-62312100D01*
%TO.N,Net-(J18-Pin_5)*%
X183000000Y-74500000D02*
X183000000Y-73348300D01*
X175735500Y-69335500D02*
X169000000Y-62600000D01*
X181015300Y-69335500D02*
X175735500Y-69335500D01*
X182369800Y-70690000D02*
X181015300Y-69335500D01*
X183414500Y-70690000D02*
X182369800Y-70690000D01*
X184206700Y-71482200D02*
X183414500Y-70690000D01*
X184206700Y-72429500D02*
X184206700Y-71482200D01*
X183287900Y-73348300D02*
X184206700Y-72429500D01*
X183000000Y-73348300D02*
X183287900Y-73348300D01*
%TO.N,Net-(J18-Pin_4)*%
X179663300Y-69775000D02*
X181848300Y-71960000D01*
X174498800Y-69775000D02*
X179663300Y-69775000D01*
X167611700Y-62887900D02*
X174498800Y-69775000D01*
X167611700Y-62600000D02*
X167611700Y-62887900D01*
X166460000Y-62600000D02*
X167611700Y-62600000D01*
X183000000Y-71960000D02*
X181848300Y-71960000D01*
%TO.N,Net-(J6-Pin_2)*%
X135980000Y-62600000D02*
X137131700Y-62600000D01*
X144941400Y-70697600D02*
X178111800Y-70697600D01*
X137131700Y-62887900D02*
X144941400Y-70697600D01*
X137131700Y-62600000D02*
X137131700Y-62887900D01*
%TO.N,Net-(J20-Pin_3)*%
X162511700Y-93768500D02*
X162511700Y-93500000D01*
X168703200Y-99960000D02*
X162511700Y-93768500D01*
X183000000Y-99960000D02*
X168703200Y-99960000D01*
X161360000Y-93500000D02*
X162511700Y-93500000D01*
%TO.N,Net-(J20-Pin_1)*%
X146120000Y-93500000D02*
X147271700Y-93500000D01*
X183000000Y-94880000D02*
X181848300Y-94880000D01*
X147271700Y-93198400D02*
X147271700Y-93500000D01*
X148121800Y-92348300D02*
X147271700Y-93198400D01*
X149667100Y-92348300D02*
X148121800Y-92348300D01*
X150555700Y-91459700D02*
X149667100Y-92348300D01*
X155073400Y-91459700D02*
X150555700Y-91459700D01*
X155073400Y-91459600D02*
X155073400Y-91459700D01*
X155475000Y-91058000D02*
X155073400Y-91459600D01*
X174329600Y-91058000D02*
X155475000Y-91058000D01*
X176560100Y-93288500D02*
X174329600Y-91058000D01*
X180256800Y-93288500D02*
X176560100Y-93288500D01*
X181848300Y-94880000D02*
X180256800Y-93288500D01*
%TO.N,Net-(J5-Pin_17)*%
X166440000Y-93500000D02*
X167591700Y-93500000D01*
X172726600Y-98903400D02*
X177021500Y-98903400D01*
X167591700Y-93768500D02*
X172726600Y-98903400D01*
X167591700Y-93500000D02*
X167591700Y-93768500D01*
%TO.N,Net-(J20-Pin_5)*%
X180041600Y-107998400D02*
X170792800Y-107998400D01*
X183000000Y-105040000D02*
X180041600Y-107998400D01*
%TO.N,Net-(J20-Pin_2)*%
X148660000Y-93500000D02*
X149811700Y-93500000D01*
X183000000Y-97420000D02*
X181848300Y-97420000D01*
X180365500Y-95937200D02*
X181848300Y-97420000D01*
X176097800Y-95937200D02*
X180365500Y-95937200D01*
X172066000Y-91905400D02*
X176097800Y-95937200D01*
X156905800Y-91905400D02*
X172066000Y-91905400D01*
X156527000Y-92284200D02*
X156905800Y-91905400D01*
X150739600Y-92284200D02*
X156527000Y-92284200D01*
X149811700Y-93212100D02*
X150739600Y-92284200D01*
X149811700Y-93500000D02*
X149811700Y-93212100D01*
%TO.N,Net-(J10-Pin_3)*%
X141040000Y-93500000D02*
X142191700Y-93500000D01*
X142191700Y-93212000D02*
X142191700Y-93500000D01*
X143457100Y-91946600D02*
X142191700Y-93212000D01*
X149460800Y-91946600D02*
X143457100Y-91946600D01*
X155030000Y-86377400D02*
X149460800Y-91946600D01*
X155030000Y-85604600D02*
X155030000Y-86377400D01*
X155810700Y-84823900D02*
X155030000Y-85604600D01*
X179276800Y-84823900D02*
X155810700Y-84823900D01*
%TO.N,Net-(J5-Pin_14)*%
X159971700Y-93768500D02*
X159971700Y-93500000D01*
X170483200Y-104280000D02*
X159971700Y-93768500D01*
X177300000Y-104280000D02*
X170483200Y-104280000D01*
X158820000Y-93500000D02*
X159971700Y-93500000D01*
%TO.N,Net-(J20-Pin_4)*%
X183268500Y-101348300D02*
X183000000Y-101348300D01*
X184163400Y-100453400D02*
X183268500Y-101348300D01*
X184163400Y-99460800D02*
X184163400Y-100453400D01*
X183484100Y-98781500D02*
X184163400Y-99460800D01*
X177999200Y-98781500D02*
X183484100Y-98781500D01*
X177275500Y-99505200D02*
X177999200Y-98781500D01*
X170769000Y-99505200D02*
X177275500Y-99505200D01*
X165051700Y-93787900D02*
X170769000Y-99505200D01*
X165051700Y-93500000D02*
X165051700Y-93787900D01*
X163900000Y-93500000D02*
X165051700Y-93500000D01*
X183000000Y-102500000D02*
X183000000Y-101348300D01*
%TO.N,Net-(J19-Pin_5)*%
X173940600Y-117791800D02*
X181813500Y-117791800D01*
X171593300Y-115444500D02*
X173940600Y-117791800D01*
X156159200Y-115444500D02*
X171593300Y-115444500D01*
X154891700Y-116712000D02*
X156159200Y-115444500D01*
X154891700Y-117000000D02*
X154891700Y-116712000D01*
X153740000Y-117000000D02*
X154891700Y-117000000D01*
%TO.N,Net-(J11-Pin_3)*%
X177300000Y-77140000D02*
X176148300Y-77140000D01*
X169621200Y-83667100D02*
X176148300Y-77140000D01*
X151888800Y-83667100D02*
X169621200Y-83667100D01*
X149950000Y-85605900D02*
X151888800Y-83667100D01*
X149950000Y-86378000D02*
X149950000Y-85605900D01*
X148955100Y-87372900D02*
X149950000Y-86378000D01*
X147306600Y-87372900D02*
X148955100Y-87372900D01*
%TO.N,Net-(J19-Pin_1)*%
X184200000Y-103025700D02*
X184200000Y-101757400D01*
X183337400Y-103888300D02*
X184200000Y-103025700D01*
X182522900Y-103888300D02*
X183337400Y-103888300D01*
X180861200Y-105550000D02*
X182522900Y-103888300D01*
X140653800Y-105550000D02*
X180861200Y-105550000D01*
X129491700Y-116712100D02*
X140653800Y-105550000D01*
X129491700Y-117000000D02*
X129491700Y-116712100D01*
X128340000Y-117000000D02*
X129491700Y-117000000D01*
%TO.N,Net-(J10-Pin_2)*%
X148451200Y-67026800D02*
X147526100Y-67026800D01*
X152490000Y-62988000D02*
X148451200Y-67026800D01*
X152490000Y-62218900D02*
X152490000Y-62988000D01*
X153260600Y-61448300D02*
X152490000Y-62218900D01*
X158028100Y-61448300D02*
X153260600Y-61448300D01*
X159411400Y-60065000D02*
X158028100Y-61448300D01*
X177300000Y-60065000D02*
X159411400Y-60065000D01*
%TO.N,Net-(J11-Pin_2)*%
X177300000Y-74600000D02*
X176148300Y-74600000D01*
X171525500Y-78763500D02*
X144951700Y-78763500D01*
X175689000Y-74600000D02*
X171525500Y-78763500D01*
X176148300Y-74600000D02*
X175689000Y-74600000D01*
%TO.N,Net-(J19-Pin_3)*%
X135960000Y-117000000D02*
X137111700Y-117000000D01*
X137111700Y-116712100D02*
X137111700Y-117000000D01*
X139198100Y-114625700D02*
X137111700Y-116712100D01*
X172734100Y-114625700D02*
X139198100Y-114625700D01*
X173418300Y-115309900D02*
X172734100Y-114625700D01*
X179861500Y-115309900D02*
X173418300Y-115309900D01*
%TO.N,Net-(J19-Pin_2)*%
X133420000Y-117000000D02*
X134571700Y-117000000D01*
X138886900Y-112256800D02*
X179155000Y-112256800D01*
X134571700Y-116572000D02*
X138886900Y-112256800D01*
X134571700Y-117000000D02*
X134571700Y-116572000D01*
%TO.N,Net-(J11-Pin_1)*%
X172149900Y-76058400D02*
X142370000Y-76058400D01*
X176148300Y-72060000D02*
X172149900Y-76058400D01*
X177300000Y-72060000D02*
X176148300Y-72060000D01*
%TO.N,Net-(J19-Pin_4)*%
X139143800Y-112924600D02*
X180666400Y-112924600D01*
X138478400Y-113590000D02*
X139143800Y-112924600D01*
%TO.N,Net-(J10-Pin_1)*%
X177300000Y-57525000D02*
X176148300Y-57525000D01*
X174663700Y-59513500D02*
X155099600Y-59513500D01*
X176148300Y-58028900D02*
X174663700Y-59513500D01*
X176148300Y-57525000D02*
X176148300Y-58028900D01*
%TO.N,Net-(J17-Pin_5)*%
X151220000Y-86000000D02*
X152371700Y-86000000D01*
X153914100Y-84169700D02*
X180480300Y-84169700D01*
X152371700Y-85712100D02*
X153914100Y-84169700D01*
X152371700Y-86000000D02*
X152371700Y-85712100D01*
%TO.N,Net-(J17-Pin_3)*%
X144962600Y-56933400D02*
X142415500Y-59480500D01*
X150445700Y-56933400D02*
X144962600Y-56933400D01*
X153896200Y-53482900D02*
X150445700Y-56933400D01*
X181371200Y-53482900D02*
X153896200Y-53482900D01*
X181848300Y-53960000D02*
X181371200Y-53482900D01*
X183000000Y-53960000D02*
X181848300Y-53960000D01*
%TO.N,Net-(J3-Pin_15)*%
X171280000Y-87151700D02*
X161380000Y-87151700D01*
X176148300Y-92020000D02*
X171280000Y-87151700D01*
X177300000Y-92020000D02*
X176148300Y-92020000D01*
X161380000Y-86000000D02*
X161380000Y-87151700D01*
%TO.N,Net-(J17-Pin_4)*%
X183000000Y-56500000D02*
X181848300Y-56500000D01*
X181371200Y-56022900D02*
X181848300Y-56500000D01*
X151924300Y-56022900D02*
X181371200Y-56022900D01*
X148419500Y-59527700D02*
X151924300Y-56022900D01*
X144940800Y-59527700D02*
X148419500Y-59527700D01*
%TO.N,Net-(J17-Pin_1)*%
X183000000Y-48880000D02*
X181848300Y-48880000D01*
X181378300Y-48410000D02*
X181848300Y-48880000D01*
X145254400Y-48410000D02*
X181378300Y-48410000D01*
X139869500Y-53794900D02*
X145254400Y-48410000D01*
%TO.N,Net-(J16-Pin_5)*%
X138520000Y-86000000D02*
X139671700Y-86000000D01*
X175234700Y-76062400D02*
X175161400Y-75989100D01*
X175234700Y-76824400D02*
X175234700Y-76062400D01*
X170212600Y-81846500D02*
X175234700Y-76824400D01*
X143537300Y-81846500D02*
X170212600Y-81846500D01*
X139671700Y-85712100D02*
X143537300Y-81846500D01*
X139671700Y-86000000D02*
X139671700Y-85712100D01*
%TO.N,Net-(J3-Pin_13)*%
X173048000Y-91459700D02*
X176148300Y-94560000D01*
X155924100Y-91459700D02*
X173048000Y-91459700D01*
X155701300Y-91682500D02*
X155924100Y-91459700D01*
X177300000Y-94560000D02*
X176148300Y-94560000D01*
%TO.N,Net-(J16-Pin_2)*%
X177300000Y-44600000D02*
X176148300Y-44600000D01*
X172896400Y-47851900D02*
X176148300Y-44600000D01*
X172896400Y-47852000D02*
X172896400Y-47851900D01*
X138375500Y-47852000D02*
X172896400Y-47852000D01*
X133599700Y-52627800D02*
X138375500Y-47852000D01*
X133599700Y-55981600D02*
X133599700Y-52627800D01*
X134660800Y-57042700D02*
X133599700Y-55981600D01*
%TO.N,Net-(J16-Pin_4)*%
X177300000Y-49680000D02*
X176148300Y-49680000D01*
X150695000Y-55916300D02*
X137250000Y-55916300D01*
X155779600Y-50831700D02*
X150695000Y-55916300D01*
X174996600Y-50831700D02*
X155779600Y-50831700D01*
X176148300Y-49680000D02*
X174996600Y-50831700D01*
%TO.N,Net-(J16-Pin_1)*%
X137655600Y-47107200D02*
X129630000Y-55132800D01*
X171245100Y-47107200D02*
X137655600Y-47107200D01*
X176148300Y-42204000D02*
X171245100Y-47107200D01*
X176148300Y-42060000D02*
X176148300Y-42204000D01*
X177300000Y-42060000D02*
X176148300Y-42060000D01*
%TO.N,Net-(J16-Pin_3)*%
X133440000Y-86000000D02*
X134591700Y-86000000D01*
X170928000Y-80227400D02*
X174576200Y-76579200D01*
X140095800Y-80227400D02*
X170928000Y-80227400D01*
X134591700Y-85731500D02*
X140095800Y-80227400D01*
X134591700Y-86000000D02*
X134591700Y-85731500D01*
%TO.N,Net-(J17-Pin_2)*%
X143600000Y-86000000D02*
X144751700Y-86000000D01*
X176768300Y-75937900D02*
X179878600Y-75937900D01*
X170416700Y-82289500D02*
X176768300Y-75937900D01*
X148174300Y-82289500D02*
X170416700Y-82289500D01*
X144751700Y-85712100D02*
X148174300Y-82289500D01*
X144751700Y-86000000D02*
X144751700Y-85712100D01*
%TO.N,Net-(D1-A)*%
X129300000Y-53100000D02*
X130451700Y-53100000D01*
X139295000Y-44256700D02*
X130451700Y-53100000D01*
X142500000Y-44256700D02*
X139295000Y-44256700D01*
%TO.N,Net-(J4-Pin_3)*%
X132031700Y-117268500D02*
X132031700Y-117000000D01*
X132918100Y-118154900D02*
X132031700Y-117268500D01*
X144088800Y-118154900D02*
X132918100Y-118154900D01*
X144850000Y-117393700D02*
X144088800Y-118154900D01*
X144850000Y-116632400D02*
X144850000Y-117393700D01*
X146455000Y-115027400D02*
X144850000Y-116632400D01*
X172467000Y-115027400D02*
X146455000Y-115027400D01*
X174079600Y-116640000D02*
X172467000Y-115027400D01*
X177300000Y-116640000D02*
X174079600Y-116640000D01*
X130880000Y-117000000D02*
X132031700Y-117000000D01*
%TO.N,3.3V*%
X125800000Y-117000000D02*
X126951700Y-117000000D01*
X167150000Y-57220000D02*
X168301700Y-57220000D01*
X164448600Y-119180000D02*
X177300000Y-119180000D01*
X162630000Y-117361400D02*
X164448600Y-119180000D01*
X162630000Y-116604600D02*
X162630000Y-117361400D01*
X161873700Y-115848300D02*
X162630000Y-116604600D01*
X158342900Y-115848300D02*
X161873700Y-115848300D01*
X157668300Y-116522900D02*
X158342900Y-115848300D01*
X157668300Y-117253300D02*
X157668300Y-116522900D01*
X156365000Y-118556600D02*
X157668300Y-117253300D01*
X128220400Y-118556600D02*
X156365000Y-118556600D01*
X126951700Y-117287900D02*
X128220400Y-118556600D01*
X126951700Y-117000000D02*
X126951700Y-117287900D01*
X169453900Y-58372200D02*
X174929600Y-58372200D01*
X168301700Y-57220000D02*
X169453900Y-58372200D01*
%TO.N,GND*%
X134760000Y-53100000D02*
X135911700Y-53100000D01*
X171520000Y-93500000D02*
X172671700Y-93500000D01*
X177300000Y-97100000D02*
X176148300Y-97100000D01*
X172671700Y-93623400D02*
X176148300Y-97100000D01*
X172671700Y-93500000D02*
X172671700Y-93623400D01*
X171800000Y-44920000D02*
X170648300Y-44920000D01*
X156280000Y-93500000D02*
X157431700Y-93500000D01*
X171520000Y-93500000D02*
X170368300Y-93500000D01*
X176148300Y-67208300D02*
X171540000Y-62600000D01*
X176148300Y-67685000D02*
X176148300Y-67208300D01*
X177300000Y-67685000D02*
X176148300Y-67685000D01*
X135911700Y-53891800D02*
X135911700Y-53100000D01*
X136427500Y-54407600D02*
X135911700Y-53891800D01*
X147538300Y-54407600D02*
X136427500Y-54407600D01*
X148300000Y-53645900D02*
X147538300Y-54407600D01*
X148300000Y-53500000D02*
X148300000Y-53645900D01*
X154268300Y-43768300D02*
X163200000Y-43768300D01*
X153500000Y-43000000D02*
X154268300Y-43768300D01*
X169496600Y-43768300D02*
X163200000Y-43768300D01*
X170648300Y-44920000D02*
X169496600Y-43768300D01*
X170368300Y-93212100D02*
X170368300Y-93500000D01*
X169464800Y-92308600D02*
X170368300Y-93212100D01*
X158368200Y-92308600D02*
X169464800Y-92308600D01*
X157431700Y-93245100D02*
X158368200Y-92308600D01*
X157431700Y-93500000D02*
X157431700Y-93245100D01*
%TO.N,Net-(D1-K)*%
X148500000Y-43000000D02*
X149801700Y-43000000D01*
X152681200Y-45879500D02*
X157800000Y-45879500D01*
X149801700Y-43000000D02*
X152681200Y-45879500D01*
%TD*%
M02*
