%TF.GenerationSoftware,KiCad,Pcbnew,8.0.8*%
%TF.CreationDate,2025-02-18T21:41:40-08:00*%
%TF.ProjectId,pcbfrfr,70636266-7266-4722-9e6b-696361645f70,rev?*%
%TF.SameCoordinates,Original*%
%TF.FileFunction,Paste,Top*%
%TF.FilePolarity,Positive*%
%FSLAX46Y46*%
G04 Gerber Fmt 4.6, Leading zero omitted, Abs format (unit mm)*
G04 Created by KiCad (PCBNEW 8.0.8) date 2025-02-18 21:41:40*
%MOMM*%
%LPD*%
G01*
G04 APERTURE LIST*
G04 Aperture macros list*
%AMRoundRect*
0 Rectangle with rounded corners*
0 $1 Rounding radius*
0 $2 $3 $4 $5 $6 $7 $8 $9 X,Y pos of 4 corners*
0 Add a 4 corners polygon primitive as box body*
4,1,4,$2,$3,$4,$5,$6,$7,$8,$9,$2,$3,0*
0 Add four circle primitives for the rounded corners*
1,1,$1+$1,$2,$3*
1,1,$1+$1,$4,$5*
1,1,$1+$1,$6,$7*
1,1,$1+$1,$8,$9*
0 Add four rect primitives between the rounded corners*
20,1,$1+$1,$2,$3,$4,$5,0*
20,1,$1+$1,$4,$5,$6,$7,0*
20,1,$1+$1,$6,$7,$8,$9,0*
20,1,$1+$1,$8,$9,$2,$3,0*%
G04 Aperture macros list end*
%ADD10RoundRect,0.250000X-0.250000X-0.475000X0.250000X-0.475000X0.250000X0.475000X-0.250000X0.475000X0*%
%ADD11RoundRect,0.140000X-0.140000X-0.170000X0.140000X-0.170000X0.140000X0.170000X-0.140000X0.170000X0*%
%ADD12RoundRect,0.250000X-0.700000X-1.000000X0.700000X-1.000000X0.700000X1.000000X-0.700000X1.000000X0*%
%ADD13RoundRect,0.140000X-0.170000X0.140000X-0.170000X-0.140000X0.170000X-0.140000X0.170000X0.140000X0*%
%ADD14RoundRect,0.150000X-0.150000X0.512500X-0.150000X-0.512500X0.150000X-0.512500X0.150000X0.512500X0*%
%ADD15R,2.000000X3.000000*%
%ADD16RoundRect,0.150000X-0.512500X-0.150000X0.512500X-0.150000X0.512500X0.150000X-0.512500X0.150000X0*%
%ADD17RoundRect,0.250000X0.700000X1.000000X-0.700000X1.000000X-0.700000X-1.000000X0.700000X-1.000000X0*%
%ADD18RoundRect,0.140000X0.170000X-0.140000X0.170000X0.140000X-0.170000X0.140000X-0.170000X-0.140000X0*%
%ADD19RoundRect,0.250000X-0.650000X1.000000X-0.650000X-1.000000X0.650000X-1.000000X0.650000X1.000000X0*%
G04 APERTURE END LIST*
D10*
%TO.C,C3*%
X151300000Y-53000000D03*
X153200000Y-53000000D03*
%TD*%
D11*
%TO.C,C8*%
X157800000Y-52000000D03*
X158760000Y-52000000D03*
%TD*%
D12*
%TO.C,L3*%
X158750000Y-56500000D03*
X162850000Y-56500000D03*
%TD*%
D11*
%TO.C,C12*%
X171540000Y-110500000D03*
X172500000Y-110500000D03*
%TD*%
D13*
%TO.C,C6*%
X141800000Y-56000000D03*
X141800000Y-56960000D03*
%TD*%
D11*
%TO.C,C11*%
X172500000Y-108500000D03*
X171540000Y-108500000D03*
%TD*%
D14*
%TO.C,U1*%
X158900000Y-47000000D03*
X157950000Y-47000000D03*
X157000000Y-47000000D03*
X157000000Y-49275000D03*
X157950000Y-49275000D03*
X158900000Y-49275000D03*
%TD*%
D15*
%TO.C,J1*%
X129400000Y-36500000D03*
X135400000Y-36500000D03*
X135400000Y-47500000D03*
X129400000Y-47500000D03*
%TD*%
D16*
%TO.C,U2*%
X157800000Y-41550000D03*
X157800000Y-42500000D03*
X157800000Y-43450000D03*
X160075000Y-43450000D03*
X160075000Y-42500000D03*
X160075000Y-41550000D03*
%TD*%
D17*
%TO.C,L1*%
X162550000Y-36500000D03*
X158450000Y-36500000D03*
%TD*%
D18*
%TO.C,C2*%
X163000000Y-42460000D03*
X163000000Y-41500000D03*
%TD*%
%TO.C,C7*%
X156000000Y-55500000D03*
X156000000Y-54540000D03*
%TD*%
D10*
%TO.C,C9*%
X161600000Y-46000000D03*
X163500000Y-46000000D03*
%TD*%
D19*
%TO.C,D3*%
X143000000Y-46000000D03*
X143000000Y-50000000D03*
%TD*%
D10*
%TO.C,C4*%
X151300000Y-57000000D03*
X153200000Y-57000000D03*
%TD*%
D19*
%TO.C,D1*%
X143000000Y-36000000D03*
X143000000Y-40000000D03*
%TD*%
D11*
%TO.C,C13*%
X171540000Y-112500000D03*
X172500000Y-112500000D03*
%TD*%
D10*
%TO.C,C10*%
X161600000Y-49500000D03*
X163500000Y-49500000D03*
%TD*%
M02*
